%TF.GenerationSoftware,KiCad,Pcbnew,9.0.8+1*%
%TF.CreationDate,2026-05-04T20:35:43-04:00*%
%TF.ProjectId,wendigo_gnss_adapter,77656e64-6967-46f5-9f67-6e73735f6164,rev?*%
%TF.SameCoordinates,Original*%
%TF.FileFunction,Copper,L1,Top*%
%TF.FilePolarity,Positive*%
%FSLAX46Y46*%
G04 Gerber Fmt 4.6, Leading zero omitted, Abs format (unit mm)*
G04 Created by KiCad (PCBNEW 9.0.8+1) date 2026-05-04 20:35:43*
%MOMM*%
%LPD*%
G01*
G04 APERTURE LIST*
G04 Aperture macros list*
%AMRoundRect*
0 Rectangle with rounded corners*
0 $1 Rounding radius*
0 $2 $3 $4 $5 $6 $7 $8 $9 X,Y pos of 4 corners*
0 Add a 4 corners polygon primitive as box body*
4,1,4,$2,$3,$4,$5,$6,$7,$8,$9,$2,$3,0*
0 Add four circle primitives for the rounded corners*
1,1,$1+$1,$2,$3*
1,1,$1+$1,$4,$5*
1,1,$1+$1,$6,$7*
1,1,$1+$1,$8,$9*
0 Add four rect primitives between the rounded corners*
20,1,$1+$1,$2,$3,$4,$5,0*
20,1,$1+$1,$4,$5,$6,$7,0*
20,1,$1+$1,$6,$7,$8,$9,0*
20,1,$1+$1,$8,$9,$2,$3,0*%
G04 Aperture macros list end*
%TA.AperFunction,SMDPad,CuDef*%
%ADD10RoundRect,0.175000X0.175000X-0.725000X0.175000X0.725000X-0.175000X0.725000X-0.175000X-0.725000X0*%
%TD*%
%TA.AperFunction,SMDPad,CuDef*%
%ADD11RoundRect,0.200000X0.200000X-0.700000X0.200000X0.700000X-0.200000X0.700000X-0.200000X-0.700000X0*%
%TD*%
%TA.AperFunction,SMDPad,CuDef*%
%ADD12RoundRect,0.100000X0.400000X0.400000X-0.400000X0.400000X-0.400000X-0.400000X0.400000X-0.400000X0*%
%TD*%
%TA.AperFunction,SMDPad,CuDef*%
%ADD13RoundRect,0.105000X0.420000X0.995000X-0.420000X0.995000X-0.420000X-0.995000X0.420000X-0.995000X0*%
%TD*%
%TA.AperFunction,ComponentPad*%
%ADD14R,1.700000X1.700000*%
%TD*%
%TA.AperFunction,ComponentPad*%
%ADD15C,1.700000*%
%TD*%
%TA.AperFunction,ViaPad*%
%ADD16C,0.600000*%
%TD*%
%TA.AperFunction,Conductor*%
%ADD17C,0.937000*%
%TD*%
%TA.AperFunction,Conductor*%
%ADD18C,1.000000*%
%TD*%
%TA.AperFunction,Conductor*%
%ADD19C,0.800000*%
%TD*%
%TA.AperFunction,Conductor*%
%ADD20C,0.200000*%
%TD*%
G04 APERTURE END LIST*
D10*
%TO.P,U1,1,GND*%
%TO.N,GND*%
X105600000Y-73750000D03*
D11*
%TO.P,U1,2,TXD*%
%TO.N,/TXD*%
X106700000Y-73750000D03*
%TO.P,U1,3,RXD*%
%TO.N,/RXD*%
X107800000Y-73750000D03*
%TO.P,U1,4,TIMEPULSE*%
%TO.N,/TIMEPULSE*%
X108900000Y-73750000D03*
%TO.P,U1,5,EXTINT*%
%TO.N,/EXTINT*%
X110000000Y-73750000D03*
%TO.P,U1,6,V_BCKP*%
%TO.N,/V_BCKP*%
X111100000Y-73750000D03*
%TO.P,U1,7,VCC_IO*%
%TO.N,/VCC_IO*%
X112200000Y-73750000D03*
%TO.P,U1,8,VCC*%
%TO.N,/VCC*%
X113300000Y-73750000D03*
D10*
%TO.P,U1,9,~{RESET}*%
%TO.N,/N_RESET*%
X114400000Y-73750000D03*
%TO.P,U1,10,GND*%
%TO.N,GND*%
X114400000Y-64250000D03*
D11*
%TO.P,U1,11,RF_IN*%
%TO.N,/RF_IN*%
X113300000Y-64250000D03*
%TO.P,U1,12,GND*%
%TO.N,GND*%
X112200000Y-64250000D03*
%TO.P,U1,13,LNA_EN*%
%TO.N,/LNA_EN*%
X111100000Y-64250000D03*
%TO.P,U1,14,VCC_RF*%
%TO.N,/VCC_RF*%
X110000000Y-64250000D03*
%TO.P,U1,15,VIO_SEL*%
%TO.N,/VIO_SEL*%
X108900000Y-64250000D03*
%TO.P,U1,16,SDA*%
%TO.N,/SDA*%
X107800000Y-64250000D03*
%TO.P,U1,17,SCL*%
%TO.N,/SCL*%
X106700000Y-64250000D03*
D10*
%TO.P,U1,18,~{SAFEBOOT}*%
%TO.N,/N_SAFEBOOT*%
X105600000Y-64250000D03*
%TD*%
D12*
%TO.P,J3,1,In*%
%TO.N,/RF_IN*%
X113300000Y-59000000D03*
D13*
%TO.P,J3,2,Ext*%
%TO.N,GND*%
X111825000Y-57500000D03*
D12*
X113300000Y-56000000D03*
D13*
X114775000Y-57500000D03*
%TD*%
D14*
%TO.P,J2,1,Pin_1*%
%TO.N,GND*%
X117606000Y-97394000D03*
D15*
%TO.P,J2,2,Pin_2*%
%TO.N,/TXD*%
X117606000Y-94854000D03*
%TO.P,J2,3,Pin_3*%
%TO.N,/RXD*%
X117606000Y-92314000D03*
%TO.P,J2,4,Pin_4*%
%TO.N,/TIMEPULSE*%
X117606000Y-89774000D03*
%TO.P,J2,5,Pin_5*%
%TO.N,/EXTINT*%
X117606000Y-87234000D03*
%TO.P,J2,6,Pin_6*%
%TO.N,/V_BCKP*%
X117606000Y-84694000D03*
%TO.P,J2,7,Pin_7*%
%TO.N,/VCC_IO*%
X117606000Y-82154000D03*
%TO.P,J2,8,Pin_8*%
%TO.N,/VCC*%
X117606000Y-79614000D03*
%TO.P,J2,9,Pin_9*%
%TO.N,/N_RESET*%
X117606000Y-77074000D03*
%TD*%
D14*
%TO.P,J1,1,Pin_1*%
%TO.N,GND*%
X102366000Y-77074000D03*
D15*
%TO.P,J1,2,Pin_2*%
%TO.N,unconnected-(J1-Pin_2-Pad2)*%
X102366000Y-79614000D03*
%TO.P,J1,3,Pin_3*%
%TO.N,/N_SAFEBOOT*%
X102366000Y-82154000D03*
%TO.P,J1,4,Pin_4*%
%TO.N,/SCL*%
X102366000Y-84694000D03*
%TO.P,J1,5,Pin_5*%
%TO.N,/SDA*%
X102366000Y-87234000D03*
%TO.P,J1,6,Pin_6*%
%TO.N,/VIO_SEL*%
X102366000Y-89774000D03*
%TO.P,J1,7,Pin_7*%
%TO.N,/VCC_RF*%
X102366000Y-92314000D03*
%TO.P,J1,8,Pin_8*%
%TO.N,/LNA_EN*%
X102366000Y-94854000D03*
%TO.P,J1,9,Pin_9*%
%TO.N,unconnected-(J1-Pin_9-Pad9)*%
X102366000Y-97394000D03*
%TD*%
D16*
%TO.N,/VIO_SEL*%
X108900000Y-65800000D03*
%TO.N,/VCC_RF*%
X110000000Y-65800000D03*
%TO.N,/SDA*%
X107800000Y-65800000D03*
%TO.N,/LNA_EN*%
X111100000Y-65800000D03*
%TO.N,/SCL*%
X106700000Y-65800000D03*
%TO.N,/N_SAFEBOOT*%
X105600000Y-65800000D03*
%TD*%
D17*
%TO.N,/RF_IN*%
X113300000Y-59550000D02*
X113300000Y-63112454D01*
D18*
X113300000Y-59000000D02*
X113300000Y-59550000D01*
D19*
X113300000Y-64450000D02*
X113300000Y-63112454D01*
D20*
%TO.N,/VIO_SEL*%
X108900000Y-64250000D02*
X108900000Y-65800000D01*
%TO.N,/TXD*%
X106700000Y-93550000D02*
X106700000Y-73750000D01*
X108004000Y-94854000D02*
X106700000Y-93550000D01*
X117606000Y-94854000D02*
X108004000Y-94854000D01*
%TO.N,/EXTINT*%
X110000000Y-85950000D02*
X110000000Y-73750000D01*
X117606000Y-87234000D02*
X111284000Y-87234000D01*
X111284000Y-87234000D02*
X110000000Y-85950000D01*
%TO.N,/V_BCKP*%
X111100000Y-83400000D02*
X111100000Y-73750000D01*
X117606000Y-84694000D02*
X112394000Y-84694000D01*
X112394000Y-84694000D02*
X111100000Y-83400000D01*
%TO.N,/VCC*%
X113300000Y-78350000D02*
X113300000Y-73750000D01*
X114564000Y-79614000D02*
X113300000Y-78350000D01*
X117606000Y-79614000D02*
X114564000Y-79614000D01*
%TO.N,/RXD*%
X109164000Y-92314000D02*
X117606000Y-92314000D01*
X107800000Y-73750000D02*
X107800000Y-90950000D01*
X107800000Y-90950000D02*
X109164000Y-92314000D01*
%TO.N,/VCC_IO*%
X113404000Y-82154000D02*
X112200000Y-80950000D01*
X112200000Y-80950000D02*
X112200000Y-73750000D01*
X117606000Y-82154000D02*
X113404000Y-82154000D01*
%TO.N,/N_RESET*%
X114400000Y-75800000D02*
X114400000Y-73750000D01*
X115674000Y-77074000D02*
X114400000Y-75800000D01*
X117606000Y-77074000D02*
X115674000Y-77074000D01*
%TO.N,/TIMEPULSE*%
X110224000Y-89774000D02*
X108900000Y-88450000D01*
X117606000Y-89774000D02*
X110224000Y-89774000D01*
X108900000Y-88450000D02*
X108900000Y-73750000D01*
%TO.N,/VCC_RF*%
X110000000Y-64250000D02*
X110000000Y-65800000D01*
%TO.N,/SDA*%
X107800000Y-64250000D02*
X107800000Y-65800000D01*
%TO.N,/LNA_EN*%
X111100000Y-64250000D02*
X111100000Y-65800000D01*
%TO.N,/SCL*%
X106700000Y-64250000D02*
X106700000Y-65800000D01*
%TO.N,/N_SAFEBOOT*%
X105600000Y-64250000D02*
X105600000Y-65800000D01*
%TD*%
%TA.AperFunction,Conductor*%
%TO.N,GND*%
G36*
X118926169Y-53000501D02*
G01*
X118926179Y-53000500D01*
X118934854Y-53000502D01*
X118935560Y-53000689D01*
X118994855Y-53000517D01*
X119008394Y-53001262D01*
X119098459Y-53011183D01*
X119125634Y-53017326D01*
X119204563Y-53044798D01*
X119229685Y-53056858D01*
X119300485Y-53101263D01*
X119322281Y-53118630D01*
X119381369Y-53177718D01*
X119398736Y-53199514D01*
X119443141Y-53270314D01*
X119455202Y-53295438D01*
X119482671Y-53374359D01*
X119488816Y-53401543D01*
X119498736Y-53491599D01*
X119499482Y-53505144D01*
X119499482Y-53505421D01*
X119499311Y-53564440D01*
X119499497Y-53565144D01*
X119499500Y-53573829D01*
X119499498Y-53573834D01*
X119499500Y-53573861D01*
X119499500Y-98993040D01*
X119498720Y-99006923D01*
X119488541Y-99097265D01*
X119482362Y-99124337D01*
X119454649Y-99203535D01*
X119442602Y-99228552D01*
X119397957Y-99299604D01*
X119380644Y-99321313D01*
X119321313Y-99380644D01*
X119299604Y-99397957D01*
X119228552Y-99442602D01*
X119203535Y-99454649D01*
X119124337Y-99482362D01*
X119097265Y-99488541D01*
X119006923Y-99498720D01*
X118993040Y-99499500D01*
X101006960Y-99499500D01*
X100993077Y-99498720D01*
X100902734Y-99488541D01*
X100875662Y-99482362D01*
X100796464Y-99454649D01*
X100771447Y-99442602D01*
X100700395Y-99397957D01*
X100678686Y-99380644D01*
X100619355Y-99321313D01*
X100602042Y-99299604D01*
X100557397Y-99228552D01*
X100545351Y-99203539D01*
X100517636Y-99124333D01*
X100511458Y-99097268D01*
X100501280Y-99006922D01*
X100500500Y-98993040D01*
X100500500Y-97290530D01*
X101315500Y-97290530D01*
X101315500Y-97497469D01*
X101355868Y-97700412D01*
X101355870Y-97700420D01*
X101435058Y-97891596D01*
X101550024Y-98063657D01*
X101696342Y-98209975D01*
X101696345Y-98209977D01*
X101868402Y-98324941D01*
X102059580Y-98404130D01*
X102262530Y-98444499D01*
X102262534Y-98444500D01*
X102262535Y-98444500D01*
X102469466Y-98444500D01*
X102469467Y-98444499D01*
X102672420Y-98404130D01*
X102863598Y-98324941D01*
X103035655Y-98209977D01*
X103181977Y-98063655D01*
X103296941Y-97891598D01*
X103376130Y-97700420D01*
X103416500Y-97497465D01*
X103416500Y-97290535D01*
X103376130Y-97087580D01*
X103296941Y-96896402D01*
X103181977Y-96724345D01*
X103181975Y-96724342D01*
X103035657Y-96578024D01*
X102913130Y-96496155D01*
X102863598Y-96463059D01*
X102672420Y-96383870D01*
X102672412Y-96383868D01*
X102469469Y-96343500D01*
X102469465Y-96343500D01*
X102262535Y-96343500D01*
X102262530Y-96343500D01*
X102059587Y-96383868D01*
X102059579Y-96383870D01*
X101868403Y-96463058D01*
X101696342Y-96578024D01*
X101550024Y-96724342D01*
X101435058Y-96896403D01*
X101355870Y-97087579D01*
X101355868Y-97087587D01*
X101315500Y-97290530D01*
X100500500Y-97290530D01*
X100500500Y-94750530D01*
X101315500Y-94750530D01*
X101315500Y-94957469D01*
X101355868Y-95160412D01*
X101355870Y-95160420D01*
X101435058Y-95351596D01*
X101550024Y-95523657D01*
X101696342Y-95669975D01*
X101696345Y-95669977D01*
X101868402Y-95784941D01*
X102059580Y-95864130D01*
X102251741Y-95902353D01*
X102262530Y-95904499D01*
X102262534Y-95904500D01*
X102262535Y-95904500D01*
X102469466Y-95904500D01*
X102469467Y-95904499D01*
X102672420Y-95864130D01*
X102863598Y-95784941D01*
X103035655Y-95669977D01*
X103181977Y-95523655D01*
X103296941Y-95351598D01*
X103376130Y-95160420D01*
X103416500Y-94957465D01*
X103416500Y-94750535D01*
X103376130Y-94547580D01*
X103296941Y-94356402D01*
X103181977Y-94184345D01*
X103181975Y-94184342D01*
X103035657Y-94038024D01*
X102949626Y-93980541D01*
X102863598Y-93923059D01*
X102672420Y-93843870D01*
X102672412Y-93843868D01*
X102469469Y-93803500D01*
X102469465Y-93803500D01*
X102262535Y-93803500D01*
X102262530Y-93803500D01*
X102059587Y-93843868D01*
X102059579Y-93843870D01*
X101868403Y-93923058D01*
X101696342Y-94038024D01*
X101550024Y-94184342D01*
X101435058Y-94356403D01*
X101355870Y-94547579D01*
X101355868Y-94547587D01*
X101315500Y-94750530D01*
X100500500Y-94750530D01*
X100500500Y-92210530D01*
X101315500Y-92210530D01*
X101315500Y-92417469D01*
X101355868Y-92620412D01*
X101355870Y-92620420D01*
X101435058Y-92811596D01*
X101550024Y-92983657D01*
X101696342Y-93129975D01*
X101696345Y-93129977D01*
X101868402Y-93244941D01*
X102059580Y-93324130D01*
X102262530Y-93364499D01*
X102262534Y-93364500D01*
X102262535Y-93364500D01*
X102469466Y-93364500D01*
X102469467Y-93364499D01*
X102672420Y-93324130D01*
X102863598Y-93244941D01*
X103035655Y-93129977D01*
X103181977Y-92983655D01*
X103296941Y-92811598D01*
X103376130Y-92620420D01*
X103416500Y-92417465D01*
X103416500Y-92210535D01*
X103376130Y-92007580D01*
X103296941Y-91816402D01*
X103181977Y-91644345D01*
X103181975Y-91644342D01*
X103035657Y-91498024D01*
X102949626Y-91440541D01*
X102863598Y-91383059D01*
X102672420Y-91303870D01*
X102672412Y-91303868D01*
X102469469Y-91263500D01*
X102469465Y-91263500D01*
X102262535Y-91263500D01*
X102262530Y-91263500D01*
X102059587Y-91303868D01*
X102059579Y-91303870D01*
X101868403Y-91383058D01*
X101696342Y-91498024D01*
X101550024Y-91644342D01*
X101435058Y-91816403D01*
X101355870Y-92007579D01*
X101355868Y-92007587D01*
X101315500Y-92210530D01*
X100500500Y-92210530D01*
X100500500Y-89670530D01*
X101315500Y-89670530D01*
X101315500Y-89877469D01*
X101355868Y-90080412D01*
X101355870Y-90080420D01*
X101435058Y-90271596D01*
X101550024Y-90443657D01*
X101696342Y-90589975D01*
X101696345Y-90589977D01*
X101868402Y-90704941D01*
X102059580Y-90784130D01*
X102262530Y-90824499D01*
X102262534Y-90824500D01*
X102262535Y-90824500D01*
X102469466Y-90824500D01*
X102469467Y-90824499D01*
X102672420Y-90784130D01*
X102863598Y-90704941D01*
X103035655Y-90589977D01*
X103181977Y-90443655D01*
X103296941Y-90271598D01*
X103376130Y-90080420D01*
X103416500Y-89877465D01*
X103416500Y-89670535D01*
X103376130Y-89467580D01*
X103296941Y-89276402D01*
X103181977Y-89104345D01*
X103181975Y-89104342D01*
X103035657Y-88958024D01*
X102949626Y-88900541D01*
X102863598Y-88843059D01*
X102672420Y-88763870D01*
X102672412Y-88763868D01*
X102469469Y-88723500D01*
X102469465Y-88723500D01*
X102262535Y-88723500D01*
X102262530Y-88723500D01*
X102059587Y-88763868D01*
X102059579Y-88763870D01*
X101868403Y-88843058D01*
X101696342Y-88958024D01*
X101550024Y-89104342D01*
X101435058Y-89276403D01*
X101355870Y-89467579D01*
X101355868Y-89467587D01*
X101315500Y-89670530D01*
X100500500Y-89670530D01*
X100500500Y-87130530D01*
X101315500Y-87130530D01*
X101315500Y-87337469D01*
X101355868Y-87540412D01*
X101355870Y-87540420D01*
X101435058Y-87731596D01*
X101550024Y-87903657D01*
X101696342Y-88049975D01*
X101696345Y-88049977D01*
X101868402Y-88164941D01*
X102059580Y-88244130D01*
X102262530Y-88284499D01*
X102262534Y-88284500D01*
X102262535Y-88284500D01*
X102469466Y-88284500D01*
X102469467Y-88284499D01*
X102672420Y-88244130D01*
X102863598Y-88164941D01*
X103035655Y-88049977D01*
X103181977Y-87903655D01*
X103296941Y-87731598D01*
X103376130Y-87540420D01*
X103416500Y-87337465D01*
X103416500Y-87130535D01*
X103376130Y-86927580D01*
X103296941Y-86736402D01*
X103181977Y-86564345D01*
X103181975Y-86564342D01*
X103035657Y-86418024D01*
X102949626Y-86360541D01*
X102863598Y-86303059D01*
X102672420Y-86223870D01*
X102672412Y-86223868D01*
X102469469Y-86183500D01*
X102469465Y-86183500D01*
X102262535Y-86183500D01*
X102262530Y-86183500D01*
X102059587Y-86223868D01*
X102059579Y-86223870D01*
X101868403Y-86303058D01*
X101696342Y-86418024D01*
X101550024Y-86564342D01*
X101435058Y-86736403D01*
X101355870Y-86927579D01*
X101355868Y-86927587D01*
X101315500Y-87130530D01*
X100500500Y-87130530D01*
X100500500Y-84590530D01*
X101315500Y-84590530D01*
X101315500Y-84797469D01*
X101355868Y-85000412D01*
X101355870Y-85000420D01*
X101435058Y-85191596D01*
X101550024Y-85363657D01*
X101696342Y-85509975D01*
X101696345Y-85509977D01*
X101868402Y-85624941D01*
X102059580Y-85704130D01*
X102262530Y-85744499D01*
X102262534Y-85744500D01*
X102262535Y-85744500D01*
X102469466Y-85744500D01*
X102469467Y-85744499D01*
X102672420Y-85704130D01*
X102863598Y-85624941D01*
X103035655Y-85509977D01*
X103181977Y-85363655D01*
X103296941Y-85191598D01*
X103376130Y-85000420D01*
X103416500Y-84797465D01*
X103416500Y-84590535D01*
X103376130Y-84387580D01*
X103296941Y-84196402D01*
X103181977Y-84024345D01*
X103181975Y-84024342D01*
X103035657Y-83878024D01*
X102949626Y-83820541D01*
X102863598Y-83763059D01*
X102672420Y-83683870D01*
X102672412Y-83683868D01*
X102469469Y-83643500D01*
X102469465Y-83643500D01*
X102262535Y-83643500D01*
X102262530Y-83643500D01*
X102059587Y-83683868D01*
X102059579Y-83683870D01*
X101868403Y-83763058D01*
X101696342Y-83878024D01*
X101550024Y-84024342D01*
X101435058Y-84196403D01*
X101355870Y-84387579D01*
X101355868Y-84387587D01*
X101315500Y-84590530D01*
X100500500Y-84590530D01*
X100500500Y-82050530D01*
X101315500Y-82050530D01*
X101315500Y-82257469D01*
X101355868Y-82460412D01*
X101355870Y-82460420D01*
X101435058Y-82651596D01*
X101550024Y-82823657D01*
X101696342Y-82969975D01*
X101696345Y-82969977D01*
X101868402Y-83084941D01*
X102059580Y-83164130D01*
X102262530Y-83204499D01*
X102262534Y-83204500D01*
X102262535Y-83204500D01*
X102469466Y-83204500D01*
X102469467Y-83204499D01*
X102672420Y-83164130D01*
X102863598Y-83084941D01*
X103035655Y-82969977D01*
X103181977Y-82823655D01*
X103296941Y-82651598D01*
X103376130Y-82460420D01*
X103416500Y-82257465D01*
X103416500Y-82050535D01*
X103376130Y-81847580D01*
X103296941Y-81656402D01*
X103181977Y-81484345D01*
X103181975Y-81484342D01*
X103035657Y-81338024D01*
X102949626Y-81280541D01*
X102863598Y-81223059D01*
X102672420Y-81143870D01*
X102672412Y-81143868D01*
X102469469Y-81103500D01*
X102469465Y-81103500D01*
X102262535Y-81103500D01*
X102262530Y-81103500D01*
X102059587Y-81143868D01*
X102059579Y-81143870D01*
X101868403Y-81223058D01*
X101696342Y-81338024D01*
X101550024Y-81484342D01*
X101435058Y-81656403D01*
X101355870Y-81847579D01*
X101355868Y-81847587D01*
X101315500Y-82050530D01*
X100500500Y-82050530D01*
X100500500Y-76176155D01*
X101016000Y-76176155D01*
X101016000Y-76824000D01*
X101932988Y-76824000D01*
X101900075Y-76881007D01*
X101866000Y-77008174D01*
X101866000Y-77139826D01*
X101900075Y-77266993D01*
X101932988Y-77324000D01*
X101016000Y-77324000D01*
X101016000Y-77971844D01*
X101022401Y-78031372D01*
X101022403Y-78031379D01*
X101072645Y-78166086D01*
X101072649Y-78166093D01*
X101158809Y-78281187D01*
X101158812Y-78281190D01*
X101273906Y-78367350D01*
X101273913Y-78367354D01*
X101408620Y-78417596D01*
X101408627Y-78417598D01*
X101468155Y-78423999D01*
X101468172Y-78424000D01*
X101870435Y-78424000D01*
X101937474Y-78443685D01*
X101983229Y-78496489D01*
X101993173Y-78565647D01*
X101964148Y-78629203D01*
X101917888Y-78662561D01*
X101868403Y-78683058D01*
X101696342Y-78798024D01*
X101550024Y-78944342D01*
X101435058Y-79116403D01*
X101355870Y-79307579D01*
X101355868Y-79307587D01*
X101315500Y-79510530D01*
X101315500Y-79717469D01*
X101355868Y-79920412D01*
X101355870Y-79920420D01*
X101435058Y-80111596D01*
X101550024Y-80283657D01*
X101696342Y-80429975D01*
X101696345Y-80429977D01*
X101868402Y-80544941D01*
X102059580Y-80624130D01*
X102262530Y-80664499D01*
X102262534Y-80664500D01*
X102262535Y-80664500D01*
X102469466Y-80664500D01*
X102469467Y-80664499D01*
X102672420Y-80624130D01*
X102863598Y-80544941D01*
X103035655Y-80429977D01*
X103181977Y-80283655D01*
X103296941Y-80111598D01*
X103376130Y-79920420D01*
X103416500Y-79717465D01*
X103416500Y-79510535D01*
X103376130Y-79307580D01*
X103296941Y-79116402D01*
X103181977Y-78944345D01*
X103181975Y-78944342D01*
X103035657Y-78798024D01*
X102949626Y-78740541D01*
X102863598Y-78683059D01*
X102814112Y-78662561D01*
X102759709Y-78618720D01*
X102737644Y-78552426D01*
X102754923Y-78484726D01*
X102806061Y-78437116D01*
X102861565Y-78424000D01*
X103263828Y-78424000D01*
X103263844Y-78423999D01*
X103323372Y-78417598D01*
X103323379Y-78417596D01*
X103458086Y-78367354D01*
X103458093Y-78367350D01*
X103573187Y-78281190D01*
X103573190Y-78281187D01*
X103659350Y-78166093D01*
X103659354Y-78166086D01*
X103709596Y-78031379D01*
X103709598Y-78031372D01*
X103715999Y-77971844D01*
X103716000Y-77971827D01*
X103716000Y-77324000D01*
X102799012Y-77324000D01*
X102831925Y-77266993D01*
X102866000Y-77139826D01*
X102866000Y-77008174D01*
X102831925Y-76881007D01*
X102799012Y-76824000D01*
X103716000Y-76824000D01*
X103716000Y-76176172D01*
X103715999Y-76176155D01*
X103709598Y-76116627D01*
X103709596Y-76116620D01*
X103659354Y-75981913D01*
X103659350Y-75981906D01*
X103573190Y-75866812D01*
X103573187Y-75866809D01*
X103458093Y-75780649D01*
X103458086Y-75780645D01*
X103323379Y-75730403D01*
X103323372Y-75730401D01*
X103263844Y-75724000D01*
X102616000Y-75724000D01*
X102616000Y-76640988D01*
X102558993Y-76608075D01*
X102431826Y-76574000D01*
X102300174Y-76574000D01*
X102173007Y-76608075D01*
X102116000Y-76640988D01*
X102116000Y-75724000D01*
X101468155Y-75724000D01*
X101408627Y-75730401D01*
X101408620Y-75730403D01*
X101273913Y-75780645D01*
X101273906Y-75780649D01*
X101158812Y-75866809D01*
X101158809Y-75866812D01*
X101072649Y-75981906D01*
X101072645Y-75981913D01*
X101022403Y-76116620D01*
X101022401Y-76116627D01*
X101016000Y-76176155D01*
X100500500Y-76176155D01*
X100500500Y-74529566D01*
X104750001Y-74529566D01*
X104756178Y-74597561D01*
X104756181Y-74597572D01*
X104804944Y-74754060D01*
X104804946Y-74754064D01*
X104889743Y-74894337D01*
X104889747Y-74894342D01*
X105005657Y-75010252D01*
X105005662Y-75010256D01*
X105145934Y-75095052D01*
X105302442Y-75143821D01*
X105302440Y-75143821D01*
X105349999Y-75148142D01*
X105350000Y-75148142D01*
X105350000Y-75148141D01*
X105850000Y-75148141D01*
X105897561Y-75143821D01*
X105897570Y-75143819D01*
X106054060Y-75095055D01*
X106054064Y-75095053D01*
X106194331Y-75010260D01*
X106199016Y-75006589D01*
X106263926Y-74980733D01*
X106332510Y-74994075D01*
X106382994Y-75042377D01*
X106399500Y-75104192D01*
X106399500Y-93589562D01*
X106413152Y-93640513D01*
X106419979Y-93665990D01*
X106419982Y-93665995D01*
X106459535Y-93734504D01*
X106459539Y-93734509D01*
X106459540Y-93734511D01*
X107763540Y-95038511D01*
X107819489Y-95094460D01*
X107819491Y-95094461D01*
X107819495Y-95094464D01*
X107888004Y-95134017D01*
X107888011Y-95134021D01*
X107964438Y-95154500D01*
X116510564Y-95154500D01*
X116577603Y-95174185D01*
X116623358Y-95226989D01*
X116625125Y-95231047D01*
X116675058Y-95351596D01*
X116790024Y-95523657D01*
X116936342Y-95669975D01*
X116936345Y-95669977D01*
X117108402Y-95784941D01*
X117147993Y-95801340D01*
X117157888Y-95805439D01*
X117212291Y-95849280D01*
X117234356Y-95915574D01*
X117217077Y-95983274D01*
X117165939Y-96030884D01*
X117110435Y-96044000D01*
X116708155Y-96044000D01*
X116648627Y-96050401D01*
X116648620Y-96050403D01*
X116513913Y-96100645D01*
X116513906Y-96100649D01*
X116398812Y-96186809D01*
X116398809Y-96186812D01*
X116312649Y-96301906D01*
X116312645Y-96301913D01*
X116262403Y-96436620D01*
X116262401Y-96436627D01*
X116256000Y-96496155D01*
X116256000Y-97144000D01*
X117172988Y-97144000D01*
X117140075Y-97201007D01*
X117106000Y-97328174D01*
X117106000Y-97459826D01*
X117140075Y-97586993D01*
X117172988Y-97644000D01*
X116256000Y-97644000D01*
X116256000Y-98291844D01*
X116262401Y-98351372D01*
X116262403Y-98351379D01*
X116312645Y-98486086D01*
X116312649Y-98486093D01*
X116398809Y-98601187D01*
X116398812Y-98601190D01*
X116513906Y-98687350D01*
X116513913Y-98687354D01*
X116648620Y-98737596D01*
X116648627Y-98737598D01*
X116708155Y-98743999D01*
X116708172Y-98744000D01*
X117356000Y-98744000D01*
X117356000Y-97827012D01*
X117413007Y-97859925D01*
X117540174Y-97894000D01*
X117671826Y-97894000D01*
X117798993Y-97859925D01*
X117856000Y-97827012D01*
X117856000Y-98744000D01*
X118503828Y-98744000D01*
X118503844Y-98743999D01*
X118563372Y-98737598D01*
X118563379Y-98737596D01*
X118698086Y-98687354D01*
X118698093Y-98687350D01*
X118813187Y-98601190D01*
X118813190Y-98601187D01*
X118899350Y-98486093D01*
X118899354Y-98486086D01*
X118949596Y-98351379D01*
X118949598Y-98351372D01*
X118955999Y-98291844D01*
X118956000Y-98291827D01*
X118956000Y-97644000D01*
X118039012Y-97644000D01*
X118071925Y-97586993D01*
X118106000Y-97459826D01*
X118106000Y-97328174D01*
X118071925Y-97201007D01*
X118039012Y-97144000D01*
X118956000Y-97144000D01*
X118956000Y-96496172D01*
X118955999Y-96496155D01*
X118949598Y-96436627D01*
X118949596Y-96436620D01*
X118899354Y-96301913D01*
X118899350Y-96301906D01*
X118813190Y-96186812D01*
X118813187Y-96186809D01*
X118698093Y-96100649D01*
X118698086Y-96100645D01*
X118563379Y-96050403D01*
X118563372Y-96050401D01*
X118503844Y-96044000D01*
X118101565Y-96044000D01*
X118034526Y-96024315D01*
X117988771Y-95971511D01*
X117978827Y-95902353D01*
X118007852Y-95838797D01*
X118054112Y-95805439D01*
X118059608Y-95803162D01*
X118103598Y-95784941D01*
X118275655Y-95669977D01*
X118421977Y-95523655D01*
X118536941Y-95351598D01*
X118616130Y-95160420D01*
X118656500Y-94957465D01*
X118656500Y-94750535D01*
X118616130Y-94547580D01*
X118536941Y-94356402D01*
X118421977Y-94184345D01*
X118421975Y-94184342D01*
X118275657Y-94038024D01*
X118189626Y-93980541D01*
X118103598Y-93923059D01*
X117912420Y-93843870D01*
X117912412Y-93843868D01*
X117709469Y-93803500D01*
X117709465Y-93803500D01*
X117502535Y-93803500D01*
X117502530Y-93803500D01*
X117299587Y-93843868D01*
X117299579Y-93843870D01*
X117108403Y-93923058D01*
X116936342Y-94038024D01*
X116790024Y-94184342D01*
X116675058Y-94356403D01*
X116625125Y-94476953D01*
X116581284Y-94531356D01*
X116514990Y-94553421D01*
X116510564Y-94553500D01*
X108179833Y-94553500D01*
X108112794Y-94533815D01*
X108092152Y-94517181D01*
X107036819Y-93461848D01*
X107003334Y-93400525D01*
X107000500Y-93374167D01*
X107000500Y-74924271D01*
X107002867Y-74916208D01*
X107001585Y-74907906D01*
X107012564Y-74883185D01*
X107020185Y-74857232D01*
X107027271Y-74850071D01*
X107029945Y-74844051D01*
X107045065Y-74832089D01*
X107056376Y-74820661D01*
X107062100Y-74816897D01*
X107138342Y-74778050D01*
X107171283Y-74745108D01*
X107181876Y-74738144D01*
X107203653Y-74731502D01*
X107223640Y-74720588D01*
X107236436Y-74721503D01*
X107248706Y-74717761D01*
X107270619Y-74723947D01*
X107293332Y-74725572D01*
X107306620Y-74734111D01*
X107315947Y-74736745D01*
X107322842Y-74744536D01*
X107337680Y-74754072D01*
X107361658Y-74778050D01*
X107431796Y-74813787D01*
X107482591Y-74861761D01*
X107499500Y-74924271D01*
X107499500Y-90989562D01*
X107513152Y-91040513D01*
X107519979Y-91065990D01*
X107519982Y-91065995D01*
X107559535Y-91134504D01*
X107559539Y-91134509D01*
X107559540Y-91134511D01*
X108923540Y-92498511D01*
X108979489Y-92554460D01*
X108979491Y-92554461D01*
X108979495Y-92554464D01*
X109048004Y-92594017D01*
X109048011Y-92594021D01*
X109124438Y-92614500D01*
X109203562Y-92614500D01*
X116510564Y-92614500D01*
X116577603Y-92634185D01*
X116623358Y-92686989D01*
X116625125Y-92691047D01*
X116675058Y-92811596D01*
X116790024Y-92983657D01*
X116936342Y-93129975D01*
X116936345Y-93129977D01*
X117108402Y-93244941D01*
X117299580Y-93324130D01*
X117502530Y-93364499D01*
X117502534Y-93364500D01*
X117502535Y-93364500D01*
X117709466Y-93364500D01*
X117709467Y-93364499D01*
X117912420Y-93324130D01*
X118103598Y-93244941D01*
X118275655Y-93129977D01*
X118421977Y-92983655D01*
X118536941Y-92811598D01*
X118616130Y-92620420D01*
X118656500Y-92417465D01*
X118656500Y-92210535D01*
X118616130Y-92007580D01*
X118536941Y-91816402D01*
X118421977Y-91644345D01*
X118421975Y-91644342D01*
X118275657Y-91498024D01*
X118189626Y-91440541D01*
X118103598Y-91383059D01*
X117912420Y-91303870D01*
X117912412Y-91303868D01*
X117709469Y-91263500D01*
X117709465Y-91263500D01*
X117502535Y-91263500D01*
X117502530Y-91263500D01*
X117299587Y-91303868D01*
X117299579Y-91303870D01*
X117108403Y-91383058D01*
X116936342Y-91498024D01*
X116790024Y-91644342D01*
X116675058Y-91816403D01*
X116625125Y-91936953D01*
X116581284Y-91991356D01*
X116514990Y-92013421D01*
X116510564Y-92013500D01*
X109339833Y-92013500D01*
X109272794Y-91993815D01*
X109252152Y-91977181D01*
X108136819Y-90861848D01*
X108103334Y-90800525D01*
X108100500Y-90774167D01*
X108100500Y-74924271D01*
X108102867Y-74916208D01*
X108101585Y-74907906D01*
X108112564Y-74883185D01*
X108120185Y-74857232D01*
X108127271Y-74850071D01*
X108129945Y-74844051D01*
X108145065Y-74832089D01*
X108156376Y-74820661D01*
X108162100Y-74816897D01*
X108238342Y-74778050D01*
X108271283Y-74745108D01*
X108281876Y-74738144D01*
X108303653Y-74731502D01*
X108323640Y-74720588D01*
X108336436Y-74721503D01*
X108348706Y-74717761D01*
X108370619Y-74723947D01*
X108393332Y-74725572D01*
X108406620Y-74734111D01*
X108415947Y-74736745D01*
X108422842Y-74744536D01*
X108437680Y-74754072D01*
X108461658Y-74778050D01*
X108531796Y-74813787D01*
X108582591Y-74861761D01*
X108599500Y-74924271D01*
X108599500Y-88489562D01*
X108613152Y-88540513D01*
X108619979Y-88565990D01*
X108619982Y-88565995D01*
X108659535Y-88634504D01*
X108659539Y-88634509D01*
X108659540Y-88634511D01*
X110039489Y-90014460D01*
X110108012Y-90054022D01*
X110184438Y-90074500D01*
X116510564Y-90074500D01*
X116577603Y-90094185D01*
X116623358Y-90146989D01*
X116625125Y-90151047D01*
X116675058Y-90271596D01*
X116790024Y-90443657D01*
X116936342Y-90589975D01*
X116936345Y-90589977D01*
X117108402Y-90704941D01*
X117299580Y-90784130D01*
X117502530Y-90824499D01*
X117502534Y-90824500D01*
X117502535Y-90824500D01*
X117709466Y-90824500D01*
X117709467Y-90824499D01*
X117912420Y-90784130D01*
X118103598Y-90704941D01*
X118275655Y-90589977D01*
X118421977Y-90443655D01*
X118536941Y-90271598D01*
X118616130Y-90080420D01*
X118656500Y-89877465D01*
X118656500Y-89670535D01*
X118616130Y-89467580D01*
X118536941Y-89276402D01*
X118421977Y-89104345D01*
X118421975Y-89104342D01*
X118275657Y-88958024D01*
X118189626Y-88900541D01*
X118103598Y-88843059D01*
X117912420Y-88763870D01*
X117912412Y-88763868D01*
X117709469Y-88723500D01*
X117709465Y-88723500D01*
X117502535Y-88723500D01*
X117502530Y-88723500D01*
X117299587Y-88763868D01*
X117299579Y-88763870D01*
X117108403Y-88843058D01*
X116936342Y-88958024D01*
X116790024Y-89104342D01*
X116675058Y-89276403D01*
X116625125Y-89396953D01*
X116581284Y-89451356D01*
X116514990Y-89473421D01*
X116510564Y-89473500D01*
X110399833Y-89473500D01*
X110332794Y-89453815D01*
X110312152Y-89437181D01*
X109236819Y-88361848D01*
X109203334Y-88300525D01*
X109200500Y-88274167D01*
X109200500Y-74924271D01*
X109202867Y-74916208D01*
X109201585Y-74907906D01*
X109212564Y-74883185D01*
X109220185Y-74857232D01*
X109227271Y-74850071D01*
X109229945Y-74844051D01*
X109245065Y-74832089D01*
X109256376Y-74820661D01*
X109262100Y-74816897D01*
X109338342Y-74778050D01*
X109371283Y-74745108D01*
X109381876Y-74738144D01*
X109403653Y-74731502D01*
X109423640Y-74720588D01*
X109436436Y-74721503D01*
X109448706Y-74717761D01*
X109470619Y-74723947D01*
X109493332Y-74725572D01*
X109506620Y-74734111D01*
X109515947Y-74736745D01*
X109522842Y-74744536D01*
X109537680Y-74754072D01*
X109561658Y-74778050D01*
X109631796Y-74813787D01*
X109682591Y-74861761D01*
X109699500Y-74924271D01*
X109699500Y-85989562D01*
X109713152Y-86040513D01*
X109719979Y-86065990D01*
X109719982Y-86065995D01*
X109759535Y-86134504D01*
X109759539Y-86134509D01*
X109759540Y-86134511D01*
X111043540Y-87418511D01*
X111099489Y-87474460D01*
X111099491Y-87474461D01*
X111099495Y-87474464D01*
X111168004Y-87514017D01*
X111168011Y-87514021D01*
X111244438Y-87534500D01*
X111323562Y-87534500D01*
X116510564Y-87534500D01*
X116577603Y-87554185D01*
X116623358Y-87606989D01*
X116625125Y-87611047D01*
X116675058Y-87731596D01*
X116790024Y-87903657D01*
X116936342Y-88049975D01*
X116936345Y-88049977D01*
X117108402Y-88164941D01*
X117299580Y-88244130D01*
X117502530Y-88284499D01*
X117502534Y-88284500D01*
X117502535Y-88284500D01*
X117709466Y-88284500D01*
X117709467Y-88284499D01*
X117912420Y-88244130D01*
X118103598Y-88164941D01*
X118275655Y-88049977D01*
X118421977Y-87903655D01*
X118536941Y-87731598D01*
X118616130Y-87540420D01*
X118656500Y-87337465D01*
X118656500Y-87130535D01*
X118616130Y-86927580D01*
X118536941Y-86736402D01*
X118421977Y-86564345D01*
X118421975Y-86564342D01*
X118275657Y-86418024D01*
X118189626Y-86360541D01*
X118103598Y-86303059D01*
X117912420Y-86223870D01*
X117912412Y-86223868D01*
X117709469Y-86183500D01*
X117709465Y-86183500D01*
X117502535Y-86183500D01*
X117502530Y-86183500D01*
X117299587Y-86223868D01*
X117299579Y-86223870D01*
X117108403Y-86303058D01*
X116936342Y-86418024D01*
X116790024Y-86564342D01*
X116675058Y-86736403D01*
X116625125Y-86856953D01*
X116581284Y-86911356D01*
X116514990Y-86933421D01*
X116510564Y-86933500D01*
X111459833Y-86933500D01*
X111392794Y-86913815D01*
X111372152Y-86897181D01*
X110336819Y-85861848D01*
X110303334Y-85800525D01*
X110300500Y-85774167D01*
X110300500Y-74924271D01*
X110302867Y-74916208D01*
X110301585Y-74907906D01*
X110312564Y-74883185D01*
X110320185Y-74857232D01*
X110327271Y-74850071D01*
X110329945Y-74844051D01*
X110345065Y-74832089D01*
X110356376Y-74820661D01*
X110362100Y-74816897D01*
X110438342Y-74778050D01*
X110471283Y-74745108D01*
X110481876Y-74738144D01*
X110503653Y-74731502D01*
X110523640Y-74720588D01*
X110536436Y-74721503D01*
X110548706Y-74717761D01*
X110570619Y-74723947D01*
X110593332Y-74725572D01*
X110606620Y-74734111D01*
X110615947Y-74736745D01*
X110622842Y-74744536D01*
X110637680Y-74754072D01*
X110661658Y-74778050D01*
X110731796Y-74813787D01*
X110782591Y-74861761D01*
X110799500Y-74924271D01*
X110799500Y-83439562D01*
X110813152Y-83490513D01*
X110819979Y-83515990D01*
X110819982Y-83515995D01*
X110859535Y-83584504D01*
X110859539Y-83584509D01*
X110859540Y-83584511D01*
X112153540Y-84878511D01*
X112209489Y-84934460D01*
X112209491Y-84934461D01*
X112209495Y-84934464D01*
X112278004Y-84974017D01*
X112278011Y-84974021D01*
X112354438Y-84994500D01*
X112433562Y-84994500D01*
X116510564Y-84994500D01*
X116577603Y-85014185D01*
X116623358Y-85066989D01*
X116625125Y-85071047D01*
X116675058Y-85191596D01*
X116790024Y-85363657D01*
X116936342Y-85509975D01*
X116936345Y-85509977D01*
X117108402Y-85624941D01*
X117299580Y-85704130D01*
X117502530Y-85744499D01*
X117502534Y-85744500D01*
X117502535Y-85744500D01*
X117709466Y-85744500D01*
X117709467Y-85744499D01*
X117912420Y-85704130D01*
X118103598Y-85624941D01*
X118275655Y-85509977D01*
X118421977Y-85363655D01*
X118536941Y-85191598D01*
X118616130Y-85000420D01*
X118656500Y-84797465D01*
X118656500Y-84590535D01*
X118616130Y-84387580D01*
X118536941Y-84196402D01*
X118421977Y-84024345D01*
X118421975Y-84024342D01*
X118275657Y-83878024D01*
X118189626Y-83820541D01*
X118103598Y-83763059D01*
X117912420Y-83683870D01*
X117912412Y-83683868D01*
X117709469Y-83643500D01*
X117709465Y-83643500D01*
X117502535Y-83643500D01*
X117502530Y-83643500D01*
X117299587Y-83683868D01*
X117299579Y-83683870D01*
X117108403Y-83763058D01*
X116936342Y-83878024D01*
X116790024Y-84024342D01*
X116675058Y-84196403D01*
X116625125Y-84316953D01*
X116581284Y-84371356D01*
X116514990Y-84393421D01*
X116510564Y-84393500D01*
X112569833Y-84393500D01*
X112502794Y-84373815D01*
X112482152Y-84357181D01*
X111436819Y-83311848D01*
X111403334Y-83250525D01*
X111400500Y-83224167D01*
X111400500Y-74924271D01*
X111402867Y-74916208D01*
X111401585Y-74907906D01*
X111412564Y-74883185D01*
X111420185Y-74857232D01*
X111427271Y-74850071D01*
X111429945Y-74844051D01*
X111445065Y-74832089D01*
X111456376Y-74820661D01*
X111462100Y-74816897D01*
X111538342Y-74778050D01*
X111571283Y-74745108D01*
X111581876Y-74738144D01*
X111603653Y-74731502D01*
X111623640Y-74720588D01*
X111636436Y-74721503D01*
X111648706Y-74717761D01*
X111670619Y-74723947D01*
X111693332Y-74725572D01*
X111706620Y-74734111D01*
X111715947Y-74736745D01*
X111722842Y-74744536D01*
X111737680Y-74754072D01*
X111761658Y-74778050D01*
X111831796Y-74813787D01*
X111882591Y-74861761D01*
X111899500Y-74924271D01*
X111899500Y-80989562D01*
X111909739Y-81027775D01*
X111919979Y-81065991D01*
X111919981Y-81065994D01*
X111941631Y-81103493D01*
X111941633Y-81103496D01*
X111941636Y-81103500D01*
X111959540Y-81134511D01*
X113163540Y-82338511D01*
X113219489Y-82394460D01*
X113219491Y-82394461D01*
X113219495Y-82394464D01*
X113288004Y-82434017D01*
X113288011Y-82434021D01*
X113364438Y-82454500D01*
X116510564Y-82454500D01*
X116577603Y-82474185D01*
X116623358Y-82526989D01*
X116625125Y-82531047D01*
X116675058Y-82651596D01*
X116790024Y-82823657D01*
X116936342Y-82969975D01*
X116936345Y-82969977D01*
X117108402Y-83084941D01*
X117299580Y-83164130D01*
X117502530Y-83204499D01*
X117502534Y-83204500D01*
X117502535Y-83204500D01*
X117709466Y-83204500D01*
X117709467Y-83204499D01*
X117912420Y-83164130D01*
X118103598Y-83084941D01*
X118275655Y-82969977D01*
X118421977Y-82823655D01*
X118536941Y-82651598D01*
X118616130Y-82460420D01*
X118656500Y-82257465D01*
X118656500Y-82050535D01*
X118616130Y-81847580D01*
X118536941Y-81656402D01*
X118421977Y-81484345D01*
X118421975Y-81484342D01*
X118275657Y-81338024D01*
X118189626Y-81280541D01*
X118103598Y-81223059D01*
X117912420Y-81143870D01*
X117912412Y-81143868D01*
X117709469Y-81103500D01*
X117709465Y-81103500D01*
X117502535Y-81103500D01*
X117502530Y-81103500D01*
X117299587Y-81143868D01*
X117299579Y-81143870D01*
X117108403Y-81223058D01*
X116936342Y-81338024D01*
X116790024Y-81484342D01*
X116675058Y-81656403D01*
X116625125Y-81776953D01*
X116581284Y-81831356D01*
X116514990Y-81853421D01*
X116510564Y-81853500D01*
X113579833Y-81853500D01*
X113512794Y-81833815D01*
X113492152Y-81817181D01*
X112536819Y-80861848D01*
X112503334Y-80800525D01*
X112500500Y-80774167D01*
X112500500Y-74924271D01*
X112502867Y-74916208D01*
X112501585Y-74907906D01*
X112512564Y-74883185D01*
X112520185Y-74857232D01*
X112527271Y-74850071D01*
X112529945Y-74844051D01*
X112545065Y-74832089D01*
X112556376Y-74820661D01*
X112562100Y-74816897D01*
X112638342Y-74778050D01*
X112671283Y-74745108D01*
X112681876Y-74738144D01*
X112703653Y-74731502D01*
X112723640Y-74720588D01*
X112736436Y-74721503D01*
X112748706Y-74717761D01*
X112770619Y-74723947D01*
X112793332Y-74725572D01*
X112806620Y-74734111D01*
X112815947Y-74736745D01*
X112822842Y-74744536D01*
X112837680Y-74754072D01*
X112861658Y-74778050D01*
X112931796Y-74813787D01*
X112982591Y-74861761D01*
X112999500Y-74924271D01*
X112999500Y-78389562D01*
X113008728Y-78423999D01*
X113019979Y-78465990D01*
X113019982Y-78465995D01*
X113059535Y-78534504D01*
X113059539Y-78534509D01*
X113059540Y-78534511D01*
X114323540Y-79798511D01*
X114379489Y-79854460D01*
X114379491Y-79854461D01*
X114379495Y-79854464D01*
X114448004Y-79894017D01*
X114448011Y-79894021D01*
X114524438Y-79914500D01*
X116510564Y-79914500D01*
X116577603Y-79934185D01*
X116623358Y-79986989D01*
X116625125Y-79991047D01*
X116675058Y-80111596D01*
X116790024Y-80283657D01*
X116936342Y-80429975D01*
X116936345Y-80429977D01*
X117108402Y-80544941D01*
X117299580Y-80624130D01*
X117502530Y-80664499D01*
X117502534Y-80664500D01*
X117502535Y-80664500D01*
X117709466Y-80664500D01*
X117709467Y-80664499D01*
X117912420Y-80624130D01*
X118103598Y-80544941D01*
X118275655Y-80429977D01*
X118421977Y-80283655D01*
X118536941Y-80111598D01*
X118616130Y-79920420D01*
X118656500Y-79717465D01*
X118656500Y-79510535D01*
X118616130Y-79307580D01*
X118536941Y-79116402D01*
X118421977Y-78944345D01*
X118421975Y-78944342D01*
X118275657Y-78798024D01*
X118189626Y-78740541D01*
X118103598Y-78683059D01*
X117912420Y-78603870D01*
X117912412Y-78603868D01*
X117709469Y-78563500D01*
X117709465Y-78563500D01*
X117502535Y-78563500D01*
X117502530Y-78563500D01*
X117299587Y-78603868D01*
X117299579Y-78603870D01*
X117108403Y-78683058D01*
X116936342Y-78798024D01*
X116790024Y-78944342D01*
X116675058Y-79116403D01*
X116625125Y-79236953D01*
X116581284Y-79291356D01*
X116514990Y-79313421D01*
X116510564Y-79313500D01*
X114739833Y-79313500D01*
X114672794Y-79293815D01*
X114652152Y-79277181D01*
X113636819Y-78261848D01*
X113603334Y-78200525D01*
X113600500Y-78174167D01*
X113600500Y-74924271D01*
X113602355Y-74917950D01*
X113601162Y-74911471D01*
X113612079Y-74884837D01*
X113620185Y-74857232D01*
X113625780Y-74851411D01*
X113627662Y-74846821D01*
X113639344Y-74837301D01*
X113653405Y-74822676D01*
X113660491Y-74817717D01*
X113738342Y-74778050D01*
X113787681Y-74728710D01*
X113796582Y-74722482D01*
X113819809Y-74714655D01*
X113841318Y-74702911D01*
X113852330Y-74703698D01*
X113862794Y-74700173D01*
X113886563Y-74706146D01*
X113911009Y-74707895D01*
X113922240Y-74715112D01*
X113930557Y-74717203D01*
X113938241Y-74725396D01*
X113955358Y-74736396D01*
X114003786Y-74784824D01*
X114003787Y-74784824D01*
X114003789Y-74784826D01*
X114029960Y-74797620D01*
X114081541Y-74844745D01*
X114099500Y-74909020D01*
X114099500Y-75839562D01*
X114106801Y-75866809D01*
X114119979Y-75915990D01*
X114119982Y-75915995D01*
X114159535Y-75984504D01*
X114159539Y-75984509D01*
X114159540Y-75984511D01*
X115433540Y-77258511D01*
X115489489Y-77314460D01*
X115489491Y-77314461D01*
X115489495Y-77314464D01*
X115558004Y-77354017D01*
X115558011Y-77354021D01*
X115634438Y-77374500D01*
X116510564Y-77374500D01*
X116577603Y-77394185D01*
X116623358Y-77446989D01*
X116625125Y-77451047D01*
X116675058Y-77571596D01*
X116790024Y-77743657D01*
X116936342Y-77889975D01*
X116936345Y-77889977D01*
X117108402Y-78004941D01*
X117299580Y-78084130D01*
X117502530Y-78124499D01*
X117502534Y-78124500D01*
X117502535Y-78124500D01*
X117709466Y-78124500D01*
X117709467Y-78124499D01*
X117912420Y-78084130D01*
X118103598Y-78004941D01*
X118275655Y-77889977D01*
X118421977Y-77743655D01*
X118536941Y-77571598D01*
X118616130Y-77380420D01*
X118656500Y-77177465D01*
X118656500Y-76970535D01*
X118616130Y-76767580D01*
X118536941Y-76576402D01*
X118421977Y-76404345D01*
X118421975Y-76404342D01*
X118275657Y-76258024D01*
X118153130Y-76176155D01*
X118103598Y-76143059D01*
X117912420Y-76063870D01*
X117912412Y-76063868D01*
X117709469Y-76023500D01*
X117709465Y-76023500D01*
X117502535Y-76023500D01*
X117502530Y-76023500D01*
X117299587Y-76063868D01*
X117299579Y-76063870D01*
X117108403Y-76143058D01*
X116936342Y-76258024D01*
X116790024Y-76404342D01*
X116675058Y-76576403D01*
X116625125Y-76696953D01*
X116581284Y-76751356D01*
X116514990Y-76773421D01*
X116510564Y-76773500D01*
X115849833Y-76773500D01*
X115782794Y-76753815D01*
X115762152Y-76737181D01*
X114736819Y-75711848D01*
X114703334Y-75650525D01*
X114700500Y-75624167D01*
X114700500Y-74909020D01*
X114720185Y-74841981D01*
X114770039Y-74797620D01*
X114796211Y-74784826D01*
X114884826Y-74696211D01*
X114884827Y-74696210D01*
X114929450Y-74604931D01*
X114939866Y-74583625D01*
X114950500Y-74510636D01*
X114950500Y-72989364D01*
X114939866Y-72916375D01*
X114929450Y-72895068D01*
X114884827Y-72803789D01*
X114796210Y-72715172D01*
X114683628Y-72660135D01*
X114683626Y-72660134D01*
X114683625Y-72660134D01*
X114610636Y-72649500D01*
X114189364Y-72649500D01*
X114116375Y-72660134D01*
X114116373Y-72660134D01*
X114116371Y-72660135D01*
X114003789Y-72715172D01*
X113955357Y-72763604D01*
X113894034Y-72797088D01*
X113824342Y-72792103D01*
X113779996Y-72763603D01*
X113738347Y-72721954D01*
X113738344Y-72721952D01*
X113738342Y-72721950D01*
X113661517Y-72682805D01*
X113625301Y-72664352D01*
X113531524Y-72649500D01*
X113068482Y-72649500D01*
X112987519Y-72662323D01*
X112974696Y-72664354D01*
X112861658Y-72721950D01*
X112861657Y-72721951D01*
X112861652Y-72721954D01*
X112837681Y-72745926D01*
X112776358Y-72779411D01*
X112706666Y-72774427D01*
X112662319Y-72745926D01*
X112638347Y-72721954D01*
X112638344Y-72721952D01*
X112638342Y-72721950D01*
X112561517Y-72682805D01*
X112525301Y-72664352D01*
X112431524Y-72649500D01*
X111968482Y-72649500D01*
X111887519Y-72662323D01*
X111874696Y-72664354D01*
X111761658Y-72721950D01*
X111761657Y-72721951D01*
X111761652Y-72721954D01*
X111737681Y-72745926D01*
X111676358Y-72779411D01*
X111606666Y-72774427D01*
X111562319Y-72745926D01*
X111538347Y-72721954D01*
X111538344Y-72721952D01*
X111538342Y-72721950D01*
X111461517Y-72682805D01*
X111425301Y-72664352D01*
X111331524Y-72649500D01*
X110868482Y-72649500D01*
X110787519Y-72662323D01*
X110774696Y-72664354D01*
X110661658Y-72721950D01*
X110661657Y-72721951D01*
X110661652Y-72721954D01*
X110637681Y-72745926D01*
X110576358Y-72779411D01*
X110506666Y-72774427D01*
X110462319Y-72745926D01*
X110438347Y-72721954D01*
X110438344Y-72721952D01*
X110438342Y-72721950D01*
X110361517Y-72682805D01*
X110325301Y-72664352D01*
X110231524Y-72649500D01*
X109768482Y-72649500D01*
X109687519Y-72662323D01*
X109674696Y-72664354D01*
X109561658Y-72721950D01*
X109561657Y-72721951D01*
X109561652Y-72721954D01*
X109537681Y-72745926D01*
X109476358Y-72779411D01*
X109406666Y-72774427D01*
X109362319Y-72745926D01*
X109338347Y-72721954D01*
X109338344Y-72721952D01*
X109338342Y-72721950D01*
X109261517Y-72682805D01*
X109225301Y-72664352D01*
X109131524Y-72649500D01*
X108668482Y-72649500D01*
X108587519Y-72662323D01*
X108574696Y-72664354D01*
X108461658Y-72721950D01*
X108461657Y-72721951D01*
X108461652Y-72721954D01*
X108437681Y-72745926D01*
X108376358Y-72779411D01*
X108306666Y-72774427D01*
X108262319Y-72745926D01*
X108238347Y-72721954D01*
X108238344Y-72721952D01*
X108238342Y-72721950D01*
X108161517Y-72682805D01*
X108125301Y-72664352D01*
X108031524Y-72649500D01*
X107568482Y-72649500D01*
X107487519Y-72662323D01*
X107474696Y-72664354D01*
X107361658Y-72721950D01*
X107361657Y-72721951D01*
X107361652Y-72721954D01*
X107337681Y-72745926D01*
X107276358Y-72779411D01*
X107206666Y-72774427D01*
X107162319Y-72745926D01*
X107138347Y-72721954D01*
X107138344Y-72721952D01*
X107138342Y-72721950D01*
X107061517Y-72682805D01*
X107025301Y-72664352D01*
X106931524Y-72649500D01*
X106468482Y-72649500D01*
X106436130Y-72654624D01*
X106430306Y-72655546D01*
X106361013Y-72646591D01*
X106313303Y-72609550D01*
X106310255Y-72605660D01*
X106194342Y-72489747D01*
X106194337Y-72489743D01*
X106054065Y-72404947D01*
X105897562Y-72356179D01*
X105850000Y-72351856D01*
X105850000Y-75148141D01*
X105350000Y-75148141D01*
X105350000Y-74000000D01*
X104750001Y-74000000D01*
X104750001Y-74529566D01*
X100500500Y-74529566D01*
X100500500Y-72970443D01*
X104750000Y-72970443D01*
X104750000Y-73500000D01*
X105350000Y-73500000D01*
X105350000Y-72351857D01*
X105349999Y-72351857D01*
X105302441Y-72356178D01*
X105145934Y-72404947D01*
X105005662Y-72489743D01*
X105005657Y-72489747D01*
X104889747Y-72605657D01*
X104889743Y-72605662D01*
X104804947Y-72745934D01*
X104756179Y-72902437D01*
X104750000Y-72970443D01*
X100500500Y-72970443D01*
X100500500Y-63489364D01*
X105049500Y-63489364D01*
X105049500Y-65010636D01*
X105060134Y-65083625D01*
X105060134Y-65083626D01*
X105060135Y-65083628D01*
X105115172Y-65196210D01*
X105211054Y-65292092D01*
X105210081Y-65293064D01*
X105246526Y-65339522D01*
X105253084Y-65409083D01*
X105220993Y-65471148D01*
X105219036Y-65473150D01*
X105199500Y-65492686D01*
X105133608Y-65606812D01*
X105099500Y-65734108D01*
X105099500Y-65865891D01*
X105133608Y-65993187D01*
X105157387Y-66034372D01*
X105199500Y-66107314D01*
X105292686Y-66200500D01*
X105406814Y-66266392D01*
X105534108Y-66300500D01*
X105534110Y-66300500D01*
X105665890Y-66300500D01*
X105665892Y-66300500D01*
X105793186Y-66266392D01*
X105907314Y-66200500D01*
X106000500Y-66107314D01*
X106042613Y-66034371D01*
X106093180Y-65986156D01*
X106161787Y-65972933D01*
X106226652Y-65998901D01*
X106257386Y-66034371D01*
X106299500Y-66107314D01*
X106392686Y-66200500D01*
X106506814Y-66266392D01*
X106634108Y-66300500D01*
X106634110Y-66300500D01*
X106765890Y-66300500D01*
X106765892Y-66300500D01*
X106893186Y-66266392D01*
X107007314Y-66200500D01*
X107100500Y-66107314D01*
X107142613Y-66034371D01*
X107193180Y-65986156D01*
X107261787Y-65972933D01*
X107326652Y-65998901D01*
X107357386Y-66034371D01*
X107399500Y-66107314D01*
X107492686Y-66200500D01*
X107606814Y-66266392D01*
X107734108Y-66300500D01*
X107734110Y-66300500D01*
X107865890Y-66300500D01*
X107865892Y-66300500D01*
X107993186Y-66266392D01*
X108107314Y-66200500D01*
X108200500Y-66107314D01*
X108242613Y-66034371D01*
X108293180Y-65986156D01*
X108361787Y-65972933D01*
X108426652Y-65998901D01*
X108457386Y-66034371D01*
X108499500Y-66107314D01*
X108592686Y-66200500D01*
X108706814Y-66266392D01*
X108834108Y-66300500D01*
X108834110Y-66300500D01*
X108965890Y-66300500D01*
X108965892Y-66300500D01*
X109093186Y-66266392D01*
X109207314Y-66200500D01*
X109300500Y-66107314D01*
X109342613Y-66034371D01*
X109393180Y-65986156D01*
X109461787Y-65972933D01*
X109526652Y-65998901D01*
X109557386Y-66034371D01*
X109599500Y-66107314D01*
X109692686Y-66200500D01*
X109806814Y-66266392D01*
X109934108Y-66300500D01*
X109934110Y-66300500D01*
X110065890Y-66300500D01*
X110065892Y-66300500D01*
X110193186Y-66266392D01*
X110307314Y-66200500D01*
X110400500Y-66107314D01*
X110442613Y-66034371D01*
X110493180Y-65986156D01*
X110561787Y-65972933D01*
X110626652Y-65998901D01*
X110657386Y-66034371D01*
X110699500Y-66107314D01*
X110792686Y-66200500D01*
X110906814Y-66266392D01*
X111034108Y-66300500D01*
X111034110Y-66300500D01*
X111165890Y-66300500D01*
X111165892Y-66300500D01*
X111293186Y-66266392D01*
X111407314Y-66200500D01*
X111500500Y-66107314D01*
X111566392Y-65993186D01*
X111600500Y-65865892D01*
X111600500Y-65734108D01*
X111600500Y-65727229D01*
X111620185Y-65660190D01*
X111672989Y-65614435D01*
X111742147Y-65604491D01*
X111761391Y-65608844D01*
X111872895Y-65643590D01*
X111943408Y-65649998D01*
X111943426Y-65649999D01*
X111949999Y-65649998D01*
X111950000Y-65649998D01*
X111950000Y-62850000D01*
X111949999Y-62849999D01*
X111943436Y-62850000D01*
X111943417Y-62850001D01*
X111872897Y-62856408D01*
X111872892Y-62856409D01*
X111710603Y-62906981D01*
X111565124Y-62994926D01*
X111444420Y-63115630D01*
X111383097Y-63149114D01*
X111337346Y-63150422D01*
X111331523Y-63149500D01*
X110868482Y-63149500D01*
X110787519Y-63162323D01*
X110774696Y-63164354D01*
X110661658Y-63221950D01*
X110661657Y-63221951D01*
X110661652Y-63221954D01*
X110637681Y-63245926D01*
X110576358Y-63279411D01*
X110506666Y-63274427D01*
X110462319Y-63245926D01*
X110438347Y-63221954D01*
X110438344Y-63221952D01*
X110438342Y-63221950D01*
X110361517Y-63182805D01*
X110325301Y-63164352D01*
X110231524Y-63149500D01*
X109768482Y-63149500D01*
X109687519Y-63162323D01*
X109674696Y-63164354D01*
X109561658Y-63221950D01*
X109561657Y-63221951D01*
X109561652Y-63221954D01*
X109537681Y-63245926D01*
X109476358Y-63279411D01*
X109406666Y-63274427D01*
X109362319Y-63245926D01*
X109338347Y-63221954D01*
X109338344Y-63221952D01*
X109338342Y-63221950D01*
X109261517Y-63182805D01*
X109225301Y-63164352D01*
X109131524Y-63149500D01*
X108668482Y-63149500D01*
X108587519Y-63162323D01*
X108574696Y-63164354D01*
X108461658Y-63221950D01*
X108461657Y-63221951D01*
X108461652Y-63221954D01*
X108437681Y-63245926D01*
X108376358Y-63279411D01*
X108306666Y-63274427D01*
X108262319Y-63245926D01*
X108238347Y-63221954D01*
X108238344Y-63221952D01*
X108238342Y-63221950D01*
X108161517Y-63182805D01*
X108125301Y-63164352D01*
X108031524Y-63149500D01*
X107568482Y-63149500D01*
X107487519Y-63162323D01*
X107474696Y-63164354D01*
X107361658Y-63221950D01*
X107361657Y-63221951D01*
X107361652Y-63221954D01*
X107337681Y-63245926D01*
X107276358Y-63279411D01*
X107206666Y-63274427D01*
X107162319Y-63245926D01*
X107138347Y-63221954D01*
X107138344Y-63221952D01*
X107138342Y-63221950D01*
X107061517Y-63182805D01*
X107025301Y-63164352D01*
X106931524Y-63149500D01*
X106468482Y-63149500D01*
X106387519Y-63162323D01*
X106374696Y-63164354D01*
X106261658Y-63221950D01*
X106261657Y-63221951D01*
X106261652Y-63221954D01*
X106220002Y-63263604D01*
X106158679Y-63297088D01*
X106088987Y-63292103D01*
X106044641Y-63263603D01*
X105996210Y-63215172D01*
X105883628Y-63160135D01*
X105883626Y-63160134D01*
X105883625Y-63160134D01*
X105810636Y-63149500D01*
X105389364Y-63149500D01*
X105316375Y-63160134D01*
X105316373Y-63160134D01*
X105316371Y-63160135D01*
X105203789Y-63215172D01*
X105115172Y-63303789D01*
X105060135Y-63416371D01*
X105060134Y-63416373D01*
X105060134Y-63416375D01*
X105049500Y-63489364D01*
X100500500Y-63489364D01*
X100500500Y-58534658D01*
X110800001Y-58534658D01*
X110815570Y-58652928D01*
X110815573Y-58652940D01*
X110876531Y-58800108D01*
X110973509Y-58926490D01*
X111099891Y-59023468D01*
X111247059Y-59084426D01*
X111247063Y-59084427D01*
X111365342Y-59099999D01*
X111574999Y-59099999D01*
X112075000Y-59099999D01*
X112284658Y-59099999D01*
X112409316Y-59083589D01*
X112426215Y-59086224D01*
X112443147Y-59083790D01*
X112460022Y-59091496D01*
X112478351Y-59094355D01*
X112491143Y-59105709D01*
X112506703Y-59112815D01*
X112516732Y-59128421D01*
X112530607Y-59140736D01*
X112535421Y-59157502D01*
X112544477Y-59171593D01*
X112549500Y-59206528D01*
X112549500Y-59445951D01*
X112547116Y-59470143D01*
X112544500Y-59483300D01*
X112544500Y-59550000D01*
X112544507Y-59551909D01*
X112545010Y-59619255D01*
X112545389Y-59670026D01*
X112545458Y-59674355D01*
X112547852Y-59771494D01*
X112548014Y-59776259D01*
X112551536Y-59857663D01*
X112551570Y-59858438D01*
X112551589Y-59858859D01*
X112551768Y-59862187D01*
X112556048Y-59933198D01*
X112556220Y-59935825D01*
X112565404Y-60065632D01*
X112565489Y-60066926D01*
X112569468Y-60132972D01*
X112569576Y-60135069D01*
X112572808Y-60209772D01*
X112572886Y-60212078D01*
X112575113Y-60302465D01*
X112575148Y-60304591D01*
X112575997Y-60418068D01*
X112576000Y-60418996D01*
X112576000Y-60875816D01*
X112579382Y-60896544D01*
X112581000Y-60916512D01*
X112581000Y-62612766D01*
X112580879Y-62618236D01*
X112580461Y-62627683D01*
X112576000Y-62650115D01*
X112576000Y-62728729D01*
X112575879Y-62731470D01*
X112565415Y-62762046D01*
X112556315Y-62793039D01*
X112554175Y-62794893D01*
X112553257Y-62797576D01*
X112527912Y-62817649D01*
X112503511Y-62838794D01*
X112500348Y-62839482D01*
X112498486Y-62840957D01*
X112489461Y-62841850D01*
X112452000Y-62850000D01*
X112450000Y-62850000D01*
X112450000Y-65649999D01*
X112456581Y-65649999D01*
X112527102Y-65643591D01*
X112527107Y-65643590D01*
X112689396Y-65593018D01*
X112834875Y-65505073D01*
X112907462Y-65432486D01*
X112968785Y-65399001D01*
X113007593Y-65399016D01*
X113007788Y-65396942D01*
X113045730Y-65400500D01*
X113045734Y-65400500D01*
X113554270Y-65400500D01*
X113584689Y-65397647D01*
X113584689Y-65397646D01*
X113584699Y-65397646D01*
X113591418Y-65395294D01*
X113661194Y-65391729D01*
X113720057Y-65424652D01*
X113805661Y-65510255D01*
X113805662Y-65510256D01*
X113945934Y-65595052D01*
X114102442Y-65643821D01*
X114102440Y-65643821D01*
X114149999Y-65648142D01*
X114150000Y-65648142D01*
X114150000Y-65648141D01*
X114650000Y-65648141D01*
X114697561Y-65643821D01*
X114697570Y-65643819D01*
X114854060Y-65595055D01*
X114854064Y-65595053D01*
X114994337Y-65510256D01*
X114994342Y-65510252D01*
X115110252Y-65394342D01*
X115110256Y-65394337D01*
X115195052Y-65254065D01*
X115243820Y-65097562D01*
X115250000Y-65029556D01*
X115250000Y-64500000D01*
X114650000Y-64500000D01*
X114650000Y-65648141D01*
X114150000Y-65648141D01*
X114150000Y-64000000D01*
X114650000Y-64000000D01*
X115249999Y-64000000D01*
X115249999Y-63470433D01*
X115243821Y-63402438D01*
X115243818Y-63402427D01*
X115195055Y-63245939D01*
X115195053Y-63245935D01*
X115110256Y-63105662D01*
X115110252Y-63105657D01*
X114994342Y-62989747D01*
X114994337Y-62989743D01*
X114854065Y-62904947D01*
X114697562Y-62856179D01*
X114650000Y-62851856D01*
X114650000Y-64000000D01*
X114150000Y-64000000D01*
X114150000Y-62870314D01*
X114088015Y-62836053D01*
X114064454Y-62812249D01*
X114040329Y-62789033D01*
X114039908Y-62787450D01*
X114038864Y-62786395D01*
X114035822Y-62772057D01*
X114024000Y-62727528D01*
X114024000Y-62650116D01*
X114024000Y-62650115D01*
X114020607Y-62629259D01*
X114019000Y-62609353D01*
X114019000Y-60913165D01*
X114021383Y-60888971D01*
X114024000Y-60875815D01*
X114024000Y-60419034D01*
X114024003Y-60418109D01*
X114024850Y-60304545D01*
X114024885Y-60302416D01*
X114027110Y-60212098D01*
X114027188Y-60209793D01*
X114030424Y-60134989D01*
X114030533Y-60132890D01*
X114034511Y-60066876D01*
X114034569Y-60065981D01*
X114043770Y-59935953D01*
X114043944Y-59933288D01*
X114044757Y-59919780D01*
X114048226Y-59862234D01*
X114048355Y-59859905D01*
X114048365Y-59859728D01*
X114048375Y-59859530D01*
X114048461Y-59857689D01*
X114051981Y-59776356D01*
X114051985Y-59776264D01*
X114052088Y-59773512D01*
X114052099Y-59773169D01*
X114052146Y-59771514D01*
X114052150Y-59771383D01*
X114054537Y-59674478D01*
X114054563Y-59673270D01*
X114054567Y-59673069D01*
X114054611Y-59669895D01*
X114055493Y-59551910D01*
X114055500Y-59550000D01*
X114055500Y-59483300D01*
X114051279Y-59445820D01*
X114050500Y-59431943D01*
X114050500Y-59206527D01*
X114070185Y-59139488D01*
X114122989Y-59093733D01*
X114190686Y-59083588D01*
X114315342Y-59099999D01*
X114524999Y-59099999D01*
X115025000Y-59099999D01*
X115234658Y-59099999D01*
X115352928Y-59084429D01*
X115352940Y-59084426D01*
X115500108Y-59023468D01*
X115626490Y-58926490D01*
X115723468Y-58800108D01*
X115784426Y-58652940D01*
X115784427Y-58652936D01*
X115799999Y-58534664D01*
X115800000Y-58534650D01*
X115800000Y-57750000D01*
X115025000Y-57750000D01*
X115025000Y-59099999D01*
X114524999Y-59099999D01*
X114525000Y-59099998D01*
X114525000Y-57750000D01*
X113750000Y-57750000D01*
X113750000Y-58125500D01*
X113730315Y-58192539D01*
X113677511Y-58238294D01*
X113626000Y-58249500D01*
X112973999Y-58249500D01*
X112906960Y-58229815D01*
X112861205Y-58177011D01*
X112849999Y-58125500D01*
X112849999Y-57750000D01*
X112075000Y-57750000D01*
X112075000Y-59099999D01*
X111574999Y-59099999D01*
X111575000Y-59099998D01*
X111575000Y-57750000D01*
X110800001Y-57750000D01*
X110800001Y-58534658D01*
X100500500Y-58534658D01*
X100500500Y-56465335D01*
X110800000Y-56465335D01*
X110800000Y-57250000D01*
X111575000Y-57250000D01*
X111575000Y-55938908D01*
X112075000Y-55938908D01*
X112075000Y-57250000D01*
X112849999Y-57250000D01*
X112849999Y-57123999D01*
X112869684Y-57056960D01*
X112922488Y-57011205D01*
X112973999Y-56999999D01*
X113049999Y-56999999D01*
X113550000Y-56999999D01*
X113626000Y-56999999D01*
X113693039Y-57019684D01*
X113738794Y-57072488D01*
X113750000Y-57123999D01*
X113750000Y-57250000D01*
X114525000Y-57250000D01*
X115025000Y-57250000D01*
X115799999Y-57250000D01*
X115799999Y-56465341D01*
X115784429Y-56347071D01*
X115784426Y-56347059D01*
X115723468Y-56199891D01*
X115626490Y-56073509D01*
X115500108Y-55976531D01*
X115352940Y-55915573D01*
X115352936Y-55915572D01*
X115234664Y-55900000D01*
X115025000Y-55900000D01*
X115025000Y-57250000D01*
X114525000Y-57250000D01*
X114525000Y-55938907D01*
X114385904Y-55894003D01*
X114372508Y-55884880D01*
X114356960Y-55880315D01*
X114344227Y-55865621D01*
X114328154Y-55854675D01*
X114321816Y-55839757D01*
X114311205Y-55827511D01*
X114305528Y-55801416D01*
X114300834Y-55790367D01*
X114301842Y-55784473D01*
X114299999Y-55776000D01*
X114299999Y-55560675D01*
X114284557Y-55443371D01*
X114284555Y-55443366D01*
X114224100Y-55297414D01*
X114127924Y-55172075D01*
X114002586Y-55075899D01*
X113856634Y-55015445D01*
X113856630Y-55015444D01*
X113739330Y-55000000D01*
X113550000Y-55000000D01*
X113550000Y-56999999D01*
X113049999Y-56999999D01*
X113050000Y-56999998D01*
X113050000Y-55000000D01*
X112860675Y-55000000D01*
X112743371Y-55015442D01*
X112743366Y-55015444D01*
X112597414Y-55075899D01*
X112472075Y-55172075D01*
X112375899Y-55297413D01*
X112315445Y-55443365D01*
X112315444Y-55443369D01*
X112300000Y-55560669D01*
X112300000Y-55776000D01*
X112293005Y-55799821D01*
X112290128Y-55824485D01*
X112283332Y-55832764D01*
X112280315Y-55843039D01*
X112261553Y-55859296D01*
X112245798Y-55878490D01*
X112231104Y-55885679D01*
X112227511Y-55888794D01*
X112222523Y-55889878D01*
X112214096Y-55894003D01*
X112075000Y-55938908D01*
X111575000Y-55938908D01*
X111575000Y-55900000D01*
X111365341Y-55900000D01*
X111247071Y-55915570D01*
X111247059Y-55915573D01*
X111099891Y-55976531D01*
X110973509Y-56073509D01*
X110876531Y-56199891D01*
X110815573Y-56347059D01*
X110815572Y-56347063D01*
X110800000Y-56465335D01*
X100500500Y-56465335D01*
X100500500Y-53506959D01*
X100501280Y-53493077D01*
X100501447Y-53491599D01*
X100511459Y-53402729D01*
X100517635Y-53375668D01*
X100545353Y-53296457D01*
X100557393Y-53271453D01*
X100602046Y-53200389D01*
X100619351Y-53178690D01*
X100678690Y-53119351D01*
X100700389Y-53102046D01*
X100771453Y-53057393D01*
X100796457Y-53045353D01*
X100875668Y-53017635D01*
X100902729Y-53011459D01*
X100978753Y-53002893D01*
X100993078Y-53001280D01*
X101006960Y-53000500D01*
X101065892Y-53000500D01*
X118926148Y-53000500D01*
X118926169Y-53000501D01*
G37*
%TD.AperFunction*%
%TD*%
%TA.AperFunction,Conductor*%
%TO.N,/RF_IN*%
G36*
X113758440Y-62638530D02*
G01*
X113766150Y-62643082D01*
X113768500Y-62650115D01*
X113768500Y-63108366D01*
X113768498Y-63108569D01*
X113766586Y-63218978D01*
X113766569Y-63219443D01*
X113761389Y-63310041D01*
X113761349Y-63310544D01*
X113753728Y-63386332D01*
X113753674Y-63386786D01*
X113744403Y-63452910D01*
X113744360Y-63453188D01*
X113734250Y-63514535D01*
X113724115Y-63576026D01*
X113714793Y-63642509D01*
X113707124Y-63718775D01*
X113701917Y-63809858D01*
X113700000Y-63920602D01*
X113700000Y-63972315D01*
X113696573Y-63980588D01*
X113692165Y-63983358D01*
X113303865Y-64119263D01*
X113296135Y-64119263D01*
X112907835Y-63983358D01*
X112901158Y-63977391D01*
X112900000Y-63972315D01*
X112900000Y-63920602D01*
X112898082Y-63809858D01*
X112892875Y-63718775D01*
X112885204Y-63642493D01*
X112875888Y-63576051D01*
X112865750Y-63514535D01*
X112855623Y-63453087D01*
X112855605Y-63452969D01*
X112846321Y-63386765D01*
X112846270Y-63386331D01*
X112838650Y-63310543D01*
X112838610Y-63310041D01*
X112833428Y-63219404D01*
X112833414Y-63219019D01*
X112831502Y-63108568D01*
X112831500Y-63108366D01*
X112831500Y-62650115D01*
X112834927Y-62641842D01*
X112841558Y-62638531D01*
X113298367Y-62573910D01*
X113301633Y-62573910D01*
X113758440Y-62638530D01*
G37*
%TD.AperFunction*%
%TD*%
%TA.AperFunction,Conductor*%
%TO.N,/RF_IN*%
G36*
X113792166Y-59472258D02*
G01*
X113798842Y-59478224D01*
X113800000Y-59483300D01*
X113800000Y-59550000D01*
X113799118Y-59667985D01*
X113799114Y-59668186D01*
X113796727Y-59765091D01*
X113796720Y-59765309D01*
X113793200Y-59846642D01*
X113793190Y-59846840D01*
X113788915Y-59917799D01*
X113788907Y-59917921D01*
X113784250Y-59983749D01*
X113779588Y-60049637D01*
X113775302Y-60120756D01*
X113771774Y-60202297D01*
X113769382Y-60299411D01*
X113768500Y-60417542D01*
X113768500Y-60875816D01*
X113765073Y-60884089D01*
X113758415Y-60887404D01*
X113301615Y-60951048D01*
X113298385Y-60951048D01*
X112841585Y-60887404D01*
X112833864Y-60882868D01*
X112831500Y-60875816D01*
X112831500Y-60417542D01*
X112831500Y-60417499D01*
X112830618Y-60299457D01*
X112828224Y-60202276D01*
X112824696Y-60120742D01*
X112820412Y-60049638D01*
X112815750Y-59983749D01*
X112811088Y-59917860D01*
X112806807Y-59846833D01*
X112806798Y-59846642D01*
X112803276Y-59765222D01*
X112800882Y-59668041D01*
X112800000Y-59550000D01*
X112800000Y-59483300D01*
X112803427Y-59475027D01*
X112807832Y-59472258D01*
X113296137Y-59301352D01*
X113303863Y-59301352D01*
X113792166Y-59472258D01*
G37*
%TD.AperFunction*%
%TD*%
M02*
