%TF.GenerationSoftware,KiCad,Pcbnew,9.0.8+1*%
%TF.CreationDate,2026-05-04T20:35:43-04:00*%
%TF.ProjectId,wendigo_gnss_adapter,77656e64-6967-46f5-9f67-6e73735f6164,rev?*%
%TF.SameCoordinates,Original*%
%TF.FileFunction,Legend,Top*%
%TF.FilePolarity,Positive*%
%FSLAX46Y46*%
G04 Gerber Fmt 4.6, Leading zero omitted, Abs format (unit mm)*
G04 Created by KiCad (PCBNEW 9.0.8+1) date 2026-05-04 20:35:43*
%MOMM*%
%LPD*%
G01*
G04 APERTURE LIST*
%ADD10C,0.150000*%
%ADD11C,0.120000*%
%ADD12C,0.000000*%
G04 APERTURE END LIST*
D10*
X103763000Y-75804000D02*
X107065000Y-75804000D01*
X103763000Y-98664000D02*
X103763000Y-75804000D01*
X106811000Y-78344000D02*
X103763000Y-78344000D01*
X106811000Y-80884000D02*
X103763000Y-80884000D01*
X106811000Y-83424000D02*
X103763000Y-83424000D01*
X106811000Y-85964000D02*
X103763000Y-85964000D01*
X106811000Y-88504000D02*
X103763000Y-88504000D01*
X106811000Y-91044000D02*
X103763000Y-91044000D01*
X106811000Y-93584000D02*
X103763000Y-93584000D01*
X106811000Y-96124000D02*
X103763000Y-96124000D01*
X106811000Y-98664000D02*
X103763000Y-98664000D01*
X113034000Y-78344000D02*
X116082000Y-78344000D01*
X113034000Y-80884000D02*
X116082000Y-80884000D01*
X113034000Y-83424000D02*
X116082000Y-83424000D01*
X113034000Y-85964000D02*
X116082000Y-85964000D01*
X113034000Y-88504000D02*
X116082000Y-88504000D01*
X113034000Y-91044000D02*
X116082000Y-91044000D01*
X113034000Y-93584000D02*
X116082000Y-93584000D01*
X113034000Y-96124000D02*
X116082000Y-96124000D01*
X113034000Y-98664000D02*
X116082000Y-98664000D01*
X116082000Y-75804000D02*
X112780000Y-75804000D01*
X116082000Y-98664000D02*
X116082000Y-75804000D01*
X104621207Y-76674390D02*
X104545017Y-76636295D01*
X104545017Y-76636295D02*
X104430731Y-76636295D01*
X104430731Y-76636295D02*
X104316445Y-76674390D01*
X104316445Y-76674390D02*
X104240255Y-76750580D01*
X104240255Y-76750580D02*
X104202160Y-76826771D01*
X104202160Y-76826771D02*
X104164064Y-76979152D01*
X104164064Y-76979152D02*
X104164064Y-77093438D01*
X104164064Y-77093438D02*
X104202160Y-77245819D01*
X104202160Y-77245819D02*
X104240255Y-77322009D01*
X104240255Y-77322009D02*
X104316445Y-77398200D01*
X104316445Y-77398200D02*
X104430731Y-77436295D01*
X104430731Y-77436295D02*
X104506922Y-77436295D01*
X104506922Y-77436295D02*
X104621207Y-77398200D01*
X104621207Y-77398200D02*
X104659303Y-77360104D01*
X104659303Y-77360104D02*
X104659303Y-77093438D01*
X104659303Y-77093438D02*
X104506922Y-77093438D01*
X105002160Y-77436295D02*
X105002160Y-76636295D01*
X105002160Y-76636295D02*
X105459303Y-77436295D01*
X105459303Y-77436295D02*
X105459303Y-76636295D01*
X105840255Y-77436295D02*
X105840255Y-76636295D01*
X105840255Y-76636295D02*
X106030731Y-76636295D01*
X106030731Y-76636295D02*
X106145017Y-76674390D01*
X106145017Y-76674390D02*
X106221207Y-76750580D01*
X106221207Y-76750580D02*
X106259302Y-76826771D01*
X106259302Y-76826771D02*
X106297398Y-76979152D01*
X106297398Y-76979152D02*
X106297398Y-77093438D01*
X106297398Y-77093438D02*
X106259302Y-77245819D01*
X106259302Y-77245819D02*
X106221207Y-77322009D01*
X106221207Y-77322009D02*
X106145017Y-77398200D01*
X106145017Y-77398200D02*
X106030731Y-77436295D01*
X106030731Y-77436295D02*
X105840255Y-77436295D01*
X104202160Y-79976295D02*
X104202160Y-79176295D01*
X104202160Y-79176295D02*
X104659303Y-79976295D01*
X104659303Y-79976295D02*
X104659303Y-79176295D01*
X105497398Y-79900104D02*
X105459302Y-79938200D01*
X105459302Y-79938200D02*
X105345017Y-79976295D01*
X105345017Y-79976295D02*
X105268826Y-79976295D01*
X105268826Y-79976295D02*
X105154540Y-79938200D01*
X105154540Y-79938200D02*
X105078350Y-79862009D01*
X105078350Y-79862009D02*
X105040255Y-79785819D01*
X105040255Y-79785819D02*
X105002159Y-79633438D01*
X105002159Y-79633438D02*
X105002159Y-79519152D01*
X105002159Y-79519152D02*
X105040255Y-79366771D01*
X105040255Y-79366771D02*
X105078350Y-79290580D01*
X105078350Y-79290580D02*
X105154540Y-79214390D01*
X105154540Y-79214390D02*
X105268826Y-79176295D01*
X105268826Y-79176295D02*
X105345017Y-79176295D01*
X105345017Y-79176295D02*
X105459302Y-79214390D01*
X105459302Y-79214390D02*
X105497398Y-79252485D01*
X104202160Y-82516295D02*
X104202160Y-81716295D01*
X104202160Y-81716295D02*
X104659303Y-82516295D01*
X104659303Y-82516295D02*
X104659303Y-81716295D01*
X104849779Y-82592485D02*
X105459302Y-82592485D01*
X105611683Y-82478200D02*
X105725969Y-82516295D01*
X105725969Y-82516295D02*
X105916445Y-82516295D01*
X105916445Y-82516295D02*
X105992636Y-82478200D01*
X105992636Y-82478200D02*
X106030731Y-82440104D01*
X106030731Y-82440104D02*
X106068826Y-82363914D01*
X106068826Y-82363914D02*
X106068826Y-82287723D01*
X106068826Y-82287723D02*
X106030731Y-82211533D01*
X106030731Y-82211533D02*
X105992636Y-82173438D01*
X105992636Y-82173438D02*
X105916445Y-82135342D01*
X105916445Y-82135342D02*
X105764064Y-82097247D01*
X105764064Y-82097247D02*
X105687874Y-82059152D01*
X105687874Y-82059152D02*
X105649779Y-82021057D01*
X105649779Y-82021057D02*
X105611683Y-81944866D01*
X105611683Y-81944866D02*
X105611683Y-81868676D01*
X105611683Y-81868676D02*
X105649779Y-81792485D01*
X105649779Y-81792485D02*
X105687874Y-81754390D01*
X105687874Y-81754390D02*
X105764064Y-81716295D01*
X105764064Y-81716295D02*
X105954541Y-81716295D01*
X105954541Y-81716295D02*
X106068826Y-81754390D01*
X106373588Y-82287723D02*
X106754541Y-82287723D01*
X106297398Y-82516295D02*
X106564065Y-81716295D01*
X106564065Y-81716295D02*
X106830731Y-82516295D01*
X107364064Y-82097247D02*
X107097398Y-82097247D01*
X107097398Y-82516295D02*
X107097398Y-81716295D01*
X107097398Y-81716295D02*
X107478350Y-81716295D01*
X107783112Y-82097247D02*
X108049778Y-82097247D01*
X108164064Y-82516295D02*
X107783112Y-82516295D01*
X107783112Y-82516295D02*
X107783112Y-81716295D01*
X107783112Y-81716295D02*
X108164064Y-81716295D01*
X104164064Y-85018200D02*
X104278350Y-85056295D01*
X104278350Y-85056295D02*
X104468826Y-85056295D01*
X104468826Y-85056295D02*
X104545017Y-85018200D01*
X104545017Y-85018200D02*
X104583112Y-84980104D01*
X104583112Y-84980104D02*
X104621207Y-84903914D01*
X104621207Y-84903914D02*
X104621207Y-84827723D01*
X104621207Y-84827723D02*
X104583112Y-84751533D01*
X104583112Y-84751533D02*
X104545017Y-84713438D01*
X104545017Y-84713438D02*
X104468826Y-84675342D01*
X104468826Y-84675342D02*
X104316445Y-84637247D01*
X104316445Y-84637247D02*
X104240255Y-84599152D01*
X104240255Y-84599152D02*
X104202160Y-84561057D01*
X104202160Y-84561057D02*
X104164064Y-84484866D01*
X104164064Y-84484866D02*
X104164064Y-84408676D01*
X104164064Y-84408676D02*
X104202160Y-84332485D01*
X104202160Y-84332485D02*
X104240255Y-84294390D01*
X104240255Y-84294390D02*
X104316445Y-84256295D01*
X104316445Y-84256295D02*
X104506922Y-84256295D01*
X104506922Y-84256295D02*
X104621207Y-84294390D01*
X105421208Y-84980104D02*
X105383112Y-85018200D01*
X105383112Y-85018200D02*
X105268827Y-85056295D01*
X105268827Y-85056295D02*
X105192636Y-85056295D01*
X105192636Y-85056295D02*
X105078350Y-85018200D01*
X105078350Y-85018200D02*
X105002160Y-84942009D01*
X105002160Y-84942009D02*
X104964065Y-84865819D01*
X104964065Y-84865819D02*
X104925969Y-84713438D01*
X104925969Y-84713438D02*
X104925969Y-84599152D01*
X104925969Y-84599152D02*
X104964065Y-84446771D01*
X104964065Y-84446771D02*
X105002160Y-84370580D01*
X105002160Y-84370580D02*
X105078350Y-84294390D01*
X105078350Y-84294390D02*
X105192636Y-84256295D01*
X105192636Y-84256295D02*
X105268827Y-84256295D01*
X105268827Y-84256295D02*
X105383112Y-84294390D01*
X105383112Y-84294390D02*
X105421208Y-84332485D01*
X106145017Y-85056295D02*
X105764065Y-85056295D01*
X105764065Y-85056295D02*
X105764065Y-84256295D01*
X104164064Y-87558200D02*
X104278350Y-87596295D01*
X104278350Y-87596295D02*
X104468826Y-87596295D01*
X104468826Y-87596295D02*
X104545017Y-87558200D01*
X104545017Y-87558200D02*
X104583112Y-87520104D01*
X104583112Y-87520104D02*
X104621207Y-87443914D01*
X104621207Y-87443914D02*
X104621207Y-87367723D01*
X104621207Y-87367723D02*
X104583112Y-87291533D01*
X104583112Y-87291533D02*
X104545017Y-87253438D01*
X104545017Y-87253438D02*
X104468826Y-87215342D01*
X104468826Y-87215342D02*
X104316445Y-87177247D01*
X104316445Y-87177247D02*
X104240255Y-87139152D01*
X104240255Y-87139152D02*
X104202160Y-87101057D01*
X104202160Y-87101057D02*
X104164064Y-87024866D01*
X104164064Y-87024866D02*
X104164064Y-86948676D01*
X104164064Y-86948676D02*
X104202160Y-86872485D01*
X104202160Y-86872485D02*
X104240255Y-86834390D01*
X104240255Y-86834390D02*
X104316445Y-86796295D01*
X104316445Y-86796295D02*
X104506922Y-86796295D01*
X104506922Y-86796295D02*
X104621207Y-86834390D01*
X104964065Y-87596295D02*
X104964065Y-86796295D01*
X104964065Y-86796295D02*
X105154541Y-86796295D01*
X105154541Y-86796295D02*
X105268827Y-86834390D01*
X105268827Y-86834390D02*
X105345017Y-86910580D01*
X105345017Y-86910580D02*
X105383112Y-86986771D01*
X105383112Y-86986771D02*
X105421208Y-87139152D01*
X105421208Y-87139152D02*
X105421208Y-87253438D01*
X105421208Y-87253438D02*
X105383112Y-87405819D01*
X105383112Y-87405819D02*
X105345017Y-87482009D01*
X105345017Y-87482009D02*
X105268827Y-87558200D01*
X105268827Y-87558200D02*
X105154541Y-87596295D01*
X105154541Y-87596295D02*
X104964065Y-87596295D01*
X105725969Y-87367723D02*
X106106922Y-87367723D01*
X105649779Y-87596295D02*
X105916446Y-86796295D01*
X105916446Y-86796295D02*
X106183112Y-87596295D01*
X104087874Y-89336295D02*
X104354541Y-90136295D01*
X104354541Y-90136295D02*
X104621207Y-89336295D01*
X104887874Y-90136295D02*
X104887874Y-89336295D01*
X105421207Y-89336295D02*
X105573588Y-89336295D01*
X105573588Y-89336295D02*
X105649778Y-89374390D01*
X105649778Y-89374390D02*
X105725969Y-89450580D01*
X105725969Y-89450580D02*
X105764064Y-89602961D01*
X105764064Y-89602961D02*
X105764064Y-89869628D01*
X105764064Y-89869628D02*
X105725969Y-90022009D01*
X105725969Y-90022009D02*
X105649778Y-90098200D01*
X105649778Y-90098200D02*
X105573588Y-90136295D01*
X105573588Y-90136295D02*
X105421207Y-90136295D01*
X105421207Y-90136295D02*
X105345016Y-90098200D01*
X105345016Y-90098200D02*
X105268826Y-90022009D01*
X105268826Y-90022009D02*
X105230730Y-89869628D01*
X105230730Y-89869628D02*
X105230730Y-89602961D01*
X105230730Y-89602961D02*
X105268826Y-89450580D01*
X105268826Y-89450580D02*
X105345016Y-89374390D01*
X105345016Y-89374390D02*
X105421207Y-89336295D01*
X105916445Y-90212485D02*
X106525968Y-90212485D01*
X106678349Y-90098200D02*
X106792635Y-90136295D01*
X106792635Y-90136295D02*
X106983111Y-90136295D01*
X106983111Y-90136295D02*
X107059302Y-90098200D01*
X107059302Y-90098200D02*
X107097397Y-90060104D01*
X107097397Y-90060104D02*
X107135492Y-89983914D01*
X107135492Y-89983914D02*
X107135492Y-89907723D01*
X107135492Y-89907723D02*
X107097397Y-89831533D01*
X107097397Y-89831533D02*
X107059302Y-89793438D01*
X107059302Y-89793438D02*
X106983111Y-89755342D01*
X106983111Y-89755342D02*
X106830730Y-89717247D01*
X106830730Y-89717247D02*
X106754540Y-89679152D01*
X106754540Y-89679152D02*
X106716445Y-89641057D01*
X106716445Y-89641057D02*
X106678349Y-89564866D01*
X106678349Y-89564866D02*
X106678349Y-89488676D01*
X106678349Y-89488676D02*
X106716445Y-89412485D01*
X106716445Y-89412485D02*
X106754540Y-89374390D01*
X106754540Y-89374390D02*
X106830730Y-89336295D01*
X106830730Y-89336295D02*
X107021207Y-89336295D01*
X107021207Y-89336295D02*
X107135492Y-89374390D01*
X107478350Y-89717247D02*
X107745016Y-89717247D01*
X107859302Y-90136295D02*
X107478350Y-90136295D01*
X107478350Y-90136295D02*
X107478350Y-89336295D01*
X107478350Y-89336295D02*
X107859302Y-89336295D01*
X108583112Y-90136295D02*
X108202160Y-90136295D01*
X108202160Y-90136295D02*
X108202160Y-89336295D01*
X104087874Y-91876295D02*
X104354541Y-92676295D01*
X104354541Y-92676295D02*
X104621207Y-91876295D01*
X105345017Y-92676295D02*
X105078350Y-92295342D01*
X104887874Y-92676295D02*
X104887874Y-91876295D01*
X104887874Y-91876295D02*
X105192636Y-91876295D01*
X105192636Y-91876295D02*
X105268826Y-91914390D01*
X105268826Y-91914390D02*
X105306921Y-91952485D01*
X105306921Y-91952485D02*
X105345017Y-92028676D01*
X105345017Y-92028676D02*
X105345017Y-92142961D01*
X105345017Y-92142961D02*
X105306921Y-92219152D01*
X105306921Y-92219152D02*
X105268826Y-92257247D01*
X105268826Y-92257247D02*
X105192636Y-92295342D01*
X105192636Y-92295342D02*
X104887874Y-92295342D01*
X105954540Y-92257247D02*
X105687874Y-92257247D01*
X105687874Y-92676295D02*
X105687874Y-91876295D01*
X105687874Y-91876295D02*
X106068826Y-91876295D01*
X104583112Y-95216295D02*
X104202160Y-95216295D01*
X104202160Y-95216295D02*
X104202160Y-94416295D01*
X104849779Y-95216295D02*
X104849779Y-94416295D01*
X104849779Y-94416295D02*
X105306922Y-95216295D01*
X105306922Y-95216295D02*
X105306922Y-94416295D01*
X105649778Y-94987723D02*
X106030731Y-94987723D01*
X105573588Y-95216295D02*
X105840255Y-94416295D01*
X105840255Y-94416295D02*
X106106921Y-95216295D01*
X106183112Y-95292485D02*
X106792635Y-95292485D01*
X106983112Y-94797247D02*
X107249778Y-94797247D01*
X107364064Y-95216295D02*
X106983112Y-95216295D01*
X106983112Y-95216295D02*
X106983112Y-94416295D01*
X106983112Y-94416295D02*
X107364064Y-94416295D01*
X107706922Y-95216295D02*
X107706922Y-94416295D01*
X107706922Y-94416295D02*
X108164065Y-95216295D01*
X108164065Y-95216295D02*
X108164065Y-94416295D01*
X104202160Y-97756295D02*
X104202160Y-96956295D01*
X104202160Y-96956295D02*
X104659303Y-97756295D01*
X104659303Y-97756295D02*
X104659303Y-96956295D01*
X105497398Y-97680104D02*
X105459302Y-97718200D01*
X105459302Y-97718200D02*
X105345017Y-97756295D01*
X105345017Y-97756295D02*
X105268826Y-97756295D01*
X105268826Y-97756295D02*
X105154540Y-97718200D01*
X105154540Y-97718200D02*
X105078350Y-97642009D01*
X105078350Y-97642009D02*
X105040255Y-97565819D01*
X105040255Y-97565819D02*
X105002159Y-97413438D01*
X105002159Y-97413438D02*
X105002159Y-97299152D01*
X105002159Y-97299152D02*
X105040255Y-97146771D01*
X105040255Y-97146771D02*
X105078350Y-97070580D01*
X105078350Y-97070580D02*
X105154540Y-96994390D01*
X105154540Y-96994390D02*
X105268826Y-96956295D01*
X105268826Y-96956295D02*
X105345017Y-96956295D01*
X105345017Y-96956295D02*
X105459302Y-96994390D01*
X105459302Y-96994390D02*
X105497398Y-97032485D01*
X108761904Y-99102485D02*
X108685714Y-99064390D01*
X108685714Y-99064390D02*
X108609523Y-98988200D01*
X108609523Y-98988200D02*
X108495237Y-98873914D01*
X108495237Y-98873914D02*
X108419047Y-98835819D01*
X108419047Y-98835819D02*
X108342856Y-98835819D01*
X108380952Y-99026295D02*
X108304761Y-98988200D01*
X108304761Y-98988200D02*
X108228571Y-98912009D01*
X108228571Y-98912009D02*
X108190475Y-98759628D01*
X108190475Y-98759628D02*
X108190475Y-98492961D01*
X108190475Y-98492961D02*
X108228571Y-98340580D01*
X108228571Y-98340580D02*
X108304761Y-98264390D01*
X108304761Y-98264390D02*
X108380952Y-98226295D01*
X108380952Y-98226295D02*
X108533333Y-98226295D01*
X108533333Y-98226295D02*
X108609523Y-98264390D01*
X108609523Y-98264390D02*
X108685714Y-98340580D01*
X108685714Y-98340580D02*
X108723809Y-98492961D01*
X108723809Y-98492961D02*
X108723809Y-98759628D01*
X108723809Y-98759628D02*
X108685714Y-98912009D01*
X108685714Y-98912009D02*
X108609523Y-98988200D01*
X108609523Y-98988200D02*
X108533333Y-99026295D01*
X108533333Y-99026295D02*
X108380952Y-99026295D01*
X109028570Y-98988200D02*
X109142856Y-99026295D01*
X109142856Y-99026295D02*
X109333332Y-99026295D01*
X109333332Y-99026295D02*
X109409523Y-98988200D01*
X109409523Y-98988200D02*
X109447618Y-98950104D01*
X109447618Y-98950104D02*
X109485713Y-98873914D01*
X109485713Y-98873914D02*
X109485713Y-98797723D01*
X109485713Y-98797723D02*
X109447618Y-98721533D01*
X109447618Y-98721533D02*
X109409523Y-98683438D01*
X109409523Y-98683438D02*
X109333332Y-98645342D01*
X109333332Y-98645342D02*
X109180951Y-98607247D01*
X109180951Y-98607247D02*
X109104761Y-98569152D01*
X109104761Y-98569152D02*
X109066666Y-98531057D01*
X109066666Y-98531057D02*
X109028570Y-98454866D01*
X109028570Y-98454866D02*
X109028570Y-98378676D01*
X109028570Y-98378676D02*
X109066666Y-98302485D01*
X109066666Y-98302485D02*
X109104761Y-98264390D01*
X109104761Y-98264390D02*
X109180951Y-98226295D01*
X109180951Y-98226295D02*
X109371428Y-98226295D01*
X109371428Y-98226295D02*
X109485713Y-98264390D01*
X110704761Y-98607247D02*
X110819047Y-98645342D01*
X110819047Y-98645342D02*
X110857142Y-98683438D01*
X110857142Y-98683438D02*
X110895238Y-98759628D01*
X110895238Y-98759628D02*
X110895238Y-98873914D01*
X110895238Y-98873914D02*
X110857142Y-98950104D01*
X110857142Y-98950104D02*
X110819047Y-98988200D01*
X110819047Y-98988200D02*
X110742857Y-99026295D01*
X110742857Y-99026295D02*
X110438095Y-99026295D01*
X110438095Y-99026295D02*
X110438095Y-98226295D01*
X110438095Y-98226295D02*
X110704761Y-98226295D01*
X110704761Y-98226295D02*
X110780952Y-98264390D01*
X110780952Y-98264390D02*
X110819047Y-98302485D01*
X110819047Y-98302485D02*
X110857142Y-98378676D01*
X110857142Y-98378676D02*
X110857142Y-98454866D01*
X110857142Y-98454866D02*
X110819047Y-98531057D01*
X110819047Y-98531057D02*
X110780952Y-98569152D01*
X110780952Y-98569152D02*
X110704761Y-98607247D01*
X110704761Y-98607247D02*
X110438095Y-98607247D01*
X111161904Y-98226295D02*
X111352380Y-99026295D01*
X111352380Y-99026295D02*
X111504761Y-98454866D01*
X111504761Y-98454866D02*
X111657142Y-99026295D01*
X111657142Y-99026295D02*
X111847619Y-98226295D01*
X112404744Y-77436295D02*
X112404744Y-76636295D01*
X112404744Y-76636295D02*
X112861887Y-77436295D01*
X112861887Y-77436295D02*
X112861887Y-76636295D01*
X113052363Y-77512485D02*
X113661886Y-77512485D01*
X114309506Y-77436295D02*
X114042839Y-77055342D01*
X113852363Y-77436295D02*
X113852363Y-76636295D01*
X113852363Y-76636295D02*
X114157125Y-76636295D01*
X114157125Y-76636295D02*
X114233315Y-76674390D01*
X114233315Y-76674390D02*
X114271410Y-76712485D01*
X114271410Y-76712485D02*
X114309506Y-76788676D01*
X114309506Y-76788676D02*
X114309506Y-76902961D01*
X114309506Y-76902961D02*
X114271410Y-76979152D01*
X114271410Y-76979152D02*
X114233315Y-77017247D01*
X114233315Y-77017247D02*
X114157125Y-77055342D01*
X114157125Y-77055342D02*
X113852363Y-77055342D01*
X114614267Y-77398200D02*
X114728553Y-77436295D01*
X114728553Y-77436295D02*
X114919029Y-77436295D01*
X114919029Y-77436295D02*
X114995220Y-77398200D01*
X114995220Y-77398200D02*
X115033315Y-77360104D01*
X115033315Y-77360104D02*
X115071410Y-77283914D01*
X115071410Y-77283914D02*
X115071410Y-77207723D01*
X115071410Y-77207723D02*
X115033315Y-77131533D01*
X115033315Y-77131533D02*
X114995220Y-77093438D01*
X114995220Y-77093438D02*
X114919029Y-77055342D01*
X114919029Y-77055342D02*
X114766648Y-77017247D01*
X114766648Y-77017247D02*
X114690458Y-76979152D01*
X114690458Y-76979152D02*
X114652363Y-76941057D01*
X114652363Y-76941057D02*
X114614267Y-76864866D01*
X114614267Y-76864866D02*
X114614267Y-76788676D01*
X114614267Y-76788676D02*
X114652363Y-76712485D01*
X114652363Y-76712485D02*
X114690458Y-76674390D01*
X114690458Y-76674390D02*
X114766648Y-76636295D01*
X114766648Y-76636295D02*
X114957125Y-76636295D01*
X114957125Y-76636295D02*
X115071410Y-76674390D01*
X115299982Y-76636295D02*
X115757125Y-76636295D01*
X115528553Y-77436295D02*
X115528553Y-76636295D01*
X113623792Y-79176295D02*
X113890459Y-79976295D01*
X113890459Y-79976295D02*
X114157125Y-79176295D01*
X114880935Y-79900104D02*
X114842839Y-79938200D01*
X114842839Y-79938200D02*
X114728554Y-79976295D01*
X114728554Y-79976295D02*
X114652363Y-79976295D01*
X114652363Y-79976295D02*
X114538077Y-79938200D01*
X114538077Y-79938200D02*
X114461887Y-79862009D01*
X114461887Y-79862009D02*
X114423792Y-79785819D01*
X114423792Y-79785819D02*
X114385696Y-79633438D01*
X114385696Y-79633438D02*
X114385696Y-79519152D01*
X114385696Y-79519152D02*
X114423792Y-79366771D01*
X114423792Y-79366771D02*
X114461887Y-79290580D01*
X114461887Y-79290580D02*
X114538077Y-79214390D01*
X114538077Y-79214390D02*
X114652363Y-79176295D01*
X114652363Y-79176295D02*
X114728554Y-79176295D01*
X114728554Y-79176295D02*
X114842839Y-79214390D01*
X114842839Y-79214390D02*
X114880935Y-79252485D01*
X115680935Y-79900104D02*
X115642839Y-79938200D01*
X115642839Y-79938200D02*
X115528554Y-79976295D01*
X115528554Y-79976295D02*
X115452363Y-79976295D01*
X115452363Y-79976295D02*
X115338077Y-79938200D01*
X115338077Y-79938200D02*
X115261887Y-79862009D01*
X115261887Y-79862009D02*
X115223792Y-79785819D01*
X115223792Y-79785819D02*
X115185696Y-79633438D01*
X115185696Y-79633438D02*
X115185696Y-79519152D01*
X115185696Y-79519152D02*
X115223792Y-79366771D01*
X115223792Y-79366771D02*
X115261887Y-79290580D01*
X115261887Y-79290580D02*
X115338077Y-79214390D01*
X115338077Y-79214390D02*
X115452363Y-79176295D01*
X115452363Y-79176295D02*
X115528554Y-79176295D01*
X115528554Y-79176295D02*
X115642839Y-79214390D01*
X115642839Y-79214390D02*
X115680935Y-79252485D01*
X114004745Y-81716295D02*
X114271412Y-82516295D01*
X114271412Y-82516295D02*
X114538078Y-81716295D01*
X114804745Y-82516295D02*
X114804745Y-81716295D01*
X115338078Y-81716295D02*
X115490459Y-81716295D01*
X115490459Y-81716295D02*
X115566649Y-81754390D01*
X115566649Y-81754390D02*
X115642840Y-81830580D01*
X115642840Y-81830580D02*
X115680935Y-81982961D01*
X115680935Y-81982961D02*
X115680935Y-82249628D01*
X115680935Y-82249628D02*
X115642840Y-82402009D01*
X115642840Y-82402009D02*
X115566649Y-82478200D01*
X115566649Y-82478200D02*
X115490459Y-82516295D01*
X115490459Y-82516295D02*
X115338078Y-82516295D01*
X115338078Y-82516295D02*
X115261887Y-82478200D01*
X115261887Y-82478200D02*
X115185697Y-82402009D01*
X115185697Y-82402009D02*
X115147601Y-82249628D01*
X115147601Y-82249628D02*
X115147601Y-81982961D01*
X115147601Y-81982961D02*
X115185697Y-81830580D01*
X115185697Y-81830580D02*
X115261887Y-81754390D01*
X115261887Y-81754390D02*
X115338078Y-81716295D01*
X112823792Y-84256295D02*
X113090459Y-85056295D01*
X113090459Y-85056295D02*
X113357125Y-84256295D01*
X113890458Y-84637247D02*
X114004744Y-84675342D01*
X114004744Y-84675342D02*
X114042839Y-84713438D01*
X114042839Y-84713438D02*
X114080935Y-84789628D01*
X114080935Y-84789628D02*
X114080935Y-84903914D01*
X114080935Y-84903914D02*
X114042839Y-84980104D01*
X114042839Y-84980104D02*
X114004744Y-85018200D01*
X114004744Y-85018200D02*
X113928554Y-85056295D01*
X113928554Y-85056295D02*
X113623792Y-85056295D01*
X113623792Y-85056295D02*
X113623792Y-84256295D01*
X113623792Y-84256295D02*
X113890458Y-84256295D01*
X113890458Y-84256295D02*
X113966649Y-84294390D01*
X113966649Y-84294390D02*
X114004744Y-84332485D01*
X114004744Y-84332485D02*
X114042839Y-84408676D01*
X114042839Y-84408676D02*
X114042839Y-84484866D01*
X114042839Y-84484866D02*
X114004744Y-84561057D01*
X114004744Y-84561057D02*
X113966649Y-84599152D01*
X113966649Y-84599152D02*
X113890458Y-84637247D01*
X113890458Y-84637247D02*
X113623792Y-84637247D01*
X114423792Y-85056295D02*
X114423792Y-84256295D01*
X114880935Y-85056295D02*
X114538077Y-84599152D01*
X114880935Y-84256295D02*
X114423792Y-84713438D01*
X115223792Y-85056295D02*
X115223792Y-84256295D01*
X115223792Y-84256295D02*
X115528554Y-84256295D01*
X115528554Y-84256295D02*
X115604744Y-84294390D01*
X115604744Y-84294390D02*
X115642839Y-84332485D01*
X115642839Y-84332485D02*
X115680935Y-84408676D01*
X115680935Y-84408676D02*
X115680935Y-84522961D01*
X115680935Y-84522961D02*
X115642839Y-84599152D01*
X115642839Y-84599152D02*
X115604744Y-84637247D01*
X115604744Y-84637247D02*
X115528554Y-84675342D01*
X115528554Y-84675342D02*
X115223792Y-84675342D01*
X112099982Y-87177247D02*
X112366648Y-87177247D01*
X112480934Y-87596295D02*
X112099982Y-87596295D01*
X112099982Y-87596295D02*
X112099982Y-86796295D01*
X112099982Y-86796295D02*
X112480934Y-86796295D01*
X112747601Y-86796295D02*
X113280935Y-87596295D01*
X113280935Y-86796295D02*
X112747601Y-87596295D01*
X113471411Y-86796295D02*
X113928554Y-86796295D01*
X113699982Y-87596295D02*
X113699982Y-86796295D01*
X114195221Y-87596295D02*
X114195221Y-86796295D01*
X114576173Y-87596295D02*
X114576173Y-86796295D01*
X114576173Y-86796295D02*
X115033316Y-87596295D01*
X115033316Y-87596295D02*
X115033316Y-86796295D01*
X115299982Y-86796295D02*
X115757125Y-86796295D01*
X115528553Y-87596295D02*
X115528553Y-86796295D01*
X113090458Y-89336295D02*
X113547601Y-89336295D01*
X113319029Y-90136295D02*
X113319029Y-89336295D01*
X113814268Y-90136295D02*
X113814268Y-89336295D01*
X113814268Y-89336295D02*
X114119030Y-89336295D01*
X114119030Y-89336295D02*
X114195220Y-89374390D01*
X114195220Y-89374390D02*
X114233315Y-89412485D01*
X114233315Y-89412485D02*
X114271411Y-89488676D01*
X114271411Y-89488676D02*
X114271411Y-89602961D01*
X114271411Y-89602961D02*
X114233315Y-89679152D01*
X114233315Y-89679152D02*
X114195220Y-89717247D01*
X114195220Y-89717247D02*
X114119030Y-89755342D01*
X114119030Y-89755342D02*
X113814268Y-89755342D01*
X114995220Y-90136295D02*
X114614268Y-90136295D01*
X114614268Y-90136295D02*
X114614268Y-89336295D01*
X115223791Y-90098200D02*
X115338077Y-90136295D01*
X115338077Y-90136295D02*
X115528553Y-90136295D01*
X115528553Y-90136295D02*
X115604744Y-90098200D01*
X115604744Y-90098200D02*
X115642839Y-90060104D01*
X115642839Y-90060104D02*
X115680934Y-89983914D01*
X115680934Y-89983914D02*
X115680934Y-89907723D01*
X115680934Y-89907723D02*
X115642839Y-89831533D01*
X115642839Y-89831533D02*
X115604744Y-89793438D01*
X115604744Y-89793438D02*
X115528553Y-89755342D01*
X115528553Y-89755342D02*
X115376172Y-89717247D01*
X115376172Y-89717247D02*
X115299982Y-89679152D01*
X115299982Y-89679152D02*
X115261887Y-89641057D01*
X115261887Y-89641057D02*
X115223791Y-89564866D01*
X115223791Y-89564866D02*
X115223791Y-89488676D01*
X115223791Y-89488676D02*
X115261887Y-89412485D01*
X115261887Y-89412485D02*
X115299982Y-89374390D01*
X115299982Y-89374390D02*
X115376172Y-89336295D01*
X115376172Y-89336295D02*
X115566649Y-89336295D01*
X115566649Y-89336295D02*
X115680934Y-89374390D01*
X114119030Y-92676295D02*
X113852363Y-92295342D01*
X113661887Y-92676295D02*
X113661887Y-91876295D01*
X113661887Y-91876295D02*
X113966649Y-91876295D01*
X113966649Y-91876295D02*
X114042839Y-91914390D01*
X114042839Y-91914390D02*
X114080934Y-91952485D01*
X114080934Y-91952485D02*
X114119030Y-92028676D01*
X114119030Y-92028676D02*
X114119030Y-92142961D01*
X114119030Y-92142961D02*
X114080934Y-92219152D01*
X114080934Y-92219152D02*
X114042839Y-92257247D01*
X114042839Y-92257247D02*
X113966649Y-92295342D01*
X113966649Y-92295342D02*
X113661887Y-92295342D01*
X114385696Y-91876295D02*
X114919030Y-92676295D01*
X114919030Y-91876295D02*
X114385696Y-92676295D01*
X115223792Y-92676295D02*
X115223792Y-91876295D01*
X115223792Y-91876295D02*
X115414268Y-91876295D01*
X115414268Y-91876295D02*
X115528554Y-91914390D01*
X115528554Y-91914390D02*
X115604744Y-91990580D01*
X115604744Y-91990580D02*
X115642839Y-92066771D01*
X115642839Y-92066771D02*
X115680935Y-92219152D01*
X115680935Y-92219152D02*
X115680935Y-92333438D01*
X115680935Y-92333438D02*
X115642839Y-92485819D01*
X115642839Y-92485819D02*
X115604744Y-92562009D01*
X115604744Y-92562009D02*
X115528554Y-92638200D01*
X115528554Y-92638200D02*
X115414268Y-92676295D01*
X115414268Y-92676295D02*
X115223792Y-92676295D01*
X113738077Y-94416295D02*
X114195220Y-94416295D01*
X113966648Y-95216295D02*
X113966648Y-94416295D01*
X114385696Y-94416295D02*
X114919030Y-95216295D01*
X114919030Y-94416295D02*
X114385696Y-95216295D01*
X115223792Y-95216295D02*
X115223792Y-94416295D01*
X115223792Y-94416295D02*
X115414268Y-94416295D01*
X115414268Y-94416295D02*
X115528554Y-94454390D01*
X115528554Y-94454390D02*
X115604744Y-94530580D01*
X115604744Y-94530580D02*
X115642839Y-94606771D01*
X115642839Y-94606771D02*
X115680935Y-94759152D01*
X115680935Y-94759152D02*
X115680935Y-94873438D01*
X115680935Y-94873438D02*
X115642839Y-95025819D01*
X115642839Y-95025819D02*
X115604744Y-95102009D01*
X115604744Y-95102009D02*
X115528554Y-95178200D01*
X115528554Y-95178200D02*
X115414268Y-95216295D01*
X115414268Y-95216295D02*
X115223792Y-95216295D01*
X114004744Y-96994390D02*
X113928554Y-96956295D01*
X113928554Y-96956295D02*
X113814268Y-96956295D01*
X113814268Y-96956295D02*
X113699982Y-96994390D01*
X113699982Y-96994390D02*
X113623792Y-97070580D01*
X113623792Y-97070580D02*
X113585697Y-97146771D01*
X113585697Y-97146771D02*
X113547601Y-97299152D01*
X113547601Y-97299152D02*
X113547601Y-97413438D01*
X113547601Y-97413438D02*
X113585697Y-97565819D01*
X113585697Y-97565819D02*
X113623792Y-97642009D01*
X113623792Y-97642009D02*
X113699982Y-97718200D01*
X113699982Y-97718200D02*
X113814268Y-97756295D01*
X113814268Y-97756295D02*
X113890459Y-97756295D01*
X113890459Y-97756295D02*
X114004744Y-97718200D01*
X114004744Y-97718200D02*
X114042840Y-97680104D01*
X114042840Y-97680104D02*
X114042840Y-97413438D01*
X114042840Y-97413438D02*
X113890459Y-97413438D01*
X114385697Y-97756295D02*
X114385697Y-96956295D01*
X114385697Y-96956295D02*
X114842840Y-97756295D01*
X114842840Y-97756295D02*
X114842840Y-96956295D01*
X115223792Y-97756295D02*
X115223792Y-96956295D01*
X115223792Y-96956295D02*
X115414268Y-96956295D01*
X115414268Y-96956295D02*
X115528554Y-96994390D01*
X115528554Y-96994390D02*
X115604744Y-97070580D01*
X115604744Y-97070580D02*
X115642839Y-97146771D01*
X115642839Y-97146771D02*
X115680935Y-97299152D01*
X115680935Y-97299152D02*
X115680935Y-97413438D01*
X115680935Y-97413438D02*
X115642839Y-97565819D01*
X115642839Y-97565819D02*
X115604744Y-97642009D01*
X115604744Y-97642009D02*
X115528554Y-97718200D01*
X115528554Y-97718200D02*
X115414268Y-97756295D01*
X115414268Y-97756295D02*
X115223792Y-97756295D01*
X102738095Y-68454819D02*
X102738095Y-69264342D01*
X102738095Y-69264342D02*
X102785714Y-69359580D01*
X102785714Y-69359580D02*
X102833333Y-69407200D01*
X102833333Y-69407200D02*
X102928571Y-69454819D01*
X102928571Y-69454819D02*
X103119047Y-69454819D01*
X103119047Y-69454819D02*
X103214285Y-69407200D01*
X103214285Y-69407200D02*
X103261904Y-69359580D01*
X103261904Y-69359580D02*
X103309523Y-69264342D01*
X103309523Y-69264342D02*
X103309523Y-68454819D01*
X104309523Y-69454819D02*
X103738095Y-69454819D01*
X104023809Y-69454819D02*
X104023809Y-68454819D01*
X104023809Y-68454819D02*
X103928571Y-68597676D01*
X103928571Y-68597676D02*
X103833333Y-68692914D01*
X103833333Y-68692914D02*
X103738095Y-68740533D01*
X109266666Y-56954819D02*
X109266666Y-57669104D01*
X109266666Y-57669104D02*
X109219047Y-57811961D01*
X109219047Y-57811961D02*
X109123809Y-57907200D01*
X109123809Y-57907200D02*
X108980952Y-57954819D01*
X108980952Y-57954819D02*
X108885714Y-57954819D01*
X109647619Y-56954819D02*
X110266666Y-56954819D01*
X110266666Y-56954819D02*
X109933333Y-57335771D01*
X109933333Y-57335771D02*
X110076190Y-57335771D01*
X110076190Y-57335771D02*
X110171428Y-57383390D01*
X110171428Y-57383390D02*
X110219047Y-57431009D01*
X110219047Y-57431009D02*
X110266666Y-57526247D01*
X110266666Y-57526247D02*
X110266666Y-57764342D01*
X110266666Y-57764342D02*
X110219047Y-57859580D01*
X110219047Y-57859580D02*
X110171428Y-57907200D01*
X110171428Y-57907200D02*
X110076190Y-57954819D01*
X110076190Y-57954819D02*
X109790476Y-57954819D01*
X109790476Y-57954819D02*
X109695238Y-57907200D01*
X109695238Y-57907200D02*
X109647619Y-57859580D01*
X117272666Y-73988819D02*
X117272666Y-74703104D01*
X117272666Y-74703104D02*
X117225047Y-74845961D01*
X117225047Y-74845961D02*
X117129809Y-74941200D01*
X117129809Y-74941200D02*
X116986952Y-74988819D01*
X116986952Y-74988819D02*
X116891714Y-74988819D01*
X117701238Y-74084057D02*
X117748857Y-74036438D01*
X117748857Y-74036438D02*
X117844095Y-73988819D01*
X117844095Y-73988819D02*
X118082190Y-73988819D01*
X118082190Y-73988819D02*
X118177428Y-74036438D01*
X118177428Y-74036438D02*
X118225047Y-74084057D01*
X118225047Y-74084057D02*
X118272666Y-74179295D01*
X118272666Y-74179295D02*
X118272666Y-74274533D01*
X118272666Y-74274533D02*
X118225047Y-74417390D01*
X118225047Y-74417390D02*
X117653619Y-74988819D01*
X117653619Y-74988819D02*
X118272666Y-74988819D01*
X102032666Y-73988819D02*
X102032666Y-74703104D01*
X102032666Y-74703104D02*
X101985047Y-74845961D01*
X101985047Y-74845961D02*
X101889809Y-74941200D01*
X101889809Y-74941200D02*
X101746952Y-74988819D01*
X101746952Y-74988819D02*
X101651714Y-74988819D01*
X103032666Y-74988819D02*
X102461238Y-74988819D01*
X102746952Y-74988819D02*
X102746952Y-73988819D01*
X102746952Y-73988819D02*
X102651714Y-74131676D01*
X102651714Y-74131676D02*
X102556476Y-74226914D01*
X102556476Y-74226914D02*
X102461238Y-74274533D01*
D11*
%TO.C,U1*%
X104840000Y-64040000D02*
X104990000Y-64040000D01*
X104840000Y-73960000D02*
X104840000Y-64040000D01*
X104840000Y-73960000D02*
X104990000Y-73960000D01*
X115010000Y-64040000D02*
X115160000Y-64040000D01*
X115010000Y-73960000D02*
X115160000Y-73960000D01*
X115160000Y-73960000D02*
X115160000Y-64040000D01*
X104990000Y-74430000D02*
X104660000Y-74670000D01*
X104660000Y-74190000D01*
X104990000Y-74430000D01*
G36*
X104990000Y-74430000D02*
G01*
X104660000Y-74670000D01*
X104660000Y-74190000D01*
X104990000Y-74430000D01*
G37*
%TO.C,J3*%
X111800000Y-56000000D02*
X112600000Y-56000000D01*
X111800000Y-56200000D02*
X111800000Y-56000000D01*
X111800000Y-59000000D02*
X111800000Y-58800000D01*
X112600000Y-56000000D02*
X112600000Y-55500000D01*
X112600000Y-59000000D02*
X111800000Y-59000000D01*
X114000000Y-56000000D02*
X114000000Y-55500000D01*
X114000000Y-56000000D02*
X114600000Y-56000000D01*
X114600000Y-56000000D02*
X114800000Y-56200000D01*
X114800000Y-58800000D02*
X114800000Y-59000000D01*
X114800000Y-59000000D02*
X114000000Y-59000000D01*
D12*
%TO.C,G\u002A\u002A\u002A*%
G36*
X108268115Y-77970098D02*
G01*
X108264524Y-77978943D01*
X108253527Y-77996085D01*
X108250574Y-78000304D01*
X108236154Y-78019403D01*
X108218361Y-78041221D01*
X108205240Y-78056324D01*
X108188144Y-78077367D01*
X108171561Y-78101144D01*
X108162090Y-78117068D01*
X108151520Y-78137059D01*
X108138112Y-78162536D01*
X108124305Y-78188863D01*
X108120498Y-78196142D01*
X108107808Y-78219439D01*
X108091055Y-78248809D01*
X108072306Y-78280696D01*
X108053625Y-78311541D01*
X108051367Y-78315195D01*
X108021821Y-78364188D01*
X107998150Y-78406844D01*
X107979220Y-78445839D01*
X107963898Y-78483844D01*
X107951048Y-78523536D01*
X107939537Y-78567587D01*
X107933942Y-78592027D01*
X107929771Y-78609509D01*
X107924273Y-78629842D01*
X107917051Y-78654287D01*
X107907707Y-78684104D01*
X107895843Y-78720556D01*
X107881063Y-78764902D01*
X107862967Y-78818404D01*
X107857452Y-78834611D01*
X107849324Y-78858470D01*
X107841194Y-78882331D01*
X107836061Y-78897398D01*
X107830256Y-78914276D01*
X107822042Y-78937968D01*
X107812791Y-78964518D01*
X107808318Y-78977308D01*
X107796612Y-79012208D01*
X107785271Y-79048689D01*
X107774883Y-79084578D01*
X107766035Y-79117703D01*
X107759317Y-79145892D01*
X107755315Y-79166974D01*
X107754445Y-79176313D01*
X107753796Y-79186019D01*
X107751613Y-79199368D01*
X107747540Y-79217869D01*
X107741222Y-79243030D01*
X107732305Y-79276360D01*
X107722560Y-79311720D01*
X107717890Y-79330722D01*
X107714976Y-79346804D01*
X107714490Y-79352587D01*
X107712749Y-79362950D01*
X107708073Y-79381069D01*
X107701281Y-79403919D01*
X107696836Y-79417726D01*
X107679182Y-79471038D01*
X107685357Y-79556656D01*
X107688294Y-79590827D01*
X107692609Y-79632528D01*
X107697874Y-79678016D01*
X107703659Y-79723550D01*
X107708632Y-79759285D01*
X107713835Y-79795762D01*
X107718409Y-79829496D01*
X107722096Y-79858452D01*
X107724640Y-79880592D01*
X107725781Y-79893877D01*
X107725819Y-79895260D01*
X107727058Y-79907641D01*
X107730399Y-79928533D01*
X107735376Y-79955322D01*
X107741523Y-79985396D01*
X107743611Y-79995060D01*
X107756051Y-80045874D01*
X107769086Y-80086743D01*
X107783269Y-80119138D01*
X107799155Y-80144529D01*
X107800649Y-80146472D01*
X107811065Y-80159793D01*
X107813892Y-80146472D01*
X107815463Y-80135021D01*
X107817302Y-80115523D01*
X107819109Y-80091329D01*
X107819885Y-80078926D01*
X107822021Y-80047918D01*
X107824841Y-80014435D01*
X107827810Y-79984701D01*
X107828459Y-79979038D01*
X107830465Y-79957971D01*
X107832607Y-79928453D01*
X107834704Y-79893442D01*
X107836574Y-79855900D01*
X107837722Y-79827780D01*
X107839005Y-79789204D01*
X107839571Y-79759704D01*
X107839298Y-79736955D01*
X107838068Y-79718631D01*
X107835759Y-79702408D01*
X107832252Y-79685961D01*
X107829909Y-79676521D01*
X107823636Y-79648580D01*
X107817475Y-79615463D01*
X107812555Y-79583365D01*
X107811700Y-79576634D01*
X107807407Y-79546804D01*
X107801793Y-79515575D01*
X107795892Y-79488543D01*
X107794319Y-79482454D01*
X107785658Y-79448109D01*
X107777613Y-79411704D01*
X107770430Y-79374913D01*
X107764356Y-79339414D01*
X107759636Y-79306883D01*
X107756518Y-79278997D01*
X107755248Y-79257431D01*
X107756071Y-79243863D01*
X107758668Y-79239870D01*
X107766453Y-79244723D01*
X107775433Y-79256980D01*
X107783286Y-79273185D01*
X107785539Y-79279825D01*
X107789783Y-79291042D01*
X107797734Y-79309457D01*
X107808053Y-79332027D01*
X107814424Y-79345465D01*
X107828403Y-79374666D01*
X107844497Y-79408450D01*
X107859970Y-79441068D01*
X107865264Y-79452272D01*
X107885497Y-79490870D01*
X107907093Y-79522621D01*
X107926329Y-79545025D01*
X107942677Y-79561664D01*
X107956762Y-79574481D01*
X107966396Y-79581549D01*
X107968656Y-79582341D01*
X107977012Y-79578489D01*
X107992540Y-79567472D01*
X108014244Y-79550100D01*
X108041127Y-79527182D01*
X108072192Y-79499529D01*
X108085357Y-79487515D01*
X108105774Y-79469460D01*
X108126319Y-79452448D01*
X108143318Y-79439494D01*
X108146901Y-79437031D01*
X108163442Y-79427933D01*
X108174684Y-79425159D01*
X108179205Y-79428329D01*
X108175584Y-79437061D01*
X108170362Y-79443304D01*
X108159559Y-79456811D01*
X108147472Y-79474741D01*
X108142820Y-79482492D01*
X108134838Y-79495111D01*
X108121392Y-79514932D01*
X108103847Y-79540006D01*
X108083565Y-79568386D01*
X108062092Y-79597873D01*
X108029144Y-79643678D01*
X108003026Y-79682758D01*
X107983024Y-79716960D01*
X107968425Y-79748126D01*
X107958517Y-79778102D01*
X107952586Y-79808732D01*
X107949919Y-79841861D01*
X107949802Y-79879333D01*
X107950029Y-79887712D01*
X107951454Y-79926943D01*
X107953372Y-79969561D01*
X107955665Y-80013762D01*
X107958218Y-80057740D01*
X107960912Y-80099694D01*
X107963630Y-80137817D01*
X107966257Y-80170307D01*
X107968674Y-80195359D01*
X107970764Y-80211169D01*
X107971132Y-80213061D01*
X107985387Y-80269423D01*
X108003395Y-80325249D01*
X108023674Y-80376178D01*
X108034116Y-80398274D01*
X108060081Y-80446530D01*
X108085730Y-80486601D01*
X108113360Y-80521416D01*
X108145272Y-80553901D01*
X108179578Y-80583589D01*
X108229429Y-80623600D01*
X108273227Y-80656995D01*
X108313124Y-80685095D01*
X108351277Y-80709218D01*
X108389838Y-80730683D01*
X108430963Y-80750809D01*
X108476806Y-80770915D01*
X108503541Y-80781928D01*
X108531837Y-80792956D01*
X108553571Y-80800021D01*
X108572520Y-80804002D01*
X108592461Y-80805778D01*
X108607771Y-80806166D01*
X108634482Y-80805700D01*
X108654231Y-80803079D01*
X108671388Y-80797531D01*
X108680546Y-80793327D01*
X108695748Y-80784677D01*
X108705522Y-80776878D01*
X108707518Y-80773349D01*
X108705244Y-80761730D01*
X108699621Y-80743411D01*
X108691995Y-80722098D01*
X108683717Y-80701495D01*
X108676135Y-80685306D01*
X108674238Y-80681931D01*
X108665751Y-80665192D01*
X108660034Y-80649373D01*
X108659900Y-80648821D01*
X108653289Y-80635866D01*
X108639863Y-80618847D01*
X108622130Y-80600289D01*
X108602599Y-80582716D01*
X108583777Y-80568654D01*
X108575338Y-80563688D01*
X108561221Y-80555490D01*
X108551889Y-80548398D01*
X108550664Y-80546926D01*
X108544465Y-80540721D01*
X108531749Y-80530171D01*
X108515477Y-80517716D01*
X108497335Y-80503003D01*
X108489277Y-80493069D01*
X108489725Y-80488643D01*
X108498755Y-80487035D01*
X108517311Y-80490854D01*
X108545522Y-80500140D01*
X108583516Y-80514932D01*
X108604081Y-80523497D01*
X108624399Y-80531841D01*
X108640744Y-80538082D01*
X108650224Y-80541128D01*
X108651171Y-80541263D01*
X108653557Y-80536009D01*
X108655349Y-80522056D01*
X108656241Y-80502119D01*
X108656287Y-80496035D01*
X108657309Y-80468280D01*
X108660065Y-80440363D01*
X108664092Y-80415202D01*
X108668926Y-80395717D01*
X108673928Y-80385021D01*
X108678049Y-80386176D01*
X108682698Y-80397587D01*
X108687597Y-80418122D01*
X108692465Y-80446649D01*
X108696286Y-80475622D01*
X108709559Y-80541271D01*
X108733209Y-80605552D01*
X108766199Y-80666854D01*
X108807493Y-80723569D01*
X108856055Y-80774085D01*
X108910849Y-80816792D01*
X108919456Y-80822371D01*
X108945503Y-80835947D01*
X108979747Y-80849679D01*
X109019020Y-80862668D01*
X109060151Y-80874018D01*
X109099971Y-80882829D01*
X109135311Y-80888204D01*
X109156228Y-80889443D01*
X109175703Y-80889443D01*
X109175703Y-80675320D01*
X109175562Y-80623495D01*
X109175157Y-80576352D01*
X109174517Y-80535038D01*
X109173667Y-80500703D01*
X109172637Y-80474494D01*
X109171453Y-80457561D01*
X109170330Y-80451286D01*
X109165862Y-80440617D01*
X109159831Y-80423207D01*
X109155001Y-80407670D01*
X109149983Y-80393531D01*
X109142637Y-80378538D01*
X109131891Y-80361041D01*
X109116669Y-80339394D01*
X109095897Y-80311949D01*
X109076183Y-80286762D01*
X109041269Y-80241272D01*
X109013070Y-80201144D01*
X108990179Y-80163719D01*
X108971187Y-80126335D01*
X108954689Y-80086333D01*
X108939277Y-80041053D01*
X108930020Y-80010431D01*
X108923401Y-79984067D01*
X108919806Y-79961643D01*
X108919397Y-79945222D01*
X108922338Y-79936866D01*
X108924168Y-79936229D01*
X108931506Y-79940988D01*
X108941500Y-79953397D01*
X108952214Y-79970654D01*
X108961714Y-79989958D01*
X108962381Y-79991550D01*
X108972503Y-80012595D01*
X108987470Y-80039398D01*
X109005667Y-80069469D01*
X109025479Y-80100319D01*
X109045292Y-80129457D01*
X109063489Y-80154393D01*
X109078458Y-80172637D01*
X109082635Y-80176980D01*
X109117111Y-80209453D01*
X109148831Y-80237378D01*
X109176810Y-80260005D01*
X109200062Y-80276582D01*
X109217599Y-80286359D01*
X109228437Y-80288585D01*
X109229010Y-80288405D01*
X109235384Y-80281522D01*
X109242718Y-80267339D01*
X109246890Y-80256355D01*
X109252522Y-80229346D01*
X109255092Y-80191852D01*
X109254632Y-80144375D01*
X109251174Y-80087416D01*
X109244749Y-80021478D01*
X109235390Y-79947065D01*
X109223128Y-79864677D01*
X109221332Y-79853465D01*
X109209804Y-79780003D01*
X109200708Y-79717402D01*
X109194019Y-79665377D01*
X109189713Y-79623641D01*
X109187764Y-79591908D01*
X109188146Y-79569892D01*
X109190836Y-79557305D01*
X109195112Y-79553802D01*
X109200111Y-79559105D01*
X109207081Y-79573926D01*
X109215543Y-79596633D01*
X109225021Y-79625594D01*
X109235036Y-79659176D01*
X109245111Y-79695748D01*
X109254767Y-79733678D01*
X109263527Y-79771334D01*
X109270913Y-79807083D01*
X109273654Y-79822072D01*
X109278587Y-79846759D01*
X109284697Y-79872659D01*
X109287275Y-79882285D01*
X109302444Y-79947881D01*
X109313738Y-80023479D01*
X109321048Y-80108308D01*
X109322312Y-80132407D01*
X109322386Y-80173109D01*
X109319469Y-80223126D01*
X109313732Y-80280808D01*
X109305343Y-80344499D01*
X109294472Y-80412548D01*
X109292342Y-80424696D01*
X109289602Y-80446910D01*
X109287395Y-80478192D01*
X109285738Y-80516208D01*
X109284647Y-80558623D01*
X109284138Y-80603101D01*
X109284227Y-80647308D01*
X109284930Y-80688909D01*
X109286263Y-80725568D01*
X109288243Y-80754951D01*
X109289966Y-80769577D01*
X109294922Y-80793170D01*
X109302806Y-80821722D01*
X109312062Y-80849697D01*
X109313730Y-80854181D01*
X109322679Y-80876503D01*
X109331219Y-80893413D01*
X109341620Y-80908122D01*
X109356152Y-80923842D01*
X109377045Y-80943747D01*
X109401746Y-80965119D01*
X109433585Y-80990329D01*
X109469871Y-81017407D01*
X109507910Y-81044387D01*
X109545013Y-81069302D01*
X109572429Y-81086556D01*
X109588126Y-81096904D01*
X109601228Y-81106904D01*
X109602429Y-81107961D01*
X109612855Y-81115457D01*
X109619240Y-81117757D01*
X109627552Y-81121704D01*
X109632332Y-81126319D01*
X109640169Y-81133578D01*
X109646782Y-81132288D01*
X109654816Y-81121584D01*
X109656787Y-81118303D01*
X109664468Y-81095625D01*
X109666500Y-81063468D01*
X109662904Y-81022263D01*
X109653699Y-80972439D01*
X109648956Y-80952229D01*
X109636878Y-80901342D01*
X109626811Y-80855075D01*
X109618899Y-80814389D01*
X109613289Y-80780241D01*
X109610125Y-80753593D01*
X109609552Y-80735402D01*
X109611716Y-80726629D01*
X109614772Y-80726499D01*
X109619351Y-80733378D01*
X109625512Y-80747601D01*
X109629781Y-80759656D01*
X109635106Y-80774825D01*
X109643779Y-80798176D01*
X109654882Y-80827297D01*
X109667498Y-80859780D01*
X109678073Y-80886589D01*
X109691276Y-80920165D01*
X109703720Y-80952447D01*
X109714477Y-80980985D01*
X109722623Y-81003328D01*
X109726611Y-81015016D01*
X109733515Y-81036174D01*
X109738516Y-81047914D01*
X109743185Y-81051693D01*
X109749093Y-81048967D01*
X109756336Y-81042557D01*
X109765911Y-81032429D01*
X109780758Y-81015230D01*
X109799253Y-80992983D01*
X109819772Y-80967715D01*
X109840691Y-80941451D01*
X109860386Y-80916215D01*
X109877233Y-80894034D01*
X109889607Y-80876932D01*
X109892076Y-80873289D01*
X109904889Y-80856941D01*
X109914898Y-80850202D01*
X109921315Y-80853278D01*
X109923372Y-80865184D01*
X109919820Y-80890291D01*
X109910005Y-80921796D01*
X109894940Y-80957301D01*
X109875637Y-80994408D01*
X109854078Y-81029285D01*
X109843971Y-81045631D01*
X109830596Y-81069117D01*
X109815686Y-81096620D01*
X109800971Y-81125017D01*
X109800793Y-81125370D01*
X109786362Y-81154598D01*
X109776598Y-81176368D01*
X109770631Y-81193206D01*
X109767593Y-81207637D01*
X109766612Y-81222187D01*
X109766588Y-81224711D01*
X109766961Y-81243071D01*
X109769206Y-81253329D01*
X109774748Y-81258790D01*
X109782644Y-81261970D01*
X109793716Y-81264403D01*
X109802371Y-81261309D01*
X109812741Y-81250938D01*
X109815038Y-81248247D01*
X109825297Y-81236675D01*
X109831376Y-81232947D01*
X109836346Y-81236088D01*
X109839728Y-81240400D01*
X109846433Y-81248042D01*
X109852285Y-81247501D01*
X109859919Y-81241135D01*
X109872074Y-81234225D01*
X109880904Y-81234086D01*
X109889106Y-81233225D01*
X109895866Y-81222478D01*
X109896638Y-81220508D01*
X109902075Y-81208710D01*
X109906467Y-81203399D01*
X109906662Y-81203375D01*
X109911377Y-81207900D01*
X109918643Y-81219132D01*
X109920665Y-81222770D01*
X109931109Y-81242164D01*
X109940887Y-81230090D01*
X109949126Y-81222084D01*
X109956167Y-81222911D01*
X109959880Y-81225664D01*
X109969988Y-81230186D01*
X109976555Y-81227123D01*
X109984240Y-81224781D01*
X109992084Y-81232131D01*
X110001006Y-81240860D01*
X110007163Y-81243330D01*
X110015701Y-81246938D01*
X110027571Y-81255800D01*
X110029568Y-81257600D01*
X110041694Y-81267073D01*
X110051429Y-81271761D01*
X110052472Y-81271870D01*
X110062864Y-81276439D01*
X110073832Y-81287289D01*
X110081640Y-81300129D01*
X110083254Y-81307193D01*
X110085741Y-81315869D01*
X110088687Y-81317532D01*
X110095627Y-81313637D01*
X110106740Y-81304022D01*
X110118960Y-81291793D01*
X110129219Y-81280058D01*
X110134451Y-81271923D01*
X110134624Y-81270994D01*
X110139212Y-81266609D01*
X110142522Y-81266162D01*
X110150494Y-81262191D01*
X110162588Y-81251978D01*
X110171595Y-81242723D01*
X110185937Y-81228731D01*
X110195674Y-81224744D01*
X110201972Y-81231183D01*
X110205996Y-81248469D01*
X110206893Y-81255482D01*
X110209271Y-81272853D01*
X110211749Y-81286179D01*
X110212458Y-81288833D01*
X110216183Y-81293607D01*
X110220072Y-81290090D01*
X110222733Y-81281303D01*
X110222771Y-81270264D01*
X110222240Y-81267636D01*
X110221785Y-81257763D01*
X110228970Y-81254786D01*
X110230839Y-81254746D01*
X110242913Y-81250134D01*
X110248581Y-81243705D01*
X110253667Y-81225542D01*
X110254385Y-81201897D01*
X110251042Y-81177704D01*
X110243951Y-81157895D01*
X110243095Y-81156423D01*
X110235634Y-81142409D01*
X110231810Y-81131758D01*
X110231679Y-81130462D01*
X110228625Y-81122044D01*
X110220768Y-81107945D01*
X110213108Y-81096114D01*
X110203541Y-81080801D01*
X110190514Y-81058096D01*
X110175612Y-81030846D01*
X110160421Y-81001899D01*
X110157663Y-80996502D01*
X110120769Y-80923965D01*
X110118471Y-80866749D01*
X110117788Y-80838060D01*
X110118534Y-80819734D01*
X110120781Y-80810798D01*
X110122724Y-80809532D01*
X110129897Y-80814189D01*
X110132794Y-80819521D01*
X110138482Y-80830776D01*
X110147707Y-80845009D01*
X110148883Y-80846634D01*
X110158834Y-80862391D01*
X110169467Y-80882443D01*
X110173597Y-80891307D01*
X110181579Y-80906865D01*
X110193258Y-80926494D01*
X110207219Y-80948174D01*
X110222052Y-80969887D01*
X110236343Y-80989613D01*
X110248679Y-81005332D01*
X110257650Y-81015026D01*
X110261543Y-81017038D01*
X110264461Y-81010068D01*
X110265879Y-80996537D01*
X110265905Y-80994344D01*
X110267694Y-80978051D01*
X110272329Y-80956397D01*
X110277275Y-80939029D01*
X110290598Y-80897778D01*
X110301194Y-80865358D01*
X110309772Y-80839715D01*
X110317037Y-80818795D01*
X110323698Y-80800540D01*
X110330460Y-80782898D01*
X110334590Y-80772431D01*
X110344102Y-80748192D01*
X110353991Y-80722476D01*
X110363388Y-80697609D01*
X110371426Y-80675916D01*
X110377233Y-80659720D01*
X110379944Y-80651348D01*
X110380038Y-80650802D01*
X110383815Y-80651466D01*
X110385771Y-80652566D01*
X110390116Y-80659876D01*
X110391026Y-80674885D01*
X110388419Y-80698400D01*
X110382215Y-80731229D01*
X110374409Y-80765572D01*
X110366582Y-80800485D01*
X110358794Y-80838924D01*
X110352077Y-80875598D01*
X110348347Y-80898894D01*
X110344048Y-80926857D01*
X110339617Y-80952986D01*
X110335671Y-80973754D01*
X110333565Y-80983079D01*
X110330903Y-81001977D01*
X110330590Y-81025213D01*
X110331508Y-81037304D01*
X110335731Y-81059680D01*
X110343950Y-81077528D01*
X110357149Y-81094881D01*
X110379057Y-81120521D01*
X110406504Y-81107186D01*
X110426303Y-81096465D01*
X110444809Y-81084685D01*
X110451243Y-81079899D01*
X110463158Y-81071021D01*
X110481860Y-81057922D01*
X110504530Y-81042547D01*
X110522751Y-81030493D01*
X110557673Y-81005777D01*
X110591445Y-80978433D01*
X110622246Y-80950215D01*
X110648257Y-80922876D01*
X110667656Y-80898171D01*
X110677050Y-80881807D01*
X110686898Y-80852295D01*
X110695101Y-80812785D01*
X110701606Y-80764588D01*
X110706356Y-80709010D01*
X110709296Y-80647359D01*
X110710371Y-80580945D01*
X110709524Y-80511074D01*
X110706701Y-80439055D01*
X110701846Y-80366196D01*
X110699889Y-80343307D01*
X110694562Y-80267262D01*
X110692205Y-80192031D01*
X110692761Y-80119682D01*
X110696173Y-80052283D01*
X110702383Y-79991903D01*
X110711038Y-79941937D01*
X110717728Y-79910758D01*
X110724782Y-79876542D01*
X110730908Y-79845596D01*
X110732126Y-79839195D01*
X110737312Y-79814976D01*
X110745136Y-79782586D01*
X110754860Y-79744761D01*
X110765743Y-79704234D01*
X110777045Y-79663739D01*
X110788025Y-79626011D01*
X110797943Y-79593783D01*
X110801577Y-79582657D01*
X110809438Y-79561532D01*
X110815546Y-79550828D01*
X110820041Y-79550735D01*
X110823066Y-79561444D01*
X110824762Y-79583145D01*
X110825269Y-79614686D01*
X110824434Y-79653631D01*
X110821526Y-79686702D01*
X110815928Y-79719351D01*
X110810895Y-79741530D01*
X110794234Y-79819696D01*
X110780948Y-79901475D01*
X110771556Y-79982841D01*
X110766576Y-80059769D01*
X110765922Y-80090341D01*
X110766346Y-80113514D01*
X110767729Y-80142578D01*
X110769860Y-80175158D01*
X110772533Y-80208877D01*
X110775539Y-80241357D01*
X110778670Y-80270221D01*
X110781717Y-80293093D01*
X110784472Y-80307595D01*
X110785153Y-80309805D01*
X110787580Y-80313013D01*
X110792074Y-80312526D01*
X110799732Y-80307444D01*
X110811651Y-80296869D01*
X110828929Y-80279901D01*
X110852661Y-80255640D01*
X110858134Y-80249984D01*
X110883476Y-80223574D01*
X110902504Y-80202914D01*
X110916924Y-80185630D01*
X110928442Y-80169347D01*
X110938762Y-80151692D01*
X110949592Y-80130288D01*
X110960287Y-80107766D01*
X110987070Y-80051510D01*
X111010795Y-80003250D01*
X111031217Y-79963443D01*
X111048091Y-79932543D01*
X111061172Y-79911008D01*
X111070217Y-79899291D01*
X111073392Y-79897196D01*
X111078166Y-79897410D01*
X111080762Y-79901889D01*
X111081534Y-79912787D01*
X111080833Y-79932261D01*
X111080394Y-79940005D01*
X111074776Y-79987998D01*
X111063079Y-80039083D01*
X111044666Y-80096049D01*
X111036429Y-80120248D01*
X111028807Y-80144967D01*
X111024456Y-80160935D01*
X111017247Y-80180141D01*
X111003785Y-80206056D01*
X110985161Y-80236655D01*
X110976744Y-80249407D01*
X110941799Y-80302364D01*
X110913064Y-80348551D01*
X110889421Y-80389950D01*
X110869751Y-80428542D01*
X110852934Y-80466310D01*
X110849321Y-80475165D01*
X110823934Y-80538409D01*
X110821433Y-80692521D01*
X110820716Y-80742774D01*
X110820501Y-80782807D01*
X110820980Y-80813810D01*
X110822345Y-80836976D01*
X110824786Y-80853496D01*
X110828494Y-80864561D01*
X110833662Y-80871363D01*
X110840481Y-80875092D01*
X110849141Y-80876940D01*
X110851094Y-80877187D01*
X110872512Y-80876906D01*
X110901933Y-80872580D01*
X110936972Y-80864901D01*
X110975243Y-80854558D01*
X111014360Y-80842240D01*
X111051939Y-80828637D01*
X111085595Y-80814440D01*
X111109011Y-80802602D01*
X111133977Y-80785121D01*
X111162359Y-80759396D01*
X111192289Y-80727304D01*
X111221897Y-80690720D01*
X111226040Y-80685171D01*
X111242116Y-80658412D01*
X111258174Y-80622698D01*
X111273536Y-80580469D01*
X111287521Y-80534165D01*
X111299451Y-80486227D01*
X111308646Y-80439097D01*
X111314428Y-80395214D01*
X111316153Y-80361345D01*
X111317302Y-80333401D01*
X111320421Y-80307722D01*
X111325011Y-80286609D01*
X111330575Y-80272364D01*
X111336468Y-80267285D01*
X111340272Y-80272792D01*
X111343629Y-80288515D01*
X111346432Y-80313260D01*
X111348578Y-80345835D01*
X111349962Y-80385044D01*
X111350476Y-80427105D01*
X111351172Y-80456592D01*
X111352943Y-80484858D01*
X111355498Y-80508202D01*
X111357762Y-80520283D01*
X111364904Y-80547820D01*
X111380012Y-80535936D01*
X111396158Y-80524559D01*
X111416303Y-80512195D01*
X111437487Y-80500441D01*
X111456750Y-80490893D01*
X111471131Y-80485146D01*
X111475987Y-80484184D01*
X111484016Y-80487215D01*
X111483073Y-80495761D01*
X111473681Y-80508997D01*
X111456364Y-80526101D01*
X111441280Y-80538765D01*
X111423176Y-80553948D01*
X111409055Y-80568166D01*
X111396646Y-80584331D01*
X111383676Y-80605359D01*
X111369997Y-80630196D01*
X111355389Y-80658279D01*
X111341227Y-80686980D01*
X111329363Y-80712465D01*
X111323013Y-80727355D01*
X111308433Y-80764104D01*
X111327578Y-80783857D01*
X111347306Y-80800188D01*
X111369535Y-80810223D01*
X111395380Y-80813866D01*
X111425953Y-80811019D01*
X111462367Y-80801585D01*
X111505736Y-80785467D01*
X111553873Y-80764119D01*
X111604792Y-80737217D01*
X111659833Y-80702708D01*
X111716575Y-80662339D01*
X111772594Y-80617855D01*
X111825468Y-80571005D01*
X111836944Y-80560063D01*
X111871760Y-80521173D01*
X111905407Y-80473786D01*
X111936108Y-80420805D01*
X111962084Y-80365134D01*
X111971740Y-80340027D01*
X111978478Y-80322020D01*
X111988148Y-80297218D01*
X111999278Y-80269362D01*
X112007101Y-80250162D01*
X112018225Y-80222269D01*
X112025557Y-80200671D01*
X112030020Y-80181266D01*
X112032538Y-80159952D01*
X112034035Y-80132627D01*
X112034135Y-80130133D01*
X112034474Y-80097538D01*
X112033333Y-80062049D01*
X112030949Y-80029613D01*
X112029701Y-80018829D01*
X112026767Y-79993250D01*
X112023670Y-79960315D01*
X112020759Y-79924075D01*
X112018383Y-79888578D01*
X112018167Y-79884858D01*
X112013205Y-79822782D01*
X112005601Y-79770008D01*
X111994762Y-79724606D01*
X111980096Y-79684649D01*
X111961011Y-79648207D01*
X111936914Y-79613353D01*
X111933408Y-79608869D01*
X111918381Y-79588945D01*
X111904980Y-79569524D01*
X111895947Y-79554597D01*
X111895539Y-79553802D01*
X111886453Y-79537546D01*
X111872666Y-79514907D01*
X111856079Y-79488816D01*
X111838592Y-79462203D01*
X111822108Y-79437999D01*
X111808528Y-79419133D01*
X111806120Y-79415992D01*
X111796380Y-79402224D01*
X111790597Y-79391587D01*
X111789905Y-79388880D01*
X111793602Y-79383067D01*
X111802536Y-79384258D01*
X111813475Y-79391800D01*
X111815666Y-79394065D01*
X111826721Y-79403976D01*
X111842783Y-79415887D01*
X111850788Y-79421177D01*
X111864954Y-79431119D01*
X111874048Y-79439401D01*
X111875821Y-79442499D01*
X111880262Y-79447464D01*
X111892166Y-79457691D01*
X111909716Y-79471795D01*
X111931093Y-79488390D01*
X111954481Y-79506090D01*
X111978062Y-79523511D01*
X112000018Y-79539266D01*
X112018532Y-79551970D01*
X112024503Y-79555847D01*
X112044282Y-79564094D01*
X112063262Y-79562494D01*
X112082570Y-79550637D01*
X112103335Y-79528109D01*
X112104514Y-79526588D01*
X112119251Y-79505774D01*
X112132598Y-79484089D01*
X112140748Y-79468184D01*
X112151169Y-79446926D01*
X112163963Y-79424610D01*
X112168191Y-79418032D01*
X112180334Y-79397023D01*
X112191036Y-79373826D01*
X112193701Y-79366661D01*
X112201331Y-79348399D01*
X112212944Y-79325341D01*
X112226162Y-79302173D01*
X112227531Y-79299950D01*
X112252242Y-79260142D01*
X112251913Y-79285680D01*
X112250139Y-79304629D01*
X112245831Y-79328911D01*
X112240470Y-79351173D01*
X112233390Y-79378660D01*
X112226165Y-79409922D01*
X112221195Y-79433954D01*
X112216537Y-79455469D01*
X112209477Y-79484491D01*
X112200885Y-79517588D01*
X112191634Y-79551330D01*
X112189303Y-79559527D01*
X112165571Y-79642274D01*
X112164671Y-79901982D01*
X112163771Y-80161690D01*
X112178315Y-80144566D01*
X112187055Y-80130825D01*
X112197775Y-80108873D01*
X112209408Y-80081502D01*
X112220889Y-80051501D01*
X112231151Y-80021663D01*
X112239128Y-79994778D01*
X112243754Y-79973637D01*
X112243837Y-79973073D01*
X112246544Y-79958330D01*
X112251542Y-79934936D01*
X112258285Y-79905299D01*
X112266227Y-79871825D01*
X112273539Y-79842049D01*
X112299181Y-79739308D01*
X112302016Y-79605173D01*
X112302395Y-79515196D01*
X112299190Y-79433528D01*
X112291917Y-79357537D01*
X112280090Y-79284591D01*
X112263223Y-79212061D01*
X112240830Y-79137314D01*
X112212425Y-79057720D01*
X112190856Y-79002993D01*
X112167290Y-78943638D01*
X112147140Y-78890132D01*
X112130938Y-78843935D01*
X112119217Y-78806510D01*
X112119092Y-78806072D01*
X112110416Y-78777901D01*
X112100276Y-78748335D01*
X112090684Y-78723204D01*
X112089534Y-78720454D01*
X112080963Y-78699121D01*
X112070379Y-78671136D01*
X112059344Y-78640690D01*
X112052327Y-78620566D01*
X112040291Y-78586944D01*
X112025945Y-78549201D01*
X112011593Y-78513326D01*
X112005086Y-78497847D01*
X111991440Y-78466021D01*
X111976341Y-78430664D01*
X111962172Y-78397365D01*
X111956106Y-78383054D01*
X111944045Y-78356100D01*
X111931053Y-78329551D01*
X111919166Y-78307482D01*
X111914198Y-78299281D01*
X111893938Y-78266941D01*
X111880416Y-78243847D01*
X111904063Y-78243847D01*
X111906917Y-78246701D01*
X111909771Y-78243847D01*
X111906917Y-78240993D01*
X111904063Y-78243847D01*
X111880416Y-78243847D01*
X111876378Y-78236950D01*
X111862362Y-78210909D01*
X111852731Y-78190421D01*
X111848330Y-78177087D01*
X111848247Y-78173991D01*
X111851129Y-78170593D01*
X111857427Y-78175332D01*
X111868175Y-78189048D01*
X111870082Y-78191717D01*
X111885370Y-78213220D01*
X111895045Y-78226455D01*
X111900124Y-78232449D01*
X111901623Y-78232229D01*
X111900559Y-78226820D01*
X111898932Y-78220853D01*
X111893241Y-78204701D01*
X111884851Y-78185495D01*
X111882097Y-78179905D01*
X111874333Y-78162746D01*
X111865030Y-78139392D01*
X111856050Y-78114546D01*
X111855044Y-78111573D01*
X111846956Y-78088462D01*
X111839117Y-78067754D01*
X111832998Y-78053297D01*
X111832108Y-78051490D01*
X111826772Y-78035058D01*
X111824523Y-78015878D01*
X111824530Y-78014389D01*
X111825141Y-78008958D01*
X111827076Y-78007612D01*
X111830864Y-78011241D01*
X111837035Y-78020735D01*
X111846118Y-78036983D01*
X111858642Y-78060874D01*
X111875137Y-78093300D01*
X111894830Y-78132544D01*
X111914651Y-78171966D01*
X111934152Y-78210349D01*
X111952358Y-78245804D01*
X111968295Y-78276445D01*
X111980989Y-78300383D01*
X111988632Y-78314279D01*
X111999504Y-78333634D01*
X112007785Y-78348911D01*
X112012152Y-78357649D01*
X112012512Y-78358721D01*
X112014855Y-78364514D01*
X112021278Y-78378618D01*
X112030869Y-78399076D01*
X112042720Y-78423930D01*
X112046115Y-78430985D01*
X112072737Y-78486267D01*
X112094839Y-78532284D01*
X112112894Y-78570037D01*
X112127371Y-78600530D01*
X112138744Y-78624763D01*
X112147482Y-78643739D01*
X112154058Y-78658459D01*
X112158944Y-78669925D01*
X112161280Y-78675712D01*
X112173294Y-78704399D01*
X112185103Y-78729419D01*
X112195823Y-78749207D01*
X112204573Y-78762194D01*
X112210470Y-78766814D01*
X112211961Y-78765740D01*
X112213700Y-78754815D01*
X112213262Y-78734919D01*
X112210862Y-78708239D01*
X112206715Y-78676968D01*
X112201035Y-78643294D01*
X112198851Y-78631982D01*
X112194063Y-78606958D01*
X112188286Y-78575251D01*
X112182346Y-78541449D01*
X112178335Y-78517825D01*
X112172227Y-78482537D01*
X112164844Y-78441956D01*
X112157271Y-78401958D01*
X112152545Y-78377982D01*
X112145241Y-78339282D01*
X112140490Y-78308579D01*
X112138354Y-78286597D01*
X112138896Y-78274061D01*
X112142181Y-78271694D01*
X112143338Y-78272672D01*
X112148227Y-78281252D01*
X112155161Y-78297722D01*
X112163019Y-78319006D01*
X112170683Y-78342023D01*
X112177034Y-78363698D01*
X112178502Y-78369420D01*
X112182342Y-78383273D01*
X112188925Y-78405199D01*
X112197404Y-78432439D01*
X112206928Y-78462230D01*
X112209227Y-78469308D01*
X112218759Y-78499590D01*
X112227190Y-78528303D01*
X112233719Y-78552580D01*
X112237544Y-78569556D01*
X112237946Y-78572049D01*
X112242172Y-78594732D01*
X112248104Y-78618571D01*
X112249548Y-78623420D01*
X112263218Y-78669324D01*
X112273981Y-78709691D01*
X112281335Y-78742559D01*
X112283859Y-78757555D01*
X112291984Y-78806431D01*
X112303323Y-78860424D01*
X112316664Y-78914131D01*
X112327125Y-78950547D01*
X112336981Y-78981484D01*
X112348109Y-79014681D01*
X112359864Y-79048401D01*
X112371601Y-79080909D01*
X112382677Y-79110469D01*
X112392446Y-79135345D01*
X112400264Y-79153803D01*
X112405486Y-79164105D01*
X112407009Y-79165667D01*
X112414112Y-79160686D01*
X112426007Y-79146126D01*
X112442274Y-79122567D01*
X112462493Y-79090587D01*
X112467488Y-79082382D01*
X112488887Y-79048114D01*
X112505740Y-79023653D01*
X112518433Y-79008513D01*
X112527356Y-79002209D01*
X112531241Y-79002569D01*
X112534936Y-79010636D01*
X112537017Y-79027746D01*
X112537545Y-79051652D01*
X112536584Y-79080105D01*
X112534197Y-79110858D01*
X112530446Y-79141661D01*
X112526741Y-79163624D01*
X112521888Y-79193353D01*
X112517364Y-79229336D01*
X112513760Y-79266413D01*
X112512051Y-79291240D01*
X112508636Y-79343397D01*
X112504185Y-79392815D01*
X112499007Y-79436408D01*
X112494495Y-79465330D01*
X112491404Y-79482454D01*
X112501677Y-79465330D01*
X112511950Y-79448207D01*
X112513684Y-79466026D01*
X112512780Y-79481002D01*
X112508659Y-79501568D01*
X112503696Y-79518643D01*
X112497376Y-79540549D01*
X112493120Y-79561323D01*
X112491973Y-79573245D01*
X112490398Y-79591060D01*
X112486271Y-79615515D01*
X112480489Y-79642369D01*
X112473946Y-79667380D01*
X112468706Y-79683374D01*
X112464726Y-79696678D01*
X112459830Y-79717016D01*
X112455028Y-79740171D01*
X112454684Y-79741991D01*
X112450641Y-79762420D01*
X112445887Y-79784040D01*
X112439925Y-79808860D01*
X112432258Y-79838885D01*
X112422390Y-79876123D01*
X112411544Y-79916252D01*
X112404044Y-79947751D01*
X112397845Y-79981253D01*
X112393330Y-80013789D01*
X112390884Y-80042387D01*
X112390893Y-80064078D01*
X112391630Y-80069945D01*
X112400190Y-80089183D01*
X112419348Y-80111528D01*
X112423370Y-80115373D01*
X112451529Y-80141712D01*
X112515987Y-80141637D01*
X112578684Y-80138603D01*
X112634669Y-80130296D01*
X112663720Y-80125020D01*
X112691570Y-80121303D01*
X112716072Y-80119280D01*
X112735080Y-80119085D01*
X112746449Y-80120852D01*
X112748724Y-80123162D01*
X112744227Y-80129882D01*
X112732700Y-80140560D01*
X112716800Y-80153111D01*
X112699180Y-80165449D01*
X112682497Y-80175490D01*
X112681261Y-80176143D01*
X112667190Y-80181906D01*
X112644743Y-80189296D01*
X112616687Y-80197475D01*
X112585794Y-80205603D01*
X112576368Y-80207911D01*
X112540672Y-80216490D01*
X112502568Y-80225650D01*
X112466451Y-80234334D01*
X112436715Y-80241485D01*
X112434896Y-80241922D01*
X112406419Y-80249385D01*
X112378666Y-80257708D01*
X112355657Y-80265639D01*
X112345855Y-80269665D01*
X112319612Y-80285230D01*
X112290766Y-80308129D01*
X112262113Y-80335635D01*
X112236452Y-80365025D01*
X112216579Y-80393575D01*
X112214034Y-80398045D01*
X112190904Y-80439587D01*
X112172044Y-80471975D01*
X112156761Y-80496333D01*
X112144361Y-80513789D01*
X112138135Y-80521285D01*
X112128099Y-80533907D01*
X112116233Y-80550853D01*
X112104377Y-80569202D01*
X112094372Y-80586036D01*
X112088058Y-80598436D01*
X112086805Y-80602708D01*
X112091427Y-80607124D01*
X112103973Y-80616128D01*
X112122574Y-80628443D01*
X112145358Y-80642795D01*
X112147324Y-80644004D01*
X112176987Y-80662964D01*
X112199241Y-80679284D01*
X112216937Y-80695331D01*
X112232926Y-80713471D01*
X112236676Y-80718207D01*
X112254812Y-80740696D01*
X112274703Y-80764183D01*
X112292084Y-80783631D01*
X112292286Y-80783847D01*
X112310247Y-80803851D01*
X112330349Y-80827420D01*
X112345985Y-80846634D01*
X112358407Y-80861506D01*
X112377027Y-80882671D01*
X112400111Y-80908213D01*
X112425925Y-80936214D01*
X112452734Y-80964757D01*
X112455317Y-80967477D01*
X112485570Y-80999579D01*
X112508306Y-81024410D01*
X112524125Y-81042723D01*
X112533629Y-81055273D01*
X112537419Y-81062812D01*
X112536094Y-81066095D01*
X112534154Y-81066386D01*
X112527678Y-81063892D01*
X112514226Y-81057384D01*
X112498480Y-81049206D01*
X112475139Y-81035442D01*
X112449379Y-81017569D01*
X112420147Y-80994726D01*
X112386390Y-80966052D01*
X112347055Y-80930685D01*
X112301088Y-80887762D01*
X112300418Y-80887128D01*
X112256226Y-80846030D01*
X112218151Y-80812782D01*
X112184660Y-80786763D01*
X112154219Y-80767350D01*
X112125294Y-80753922D01*
X112096353Y-80745857D01*
X112065861Y-80742533D01*
X112032285Y-80743328D01*
X111994091Y-80747620D01*
X111966849Y-80751860D01*
X111954129Y-80754750D01*
X111937629Y-80759970D01*
X111916469Y-80767899D01*
X111889764Y-80778915D01*
X111856632Y-80793398D01*
X111816192Y-80811727D01*
X111767559Y-80834281D01*
X111709852Y-80861439D01*
X111691093Y-80870326D01*
X111647343Y-80890788D01*
X111611911Y-80906600D01*
X111583009Y-80918415D01*
X111558847Y-80926889D01*
X111537635Y-80932674D01*
X111517584Y-80936427D01*
X111506410Y-80937860D01*
X111478758Y-80941329D01*
X111449053Y-80945939D01*
X111414591Y-80952159D01*
X111372668Y-80960455D01*
X111356108Y-80963859D01*
X111318967Y-80971118D01*
X111270524Y-80979858D01*
X111210794Y-80990077D01*
X111139792Y-81001772D01*
X111058103Y-81014850D01*
X111013909Y-81022239D01*
X110968616Y-81030518D01*
X110924237Y-81039260D01*
X110882784Y-81048035D01*
X110846269Y-81056416D01*
X110816705Y-81063974D01*
X110796104Y-81070281D01*
X110793883Y-81071103D01*
X110779928Y-81077857D01*
X110758734Y-81089873D01*
X110732415Y-81105871D01*
X110703086Y-81124569D01*
X110676174Y-81142437D01*
X110637933Y-81168956D01*
X110605674Y-81192996D01*
X110576140Y-81217248D01*
X110546072Y-81244404D01*
X110512215Y-81277157D01*
X110507412Y-81281919D01*
X110481247Y-81307662D01*
X110456311Y-81331717D01*
X110434303Y-81352484D01*
X110416920Y-81368362D01*
X110405858Y-81377749D01*
X110405787Y-81377803D01*
X110383755Y-81394589D01*
X110409021Y-81398194D01*
X110433637Y-81399462D01*
X110466844Y-81397933D01*
X110506263Y-81393967D01*
X110549516Y-81387924D01*
X110594224Y-81380164D01*
X110638007Y-81371047D01*
X110678487Y-81360932D01*
X110702557Y-81353783D01*
X110731363Y-81343752D01*
X110762200Y-81331738D01*
X110792785Y-81318771D01*
X110820831Y-81305885D01*
X110844055Y-81294112D01*
X110860171Y-81284485D01*
X110865484Y-81280163D01*
X110876619Y-81270532D01*
X110885770Y-81266183D01*
X110886204Y-81266162D01*
X110892817Y-81270098D01*
X110892845Y-81280649D01*
X110887318Y-81295929D01*
X110877270Y-81314052D01*
X110863733Y-81333130D01*
X110847739Y-81351279D01*
X110831853Y-81365450D01*
X110813798Y-81379934D01*
X110797974Y-81393589D01*
X110788175Y-81403079D01*
X110777085Y-81412311D01*
X110759653Y-81423585D01*
X110742512Y-81432975D01*
X110719535Y-81445345D01*
X110696203Y-81459248D01*
X110682579Y-81468221D01*
X110649696Y-81490149D01*
X110624287Y-81504293D01*
X110605774Y-81510958D01*
X110599843Y-81511600D01*
X110587271Y-81512740D01*
X110566721Y-81516267D01*
X110537416Y-81522342D01*
X110498580Y-81531124D01*
X110454733Y-81541500D01*
X110423107Y-81550204D01*
X110400167Y-81559803D01*
X110383217Y-81572091D01*
X110369562Y-81588860D01*
X110360576Y-81604122D01*
X110349651Y-81624413D01*
X110365041Y-81650675D01*
X110377241Y-81667142D01*
X110395410Y-81686568D01*
X110416152Y-81705380D01*
X110419834Y-81708375D01*
X110442740Y-81727032D01*
X110456992Y-81739754D01*
X110463172Y-81747314D01*
X110461862Y-81750485D01*
X110453645Y-81750040D01*
X110450795Y-81749499D01*
X110434604Y-81746289D01*
X110414391Y-81742395D01*
X110408393Y-81741260D01*
X110391087Y-81737334D01*
X110377987Y-81733184D01*
X110375004Y-81731754D01*
X110370366Y-81730151D01*
X110372450Y-81736305D01*
X110373627Y-81738554D01*
X110382253Y-81749248D01*
X110388466Y-81753333D01*
X110395626Y-81761124D01*
X110397186Y-81768383D01*
X110395237Y-81776583D01*
X110387233Y-81777459D01*
X110382917Y-81776506D01*
X110371409Y-81775011D01*
X110369382Y-81777623D01*
X110376474Y-81782661D01*
X110384984Y-81786158D01*
X110399256Y-81795209D01*
X110408062Y-81806649D01*
X110414803Y-81821444D01*
X110388185Y-81817795D01*
X110372539Y-81816064D01*
X110366173Y-81816908D01*
X110367148Y-81820780D01*
X110368417Y-81822402D01*
X110378205Y-81829537D01*
X110393403Y-81836395D01*
X110396216Y-81837346D01*
X110414587Y-81844121D01*
X110421683Y-81849131D01*
X110417502Y-81852395D01*
X110402038Y-81853934D01*
X110392620Y-81854072D01*
X110374221Y-81854793D01*
X110361424Y-81856673D01*
X110357231Y-81858986D01*
X110361849Y-81864239D01*
X110373658Y-81872283D01*
X110382917Y-81877527D01*
X110400628Y-81888011D01*
X110407673Y-81895139D01*
X110404205Y-81899187D01*
X110395759Y-81900329D01*
X110393052Y-81901939D01*
X110400213Y-81905563D01*
X110411456Y-81909225D01*
X110441287Y-81918485D01*
X110460600Y-81925914D01*
X110470097Y-81931807D01*
X110471388Y-81934452D01*
X110466113Y-81936774D01*
X110452018Y-81938894D01*
X110431697Y-81940472D01*
X110421887Y-81940894D01*
X110372386Y-81942544D01*
X110408419Y-81961094D01*
X110428456Y-81970456D01*
X110446264Y-81977123D01*
X110457921Y-81979645D01*
X110468261Y-81981466D01*
X110471388Y-81984687D01*
X110476139Y-81990016D01*
X110482804Y-81992714D01*
X110491659Y-81998547D01*
X110493876Y-82006761D01*
X110489156Y-82012902D01*
X110484231Y-82013806D01*
X110472689Y-82011875D01*
X110456275Y-82007173D01*
X110451411Y-82005495D01*
X110432450Y-82000077D01*
X110414674Y-81997161D01*
X110411732Y-81997019D01*
X110403685Y-81997415D01*
X110403362Y-81999603D01*
X110411728Y-82004565D01*
X110426002Y-82011509D01*
X110458862Y-82027310D01*
X110482325Y-82039193D01*
X110497469Y-82047768D01*
X110505377Y-82053645D01*
X110507159Y-82057329D01*
X110501238Y-82060448D01*
X110487119Y-82063541D01*
X110470058Y-82065705D01*
X110451596Y-82067486D01*
X110443922Y-82068588D01*
X110446449Y-82069294D01*
X110458588Y-82069888D01*
X110461206Y-82069985D01*
X110479865Y-82072368D01*
X110499105Y-82077447D01*
X110515667Y-82084018D01*
X110526291Y-82090873D01*
X110528467Y-82094859D01*
X110523317Y-82097488D01*
X110510089Y-82099253D01*
X110498501Y-82099684D01*
X110481800Y-82100107D01*
X110474984Y-82101504D01*
X110476530Y-82104448D01*
X110479950Y-82106672D01*
X110491119Y-82112055D01*
X110509067Y-82119414D01*
X110528267Y-82126562D01*
X110552801Y-82135898D01*
X110567428Y-82143291D01*
X110573314Y-82149572D01*
X110571625Y-82155572D01*
X110570574Y-82156720D01*
X110560904Y-82159152D01*
X110545174Y-82154639D01*
X110525719Y-82147983D01*
X110506476Y-82143118D01*
X110487339Y-82139516D01*
X110509330Y-82156828D01*
X110522073Y-82166680D01*
X110541544Y-82181516D01*
X110565316Y-82199495D01*
X110590965Y-82218780D01*
X110596962Y-82223272D01*
X110653376Y-82267589D01*
X110699945Y-82309031D01*
X110737519Y-82348708D01*
X110766951Y-82387726D01*
X110789091Y-82427196D01*
X110804793Y-82468224D01*
X110813749Y-82505343D01*
X110815446Y-82519251D01*
X110817267Y-82542290D01*
X110819074Y-82572178D01*
X110820731Y-82606633D01*
X110822101Y-82643374D01*
X110822158Y-82645186D01*
X110824520Y-82706135D01*
X110827561Y-82757210D01*
X110831436Y-82799940D01*
X110836301Y-82835854D01*
X110842310Y-82866483D01*
X110846120Y-82881487D01*
X110851935Y-82904394D01*
X110858186Y-82931821D01*
X110862528Y-82952836D01*
X110868106Y-82980426D01*
X110874499Y-83010323D01*
X110878907Y-83029892D01*
X110882712Y-83050142D01*
X110886754Y-83078144D01*
X110890560Y-83110259D01*
X110893655Y-83142846D01*
X110893753Y-83144049D01*
X110899730Y-83197223D01*
X110908313Y-83239833D01*
X110919655Y-83272469D01*
X110933571Y-83295308D01*
X110956670Y-83326628D01*
X110976658Y-83361620D01*
X110993937Y-83401547D01*
X111008910Y-83447670D01*
X111021982Y-83501255D01*
X111033555Y-83563563D01*
X111044033Y-83635859D01*
X111045200Y-83644987D01*
X111050176Y-83683550D01*
X111055308Y-83721895D01*
X111060203Y-83757191D01*
X111064470Y-83786609D01*
X111067522Y-83806162D01*
X111071286Y-83831761D01*
X111075350Y-83864328D01*
X111079193Y-83899443D01*
X111081974Y-83928881D01*
X111085289Y-83962873D01*
X111089525Y-83999345D01*
X111094372Y-84036256D01*
X111099520Y-84071568D01*
X111104661Y-84103239D01*
X111109484Y-84129230D01*
X111113679Y-84147502D01*
X111116321Y-84155093D01*
X111119835Y-84166089D01*
X111124261Y-84187012D01*
X111129402Y-84216429D01*
X111135062Y-84252905D01*
X111141043Y-84295007D01*
X111147149Y-84341299D01*
X111153182Y-84390348D01*
X111158947Y-84440720D01*
X111164245Y-84490981D01*
X111168401Y-84534378D01*
X111171143Y-84564503D01*
X111173812Y-84593644D01*
X111176071Y-84618117D01*
X111177380Y-84632112D01*
X111177804Y-84655139D01*
X111173188Y-84673627D01*
X111168445Y-84683483D01*
X111156384Y-84709394D01*
X111142765Y-84745224D01*
X111128070Y-84789661D01*
X111121874Y-84809970D01*
X111113722Y-84832527D01*
X111103752Y-84853625D01*
X111096228Y-84865703D01*
X111082119Y-84881171D01*
X111062831Y-84898224D01*
X111040297Y-84915609D01*
X111016451Y-84932078D01*
X110993226Y-84946380D01*
X110972553Y-84957263D01*
X110956366Y-84963479D01*
X110946597Y-84963775D01*
X110945673Y-84963106D01*
X110939975Y-84952006D01*
X110942740Y-84937245D01*
X110953703Y-84917969D01*
X110962370Y-84904343D01*
X110967433Y-84894694D01*
X110967973Y-84892754D01*
X110971507Y-84885995D01*
X110979815Y-84875933D01*
X110987586Y-84865438D01*
X110987150Y-84856667D01*
X110984789Y-84852331D01*
X110981496Y-84843575D01*
X110981632Y-84831130D01*
X110985351Y-84811923D01*
X110987217Y-84804271D01*
X110990401Y-84785517D01*
X110992955Y-84758799D01*
X110994829Y-84726777D01*
X110995973Y-84692116D01*
X110996337Y-84657476D01*
X110995871Y-84625521D01*
X110994526Y-84598912D01*
X110992250Y-84580313D01*
X110991490Y-84577082D01*
X110987605Y-84563172D01*
X110975614Y-84578415D01*
X110967799Y-84592879D01*
X110962429Y-84614352D01*
X110959509Y-84637570D01*
X110956735Y-84660646D01*
X110953240Y-84680729D01*
X110949728Y-84693850D01*
X110949352Y-84694742D01*
X110939939Y-84705783D01*
X110928601Y-84706860D01*
X110918724Y-84698117D01*
X110916461Y-84693363D01*
X110913798Y-84679955D01*
X110912036Y-84658041D01*
X110911168Y-84630497D01*
X110911183Y-84600198D01*
X110912073Y-84570017D01*
X110913828Y-84542830D01*
X110916441Y-84521510D01*
X110917005Y-84518499D01*
X110922537Y-84495320D01*
X110930520Y-84467128D01*
X110939942Y-84436995D01*
X110949791Y-84407995D01*
X110959058Y-84383201D01*
X110966730Y-84365688D01*
X110968158Y-84363022D01*
X110978163Y-84338423D01*
X110982088Y-84309380D01*
X110979969Y-84274167D01*
X110971844Y-84231059D01*
X110971117Y-84227974D01*
X110955481Y-84166714D01*
X110938529Y-84109755D01*
X110918588Y-84051755D01*
X110903183Y-84010840D01*
X110885636Y-83966881D01*
X110870046Y-83931245D01*
X110855110Y-83901316D01*
X110839525Y-83874479D01*
X110822588Y-83848971D01*
X110788450Y-83796937D01*
X110758283Y-83743555D01*
X110730672Y-83685984D01*
X110704200Y-83621381D01*
X110690231Y-83583555D01*
X110679700Y-83554142D01*
X110669630Y-83526045D01*
X110661129Y-83502352D01*
X110655305Y-83486152D01*
X110655088Y-83485552D01*
X110647129Y-83465608D01*
X110641202Y-83455189D01*
X110637705Y-83454830D01*
X110636917Y-83461133D01*
X110634773Y-83464452D01*
X110627694Y-83460931D01*
X110614711Y-83449923D01*
X110602011Y-83437826D01*
X110596345Y-83432296D01*
X110625501Y-83432296D01*
X110628355Y-83435150D01*
X110631209Y-83432296D01*
X110628355Y-83429443D01*
X110625501Y-83432296D01*
X110596345Y-83432296D01*
X110578802Y-83415173D01*
X110614085Y-83415173D01*
X110616939Y-83418027D01*
X110619793Y-83415173D01*
X110616939Y-83412319D01*
X110614085Y-83415173D01*
X110578802Y-83415173D01*
X110567106Y-83403757D01*
X110570419Y-83423735D01*
X110572973Y-83441334D01*
X110575745Y-83463641D01*
X110577011Y-83475105D01*
X110579705Y-83496073D01*
X110583851Y-83523016D01*
X110588638Y-83550724D01*
X110589550Y-83555627D01*
X110593332Y-83579046D01*
X110595411Y-83599007D01*
X110595488Y-83612259D01*
X110594953Y-83614803D01*
X110591510Y-83620669D01*
X110586671Y-83618579D01*
X110579760Y-83610437D01*
X110571660Y-83597022D01*
X110568335Y-83585509D01*
X110565837Y-83572453D01*
X110563629Y-83567717D01*
X110560438Y-83568994D01*
X110556265Y-83579125D01*
X110551657Y-83595652D01*
X110547160Y-83616114D01*
X110543321Y-83638053D01*
X110540686Y-83659010D01*
X110539795Y-83675011D01*
X110538274Y-83695686D01*
X110534343Y-83709064D01*
X110528713Y-83713739D01*
X110522633Y-83709128D01*
X110520158Y-83710248D01*
X110518550Y-83721113D01*
X110517749Y-83740092D01*
X110517693Y-83765550D01*
X110518325Y-83795856D01*
X110519582Y-83829377D01*
X110521405Y-83864480D01*
X110523735Y-83899533D01*
X110526510Y-83932903D01*
X110529672Y-83962957D01*
X110532820Y-83985959D01*
X110539682Y-84026167D01*
X110548253Y-84071566D01*
X110558244Y-84120981D01*
X110569366Y-84173234D01*
X110581330Y-84227148D01*
X110593846Y-84281546D01*
X110606625Y-84335250D01*
X110619379Y-84387085D01*
X110631817Y-84435872D01*
X110643651Y-84480434D01*
X110654592Y-84519595D01*
X110664351Y-84552178D01*
X110672637Y-84577004D01*
X110679163Y-84592898D01*
X110683322Y-84598604D01*
X110687483Y-84605131D01*
X110688287Y-84611326D01*
X110689668Y-84620343D01*
X110693483Y-84638262D01*
X110699240Y-84662948D01*
X110706448Y-84692269D01*
X110711514Y-84712165D01*
X110722309Y-84756446D01*
X110730610Y-84795619D01*
X110736266Y-84828571D01*
X110739121Y-84854187D01*
X110739022Y-84871355D01*
X110735814Y-84878961D01*
X110734637Y-84879240D01*
X110729240Y-84876358D01*
X110723724Y-84866860D01*
X110717608Y-84849475D01*
X110710417Y-84822929D01*
X110704939Y-84800162D01*
X110699150Y-84777133D01*
X110693500Y-84757688D01*
X110688958Y-84745078D01*
X110687867Y-84742968D01*
X110685363Y-84739110D01*
X110683897Y-84737963D01*
X110683604Y-84741116D01*
X110684620Y-84750158D01*
X110687081Y-84766680D01*
X110691120Y-84792270D01*
X110693151Y-84805038D01*
X110698924Y-84844175D01*
X110703584Y-84882726D01*
X110707238Y-84922562D01*
X110709999Y-84965550D01*
X110711977Y-85013558D01*
X110713280Y-85068457D01*
X110714020Y-85132114D01*
X110714189Y-85161780D01*
X110714737Y-85225300D01*
X110715786Y-85284721D01*
X110717288Y-85339038D01*
X110719194Y-85387248D01*
X110721453Y-85428346D01*
X110724018Y-85461329D01*
X110726839Y-85485193D01*
X110729868Y-85498934D01*
X110730768Y-85500866D01*
X110732334Y-85511421D01*
X110730444Y-85529667D01*
X110725855Y-85552682D01*
X110719319Y-85577546D01*
X110711594Y-85601338D01*
X110703433Y-85621138D01*
X110696694Y-85632679D01*
X110691254Y-85642357D01*
X110683730Y-85658900D01*
X110677019Y-85675487D01*
X110669653Y-85693404D01*
X110659073Y-85717392D01*
X110646258Y-85745408D01*
X110632190Y-85775406D01*
X110617847Y-85805343D01*
X110604211Y-85833173D01*
X110592261Y-85856851D01*
X110582979Y-85874334D01*
X110577343Y-85883575D01*
X110577141Y-85883825D01*
X110570986Y-85893912D01*
X110561431Y-85913053D01*
X110549172Y-85939644D01*
X110534907Y-85972085D01*
X110519331Y-86008774D01*
X110503142Y-86048107D01*
X110487036Y-86088484D01*
X110477857Y-86112139D01*
X110465417Y-86144311D01*
X110453357Y-86175041D01*
X110442709Y-86201736D01*
X110434502Y-86221799D01*
X110431367Y-86229150D01*
X110424960Y-86244376D01*
X110415511Y-86267674D01*
X110404055Y-86296452D01*
X110391627Y-86328120D01*
X110384625Y-86346162D01*
X110359381Y-86412659D01*
X110338600Y-86470312D01*
X110321902Y-86520611D01*
X110308910Y-86565051D01*
X110299244Y-86605124D01*
X110292525Y-86642323D01*
X110288374Y-86678140D01*
X110286414Y-86714069D01*
X110286132Y-86734296D01*
X110286528Y-86764103D01*
X110288345Y-86787357D01*
X110292365Y-86808825D01*
X110299369Y-86833274D01*
X110305312Y-86851308D01*
X110318304Y-86888648D01*
X110329196Y-86916796D01*
X110338957Y-86937554D01*
X110348554Y-86952725D01*
X110358956Y-86964112D01*
X110370812Y-86973303D01*
X110399569Y-86989265D01*
X110433476Y-87002870D01*
X110466270Y-87011655D01*
X110469962Y-87012289D01*
X110484380Y-87017218D01*
X110488512Y-87025027D01*
X110483836Y-87037120D01*
X110472559Y-87049326D01*
X110458811Y-87057859D01*
X110450758Y-87059645D01*
X110438656Y-87062091D01*
X110434002Y-87064891D01*
X110428169Y-87067571D01*
X110415853Y-87070043D01*
X110396103Y-87072396D01*
X110367965Y-87074720D01*
X110330488Y-87077107D01*
X110282718Y-87079645D01*
X110273113Y-87080117D01*
X110197556Y-87083794D01*
X110154047Y-87039286D01*
X110110539Y-86994778D01*
X110125435Y-86983926D01*
X110135874Y-86973550D01*
X110140330Y-86963621D01*
X110140332Y-86963460D01*
X110136816Y-86950923D01*
X110128086Y-86935932D01*
X110116874Y-86922077D01*
X110105908Y-86912952D01*
X110100638Y-86911240D01*
X110084783Y-86909481D01*
X110075966Y-86902642D01*
X110072329Y-86888378D01*
X110071859Y-86874955D01*
X110074382Y-86850112D01*
X110081081Y-86830000D01*
X110081929Y-86828476D01*
X110089353Y-86813381D01*
X110097747Y-86792790D01*
X110102866Y-86778373D01*
X110108712Y-86759507D01*
X110110784Y-86747146D01*
X110109190Y-86737059D01*
X110104212Y-86725382D01*
X110095617Y-86697879D01*
X110095607Y-86668051D01*
X110104354Y-86634215D01*
X110116586Y-86605568D01*
X110128039Y-86580685D01*
X110138631Y-86555645D01*
X110146410Y-86535103D01*
X110147544Y-86531667D01*
X110154445Y-86506112D01*
X110161760Y-86472737D01*
X110168862Y-86435092D01*
X110175121Y-86396724D01*
X110179909Y-86361184D01*
X110182428Y-86334746D01*
X110185276Y-86291937D01*
X110154516Y-86326184D01*
X110139776Y-86343726D01*
X110128407Y-86359382D01*
X110122443Y-86370291D01*
X110122056Y-86371789D01*
X110117569Y-86380174D01*
X110109735Y-86385090D01*
X110102682Y-86384953D01*
X110100377Y-86380101D01*
X110102707Y-86371748D01*
X110108804Y-86356526D01*
X110117083Y-86338300D01*
X110130814Y-86308452D01*
X110144367Y-86277017D01*
X110156800Y-86246388D01*
X110167173Y-86218959D01*
X110174543Y-86197125D01*
X110177943Y-86183487D01*
X110178380Y-86175803D01*
X110176049Y-86176741D01*
X110170246Y-86187035D01*
X110165623Y-86196330D01*
X110155332Y-86214929D01*
X110147185Y-86224795D01*
X110141942Y-86225294D01*
X110140332Y-86217416D01*
X110137836Y-86214139D01*
X110129999Y-86220194D01*
X110125910Y-86224551D01*
X110111489Y-86240566D01*
X110113541Y-86200611D01*
X110118931Y-86161582D01*
X110131602Y-86115815D01*
X110135796Y-86103577D01*
X110144445Y-86077795D01*
X110150706Y-86054988D01*
X110155233Y-86031687D01*
X110158678Y-86004426D01*
X110161695Y-85969737D01*
X110162146Y-85963735D01*
X110164602Y-85933005D01*
X110167133Y-85905351D01*
X110169487Y-85883261D01*
X110171413Y-85869219D01*
X110171932Y-85866701D01*
X110173645Y-85857702D01*
X110171259Y-85858603D01*
X110169454Y-85860993D01*
X110166092Y-85862926D01*
X110164166Y-85856261D01*
X110163604Y-85843870D01*
X110175382Y-85843870D01*
X110176845Y-85847048D01*
X110180287Y-85841016D01*
X110184367Y-85827700D01*
X110185193Y-85821038D01*
X110183729Y-85817859D01*
X110180287Y-85823892D01*
X110176208Y-85837207D01*
X110175382Y-85843870D01*
X110163604Y-85843870D01*
X110163419Y-85839792D01*
X110163387Y-85832454D01*
X110163626Y-85815494D01*
X110164628Y-85800779D01*
X110166900Y-85785771D01*
X110170945Y-85767934D01*
X110177270Y-85744732D01*
X110186378Y-85713626D01*
X110188385Y-85706881D01*
X110194941Y-85683785D01*
X110199981Y-85663959D01*
X110202712Y-85650603D01*
X110202980Y-85647875D01*
X110205460Y-85638713D01*
X110212078Y-85621915D01*
X110221777Y-85600011D01*
X110231597Y-85579381D01*
X110250969Y-85538504D01*
X110265047Y-85504967D01*
X110274553Y-85476403D01*
X110280204Y-85450449D01*
X110282720Y-85424738D01*
X110283029Y-85410269D01*
X110281903Y-85383103D01*
X110278713Y-85363854D01*
X110275428Y-85356195D01*
X110271150Y-85351844D01*
X110266422Y-85352271D01*
X110259593Y-85358815D01*
X110249015Y-85372813D01*
X110241093Y-85384042D01*
X110226498Y-85405739D01*
X110212908Y-85427334D01*
X110203038Y-85444500D01*
X110202311Y-85445902D01*
X110191865Y-85464599D01*
X110178539Y-85486176D01*
X110171083Y-85497402D01*
X110159216Y-85516974D01*
X110149632Y-85536854D01*
X110146077Y-85546923D01*
X110140161Y-85562845D01*
X110133043Y-85574362D01*
X110131730Y-85575634D01*
X110125398Y-85579160D01*
X110123375Y-85573480D01*
X110123307Y-85569164D01*
X110125789Y-85548707D01*
X110132348Y-85521197D01*
X110141997Y-85489810D01*
X110153748Y-85457724D01*
X110166615Y-85428117D01*
X110168053Y-85425155D01*
X110186377Y-85387460D01*
X110200134Y-85357757D01*
X110210005Y-85333897D01*
X110216670Y-85313734D01*
X110220811Y-85295122D01*
X110223108Y-85275912D01*
X110224243Y-85253960D01*
X110224435Y-85247398D01*
X110224913Y-85221690D01*
X110224575Y-85205951D01*
X110223245Y-85198753D01*
X110220751Y-85198667D01*
X110218817Y-85201138D01*
X110200715Y-85228714D01*
X110188122Y-85248272D01*
X110180157Y-85261253D01*
X110175941Y-85269099D01*
X110174591Y-85273252D01*
X110174579Y-85273541D01*
X110172609Y-85281554D01*
X110167662Y-85295685D01*
X110165331Y-85301674D01*
X110157757Y-85316788D01*
X110150464Y-85322188D01*
X110146647Y-85321793D01*
X110140447Y-85322588D01*
X110133357Y-85329549D01*
X110124671Y-85343837D01*
X110113681Y-85366612D01*
X110099840Y-85398656D01*
X110092025Y-85416454D01*
X110085370Y-85430084D01*
X110082124Y-85435472D01*
X110078252Y-85436545D01*
X110077026Y-85428578D01*
X110078178Y-85413569D01*
X110081439Y-85393512D01*
X110086540Y-85370407D01*
X110093212Y-85346250D01*
X110094828Y-85341104D01*
X110103076Y-85315044D01*
X110110659Y-85290373D01*
X110116413Y-85270904D01*
X110118185Y-85264521D01*
X110125607Y-85244757D01*
X110135767Y-85226470D01*
X110137139Y-85224566D01*
X110147618Y-85207277D01*
X110156444Y-85187317D01*
X110157362Y-85184611D01*
X110165091Y-85163789D01*
X110174520Y-85142338D01*
X110175981Y-85139369D01*
X110180621Y-85129524D01*
X110183497Y-85120422D01*
X110184621Y-85109757D01*
X110184004Y-85095224D01*
X110181657Y-85074518D01*
X110177591Y-85045333D01*
X110176475Y-85037598D01*
X110172810Y-85020225D01*
X110168948Y-85013836D01*
X110165612Y-85018032D01*
X110163521Y-85032420D01*
X110163164Y-85044907D01*
X110162724Y-85063245D01*
X110161120Y-85074402D01*
X110157927Y-85077846D01*
X110152719Y-85073042D01*
X110145071Y-85059458D01*
X110134556Y-85036560D01*
X110120750Y-85003814D01*
X110110672Y-84979128D01*
X110102107Y-84956603D01*
X110094035Y-84933182D01*
X110091445Y-84924903D01*
X110083729Y-84900401D01*
X110076680Y-84880473D01*
X110070990Y-84866822D01*
X110067349Y-84861151D01*
X110066381Y-84863090D01*
X110060926Y-84871580D01*
X110049504Y-84876277D01*
X110038432Y-84879716D01*
X110035406Y-84885829D01*
X110038088Y-84898097D01*
X110041153Y-84913493D01*
X110042819Y-84931334D01*
X110043087Y-84948479D01*
X110041956Y-84961785D01*
X110039427Y-84968108D01*
X110038087Y-84968019D01*
X110033800Y-84960747D01*
X110029832Y-84946873D01*
X110029175Y-84943424D01*
X110024369Y-84924887D01*
X110017689Y-84908724D01*
X110017156Y-84907780D01*
X110012770Y-84900988D01*
X110010497Y-84900767D01*
X110009920Y-84908626D01*
X110010624Y-84926075D01*
X110010869Y-84930611D01*
X110013229Y-84957220D01*
X110017095Y-84985539D01*
X110019930Y-85001091D01*
X110023546Y-85021843D01*
X110024167Y-85034320D01*
X110022006Y-85037686D01*
X110017273Y-85031103D01*
X110014124Y-85024101D01*
X110007239Y-85008057D01*
X109998718Y-84989028D01*
X109996791Y-84984836D01*
X109990305Y-84971301D01*
X109987225Y-84967411D01*
X109986287Y-84972394D01*
X109986224Y-84978400D01*
X109985361Y-84989260D01*
X109981677Y-84990559D01*
X109977658Y-84987690D01*
X109972726Y-84985009D01*
X109970129Y-84988796D01*
X109969149Y-85001013D01*
X109969041Y-85011249D01*
X109969754Y-85031087D01*
X109971704Y-85057595D01*
X109974525Y-85086141D01*
X109975758Y-85096626D01*
X109979242Y-85136108D01*
X109978769Y-85165911D01*
X109977240Y-85176077D01*
X109972041Y-85194851D01*
X109967076Y-85202415D01*
X109962611Y-85198973D01*
X109958913Y-85184730D01*
X109956249Y-85159910D01*
X109953623Y-85135961D01*
X109949548Y-85114446D01*
X109944848Y-85099578D01*
X109944233Y-85098351D01*
X109935306Y-85081870D01*
X109935078Y-85102649D01*
X109933504Y-85117152D01*
X109929465Y-85139054D01*
X109923665Y-85164787D01*
X109919866Y-85179705D01*
X109913193Y-85205105D01*
X109907415Y-85227715D01*
X109903330Y-85244377D01*
X109902015Y-85250252D01*
X109895828Y-85265817D01*
X109888853Y-85275937D01*
X109880892Y-85290195D01*
X109872783Y-85315125D01*
X109864718Y-85349989D01*
X109856889Y-85394048D01*
X109855035Y-85406115D01*
X109850667Y-85430623D01*
X109845395Y-85453453D01*
X109840298Y-85469981D01*
X109839892Y-85470985D01*
X109834943Y-85487089D01*
X109830180Y-85509645D01*
X109826693Y-85533316D01*
X109822411Y-85558895D01*
X109815980Y-85583095D01*
X109809659Y-85598978D01*
X109793330Y-85633988D01*
X109784213Y-85664352D01*
X109781786Y-85693817D01*
X109785526Y-85726131D01*
X109789413Y-85743982D01*
X109794125Y-85768704D01*
X109797161Y-85794610D01*
X109797771Y-85807841D01*
X109799223Y-85829609D01*
X109802898Y-85855933D01*
X109806951Y-85876336D01*
X109810486Y-85898686D01*
X109812842Y-85928674D01*
X109814067Y-85963843D01*
X109814210Y-86001739D01*
X109813321Y-86039907D01*
X109811448Y-86075891D01*
X109808639Y-86107236D01*
X109804945Y-86131488D01*
X109801627Y-86143532D01*
X109797434Y-86161147D01*
X109794508Y-86188113D01*
X109792857Y-86222437D01*
X109792491Y-86262124D01*
X109793417Y-86305180D01*
X109795645Y-86349611D01*
X109799183Y-86393423D01*
X109800495Y-86406094D01*
X109804895Y-86441490D01*
X109810438Y-86478728D01*
X109816736Y-86515854D01*
X109823402Y-86550909D01*
X109830047Y-86581938D01*
X109836284Y-86606984D01*
X109841725Y-86624091D01*
X109844966Y-86630436D01*
X109848583Y-86640227D01*
X109850521Y-86659378D01*
X109850850Y-86688741D01*
X109850650Y-86699496D01*
X109849727Y-86740356D01*
X109849178Y-86772485D01*
X109849055Y-86798567D01*
X109849408Y-86821283D01*
X109850288Y-86843315D01*
X109851747Y-86867343D01*
X109853834Y-86896050D01*
X109854557Y-86905532D01*
X109857140Y-86944984D01*
X109858030Y-86974945D01*
X109857226Y-86997211D01*
X109854731Y-87013580D01*
X109854635Y-87013982D01*
X109850200Y-87030634D01*
X109845074Y-87042650D01*
X109837468Y-87050785D01*
X109825595Y-87055796D01*
X109807664Y-87058439D01*
X109781888Y-87059469D01*
X109746641Y-87059645D01*
X109698920Y-87058701D01*
X109661096Y-87055679D01*
X109631792Y-87050295D01*
X109609630Y-87042263D01*
X109593233Y-87031299D01*
X109588865Y-87027001D01*
X109579028Y-87014293D01*
X109576457Y-87003055D01*
X109581614Y-86990525D01*
X109594964Y-86973938D01*
X109598413Y-86970156D01*
X109610413Y-86954570D01*
X109625174Y-86931538D01*
X109640868Y-86904072D01*
X109654064Y-86878491D01*
X109686557Y-86811949D01*
X109686557Y-86714617D01*
X109685723Y-86666739D01*
X109683419Y-86615021D01*
X109679938Y-86564878D01*
X109676441Y-86528965D01*
X109672529Y-86496969D01*
X109668437Y-86469568D01*
X109663531Y-86444039D01*
X109657179Y-86417656D01*
X109648746Y-86387695D01*
X109637600Y-86351431D01*
X109628695Y-86323482D01*
X109616517Y-86286448D01*
X109604329Y-86250962D01*
X109592933Y-86219245D01*
X109583131Y-86193515D01*
X109575725Y-86175995D01*
X109574521Y-86173511D01*
X109564414Y-86149822D01*
X109555001Y-86121699D01*
X109549438Y-86100102D01*
X109544858Y-86079543D01*
X109540797Y-86063416D01*
X109538073Y-86054961D01*
X109537925Y-86054693D01*
X109535930Y-86047696D01*
X109532338Y-86031474D01*
X109527565Y-86008043D01*
X109522026Y-85979415D01*
X109518350Y-85959720D01*
X109512293Y-85927644D01*
X109506484Y-85898332D01*
X109501414Y-85874167D01*
X109497578Y-85857535D01*
X109496162Y-85852431D01*
X109494370Y-85841839D01*
X109492469Y-85821743D01*
X109490581Y-85794053D01*
X109488829Y-85760678D01*
X109487337Y-85723527D01*
X109486806Y-85706881D01*
X109485528Y-85668055D01*
X109484075Y-85631585D01*
X109482547Y-85599534D01*
X109481047Y-85573965D01*
X109479676Y-85556942D01*
X109479199Y-85553067D01*
X109475366Y-85527681D01*
X109454573Y-85575899D01*
X109442494Y-85605488D01*
X109429894Y-85638871D01*
X109419278Y-85669386D01*
X109418225Y-85672634D01*
X109408983Y-85700053D01*
X109398722Y-85728332D01*
X109389418Y-85752056D01*
X109388009Y-85755398D01*
X109378949Y-85777047D01*
X109370644Y-85797702D01*
X109366102Y-85809622D01*
X109358856Y-85829600D01*
X109359022Y-85806768D01*
X109361278Y-85774945D01*
X109367861Y-85737472D01*
X109379138Y-85692412D01*
X109383970Y-85675487D01*
X109400503Y-85615843D01*
X109414948Y-85557395D01*
X109427117Y-85501382D01*
X109436819Y-85449045D01*
X109443864Y-85401626D01*
X109448063Y-85360364D01*
X109449226Y-85326499D01*
X109447163Y-85301273D01*
X109443199Y-85288404D01*
X109436056Y-85277544D01*
X109426753Y-85266597D01*
X109418201Y-85258631D01*
X109413312Y-85256717D01*
X109413232Y-85256812D01*
X109411771Y-85262865D01*
X109408790Y-85278021D01*
X109404697Y-85300131D01*
X109399897Y-85327045D01*
X109398852Y-85333016D01*
X109391439Y-85372134D01*
X109383601Y-85407508D01*
X109375758Y-85437684D01*
X109368332Y-85461208D01*
X109361744Y-85476623D01*
X109356414Y-85482476D01*
X109355620Y-85482401D01*
X109353002Y-85476035D01*
X109351218Y-85460355D01*
X109350248Y-85437430D01*
X109350075Y-85409330D01*
X109350678Y-85378125D01*
X109352040Y-85345884D01*
X109354141Y-85314677D01*
X109356962Y-85286572D01*
X109357437Y-85282822D01*
X109362610Y-85250301D01*
X109368659Y-85226861D01*
X109376220Y-85210169D01*
X109378017Y-85207365D01*
X109385409Y-85193121D01*
X109393146Y-85172964D01*
X109400264Y-85150255D01*
X109405797Y-85128356D01*
X109408784Y-85110627D01*
X109408506Y-85101042D01*
X109406168Y-85102584D01*
X109402136Y-85113087D01*
X109397221Y-85130377D01*
X109396461Y-85133409D01*
X109390884Y-85153748D01*
X109385460Y-85169792D01*
X109381329Y-85178183D01*
X109381208Y-85178311D01*
X109374229Y-85181730D01*
X109370933Y-85176271D01*
X109372052Y-85164084D01*
X109374058Y-85157355D01*
X109377790Y-85142400D01*
X109381417Y-85120676D01*
X109384170Y-85096810D01*
X109384229Y-85096139D01*
X109387923Y-85053330D01*
X109373344Y-85070454D01*
X109364011Y-85080708D01*
X109359642Y-85082658D01*
X109358248Y-85077053D01*
X109358198Y-85076162D01*
X109357454Y-85068160D01*
X109355317Y-85070612D01*
X109352888Y-85076455D01*
X109349921Y-85086959D01*
X109345812Y-85105644D01*
X109341214Y-85129419D01*
X109338537Y-85144570D01*
X109324986Y-85204272D01*
X109304817Y-85259372D01*
X109277295Y-85312994D01*
X109263808Y-85337775D01*
X109249121Y-85367049D01*
X109236289Y-85394716D01*
X109235651Y-85396176D01*
X109223258Y-85422827D01*
X109214014Y-85438527D01*
X109207924Y-85443274D01*
X109204994Y-85437064D01*
X109205231Y-85419892D01*
X109205792Y-85413827D01*
X109212428Y-85383624D01*
X109226886Y-85345435D01*
X109235777Y-85326014D01*
X109253215Y-85288717D01*
X109265944Y-85258879D01*
X109274679Y-85233917D01*
X109280136Y-85211246D01*
X109283034Y-85188282D01*
X109284087Y-85162443D01*
X109284153Y-85151567D01*
X109284844Y-85123015D01*
X109287261Y-85096023D01*
X109291913Y-85066986D01*
X109294826Y-85053330D01*
X109358355Y-85053330D01*
X109361209Y-85056184D01*
X109364063Y-85053330D01*
X109361209Y-85050476D01*
X109358355Y-85053330D01*
X109294826Y-85053330D01*
X109299312Y-85032294D01*
X109303633Y-85014045D01*
X109312334Y-84975829D01*
X109319409Y-84940321D01*
X109324670Y-84908966D01*
X109327926Y-84883207D01*
X109328987Y-84864489D01*
X109327666Y-84854256D01*
X109324761Y-84853151D01*
X109319851Y-84852337D01*
X109318572Y-84843421D01*
X109320964Y-84829135D01*
X109324267Y-84818888D01*
X109327907Y-84807263D01*
X109328277Y-84801597D01*
X109325379Y-84805655D01*
X109319059Y-84818081D01*
X109310365Y-84836739D01*
X109303859Y-84851376D01*
X109290127Y-84881294D01*
X109279654Y-84900993D01*
X109272314Y-84911155D01*
X109267984Y-84912465D01*
X109266536Y-84905606D01*
X109267846Y-84891261D01*
X109271790Y-84870114D01*
X109278241Y-84842847D01*
X109287074Y-84810144D01*
X109298165Y-84772689D01*
X109311387Y-84731164D01*
X109326617Y-84686253D01*
X109341964Y-84643426D01*
X109350836Y-84617781D01*
X109356285Y-84598823D01*
X109358169Y-84587511D01*
X109356347Y-84584805D01*
X109350674Y-84591663D01*
X109349318Y-84593847D01*
X109345002Y-84597489D01*
X109342754Y-84591540D01*
X109342345Y-84577590D01*
X109342733Y-84571016D01*
X109358355Y-84571016D01*
X109360443Y-84575714D01*
X109362160Y-84574821D01*
X109362843Y-84568047D01*
X109362160Y-84567210D01*
X109358767Y-84567994D01*
X109358355Y-84571016D01*
X109342733Y-84571016D01*
X109343548Y-84557231D01*
X109343891Y-84553892D01*
X109364063Y-84553892D01*
X109366151Y-84558590D01*
X109367868Y-84557697D01*
X109368551Y-84550923D01*
X109367868Y-84550087D01*
X109364475Y-84550870D01*
X109364063Y-84553892D01*
X109343891Y-84553892D01*
X109346134Y-84532054D01*
X109349876Y-84503649D01*
X109354545Y-84473608D01*
X109359914Y-84443521D01*
X109365754Y-84414980D01*
X109371838Y-84389576D01*
X109377938Y-84368900D01*
X109383528Y-84355106D01*
X109389775Y-84340626D01*
X109392589Y-84329360D01*
X109392602Y-84328875D01*
X109394942Y-84320322D01*
X109401260Y-84304104D01*
X109410501Y-84282804D01*
X109418287Y-84265951D01*
X109430896Y-84239064D01*
X109438870Y-84221157D01*
X109442606Y-84210964D01*
X109442502Y-84207219D01*
X109438956Y-84208655D01*
X109435411Y-84211420D01*
X109428219Y-84219966D01*
X109426849Y-84224138D01*
X109424752Y-84229965D01*
X109417953Y-84239893D01*
X109405694Y-84254831D01*
X109387215Y-84275682D01*
X109361757Y-84303354D01*
X109349197Y-84316805D01*
X109328160Y-84338522D01*
X109312811Y-84352761D01*
X109303702Y-84359048D01*
X109301276Y-84357903D01*
X109303325Y-84346903D01*
X109309973Y-84331609D01*
X109321973Y-84310608D01*
X109340079Y-84282486D01*
X109346721Y-84272586D01*
X109361059Y-84250234D01*
X109378227Y-84221761D01*
X109395839Y-84191200D01*
X109408444Y-84168327D01*
X109424483Y-84137348D01*
X109435929Y-84111770D01*
X109444341Y-84087379D01*
X109451277Y-84059961D01*
X109454889Y-84042754D01*
X109460739Y-84016122D01*
X109466814Y-83992625D01*
X109472310Y-83975171D01*
X109475703Y-83967581D01*
X109480874Y-83958731D01*
X109479249Y-83956943D01*
X109475385Y-83958203D01*
X109470474Y-83958119D01*
X109467839Y-83951661D01*
X109466866Y-83936713D01*
X109466804Y-83928607D01*
X109466804Y-83895718D01*
X109454598Y-83906592D01*
X109442391Y-83917465D01*
X109446039Y-83874656D01*
X109449687Y-83831847D01*
X109439695Y-83860365D01*
X109430728Y-83880188D01*
X109421452Y-83890072D01*
X109419156Y-83890858D01*
X109413372Y-83890908D01*
X109410725Y-83886596D01*
X109410665Y-83875463D01*
X109412166Y-83859486D01*
X109413924Y-83839638D01*
X109415853Y-83812447D01*
X109417683Y-83781973D01*
X109418776Y-83760499D01*
X109421827Y-83694858D01*
X109410691Y-83716249D01*
X109402662Y-83733362D01*
X109396865Y-83748685D01*
X109396127Y-83751294D01*
X109390282Y-83762183D01*
X109381207Y-83769608D01*
X109372816Y-83770684D01*
X109371279Y-83769618D01*
X109371350Y-83763203D01*
X109374194Y-83749283D01*
X109377804Y-83735785D01*
X109382915Y-83715226D01*
X109386128Y-83696542D01*
X109386713Y-83688272D01*
X109386148Y-83677276D01*
X109383414Y-83676570D01*
X109377630Y-83683443D01*
X109369926Y-83694638D01*
X109359406Y-83711518D01*
X109351582Y-83724825D01*
X109340049Y-83742918D01*
X109331276Y-83752728D01*
X109326100Y-83753776D01*
X109325361Y-83745583D01*
X109326617Y-83739094D01*
X109328001Y-83731258D01*
X109326040Y-83730004D01*
X109319357Y-83736053D01*
X109307501Y-83749083D01*
X109295614Y-83761277D01*
X109287259Y-83767639D01*
X109284396Y-83767085D01*
X109286051Y-83755412D01*
X109290682Y-83736939D01*
X109297127Y-83715505D01*
X109304221Y-83694948D01*
X109310801Y-83679106D01*
X109311485Y-83677735D01*
X109316628Y-83662987D01*
X109321195Y-83641813D01*
X109323820Y-83622234D01*
X109327376Y-83583857D01*
X109315385Y-83595122D01*
X109303661Y-83603611D01*
X109294120Y-83606388D01*
X109289881Y-83602597D01*
X109289863Y-83602105D01*
X109291864Y-83594232D01*
X109296903Y-83579613D01*
X109303539Y-83562001D01*
X109310331Y-83545151D01*
X109315839Y-83532816D01*
X109317789Y-83529330D01*
X109322871Y-83520226D01*
X109328743Y-83507562D01*
X109332707Y-83496469D01*
X109331791Y-83494074D01*
X109327041Y-83499320D01*
X109319503Y-83511149D01*
X109312517Y-83523962D01*
X109300018Y-83544667D01*
X109284293Y-83566151D01*
X109277442Y-83574225D01*
X109265362Y-83587130D01*
X109258913Y-83592198D01*
X109256324Y-83590279D01*
X109255847Y-83584623D01*
X109257523Y-83574884D01*
X109262199Y-83556829D01*
X109269099Y-83532912D01*
X109277445Y-83505589D01*
X109286460Y-83477316D01*
X109295366Y-83450549D01*
X109303386Y-83427742D01*
X109309742Y-83411351D01*
X109312636Y-83405262D01*
X109317490Y-83394037D01*
X109318400Y-83389127D01*
X109315592Y-83388543D01*
X109308469Y-83395174D01*
X109298983Y-83406691D01*
X109289087Y-83420767D01*
X109282191Y-83432296D01*
X109273401Y-83445668D01*
X109259922Y-83463128D01*
X109247259Y-83477959D01*
X109233854Y-83491906D01*
X109225434Y-83497949D01*
X109221889Y-83495560D01*
X109223111Y-83484207D01*
X109228991Y-83463361D01*
X109238490Y-83435150D01*
X109246151Y-83411904D01*
X109252033Y-83391501D01*
X109255221Y-83377224D01*
X109255537Y-83373989D01*
X109259224Y-83362186D01*
X109264525Y-83353578D01*
X110574130Y-83353578D01*
X110577034Y-83360668D01*
X110584107Y-83372610D01*
X110592895Y-83385739D01*
X110600942Y-83396390D01*
X110605793Y-83400901D01*
X110605845Y-83400903D01*
X110605206Y-83396407D01*
X110600395Y-83385041D01*
X110597159Y-83378459D01*
X110588179Y-83362972D01*
X110580354Y-83353067D01*
X110575250Y-83350432D01*
X110574130Y-83353578D01*
X109264525Y-83353578D01*
X109268429Y-83347239D01*
X109273328Y-83341169D01*
X109282389Y-83329525D01*
X109285824Y-83322235D01*
X109284744Y-83320993D01*
X109278810Y-83317477D01*
X109279699Y-83309452D01*
X109286387Y-83300705D01*
X109291076Y-83297511D01*
X109303707Y-83290751D01*
X109291156Y-83286108D01*
X109283324Y-83281586D01*
X109280386Y-83273470D01*
X109281074Y-83258063D01*
X109281185Y-83256993D01*
X109282692Y-83239990D01*
X109284472Y-83215881D01*
X109286214Y-83188964D01*
X109286772Y-83179425D01*
X109288700Y-83154797D01*
X109291324Y-83133639D01*
X109294204Y-83119170D01*
X109295506Y-83115626D01*
X109298058Y-83106823D01*
X109291695Y-83103074D01*
X109291266Y-83102988D01*
X109282196Y-83106838D01*
X109270248Y-83120672D01*
X109255926Y-83143572D01*
X109239737Y-83174619D01*
X109222187Y-83212894D01*
X109203780Y-83257481D01*
X109197996Y-83272396D01*
X109190065Y-83303143D01*
X109187120Y-83338516D01*
X109187119Y-83339249D01*
X109184084Y-83373998D01*
X109175739Y-83407591D01*
X109163219Y-83436412D01*
X109151280Y-83453260D01*
X109139648Y-83467841D01*
X109131349Y-83481028D01*
X109123111Y-83495792D01*
X109113108Y-83512271D01*
X109112638Y-83513009D01*
X109103976Y-83529736D01*
X109095708Y-83550660D01*
X109093167Y-83558672D01*
X109078282Y-83605969D01*
X109060562Y-83655393D01*
X109041074Y-83704411D01*
X109020886Y-83750492D01*
X109001067Y-83791101D01*
X108982683Y-83823707D01*
X108979003Y-83829455D01*
X108967058Y-83849286D01*
X108957104Y-83868775D01*
X108952517Y-83880189D01*
X108947506Y-83893810D01*
X108939014Y-83914592D01*
X108928371Y-83939342D01*
X108920310Y-83957420D01*
X108908263Y-83985140D01*
X108896907Y-84013241D01*
X108887866Y-84037615D01*
X108884228Y-84048746D01*
X108877852Y-84069046D01*
X108868982Y-84095912D01*
X108859008Y-84125176D01*
X108852919Y-84142582D01*
X108840162Y-84182599D01*
X108832446Y-84217386D01*
X108828892Y-84249307D01*
X108827680Y-84273000D01*
X108828120Y-84289055D01*
X108830946Y-84301216D01*
X108836892Y-84313223D01*
X108843503Y-84323853D01*
X108853106Y-84340292D01*
X108865645Y-84363783D01*
X108879369Y-84390966D01*
X108890466Y-84414049D01*
X108904679Y-84445759D01*
X108914308Y-84471187D01*
X108920493Y-84493925D01*
X108924380Y-84517567D01*
X108924957Y-84522499D01*
X108927966Y-84549111D01*
X108931063Y-84575806D01*
X108933601Y-84597007D01*
X108933700Y-84597807D01*
X108935135Y-84629114D01*
X108931623Y-84655701D01*
X108923560Y-84674676D01*
X108923057Y-84675356D01*
X108914006Y-84681741D01*
X108905321Y-84677129D01*
X108897289Y-84661938D01*
X108890196Y-84636587D01*
X108887665Y-84623578D01*
X108880796Y-84587040D01*
X108874684Y-84560549D01*
X108868921Y-84542798D01*
X108863098Y-84532478D01*
X108858038Y-84528659D01*
X108848311Y-84527302D01*
X108845257Y-84528577D01*
X108844087Y-84535219D01*
X108843160Y-84551206D01*
X108842543Y-84574469D01*
X108842303Y-84602939D01*
X108842346Y-84618610D01*
X108842894Y-84655793D01*
X108844129Y-84683725D01*
X108846254Y-84704561D01*
X108849470Y-84720455D01*
X108852877Y-84730836D01*
X108862357Y-84758479D01*
X108866167Y-84779359D01*
X108864661Y-84796410D01*
X108861796Y-84804977D01*
X108858872Y-84813416D01*
X108858987Y-84820763D01*
X108863330Y-84829364D01*
X108873094Y-84841568D01*
X108889469Y-84859722D01*
X108889676Y-84859948D01*
X108908443Y-84881668D01*
X108919581Y-84897896D01*
X108924242Y-84910431D01*
X108924557Y-84914313D01*
X108922923Y-84926073D01*
X108915714Y-84930184D01*
X108908860Y-84930486D01*
X108886057Y-84926045D01*
X108857425Y-84912912D01*
X108822584Y-84890893D01*
X108801897Y-84875875D01*
X108770646Y-84849293D01*
X108748506Y-84822658D01*
X108733479Y-84793288D01*
X108727941Y-84776499D01*
X108723137Y-84763002D01*
X108715168Y-84743749D01*
X108705963Y-84723199D01*
X108697454Y-84705811D01*
X108696773Y-84704524D01*
X108691236Y-84695593D01*
X108682828Y-84683248D01*
X108675047Y-84670257D01*
X108668971Y-84654982D01*
X108664528Y-84636228D01*
X108661644Y-84612803D01*
X108660249Y-84583510D01*
X108660270Y-84547156D01*
X108661636Y-84502548D01*
X108664274Y-84448490D01*
X108666427Y-84411195D01*
X108672139Y-84328539D01*
X108679245Y-84246042D01*
X108687511Y-84165741D01*
X108696697Y-84089671D01*
X108706568Y-84019868D01*
X108716887Y-83958367D01*
X108722448Y-83929872D01*
X108726435Y-83907092D01*
X108730593Y-83877524D01*
X108734310Y-83845770D01*
X108736076Y-83827551D01*
X108738819Y-83801481D01*
X108741984Y-83779499D01*
X108745146Y-83764177D01*
X108747478Y-83758350D01*
X108751364Y-83749123D01*
X108753279Y-83734096D01*
X108753321Y-83731535D01*
X108755348Y-83712147D01*
X108760355Y-83690895D01*
X108761691Y-83686839D01*
X108765740Y-83671715D01*
X108770431Y-83648511D01*
X108775158Y-83620493D01*
X108779006Y-83593368D01*
X108786546Y-83536526D01*
X108793266Y-83490212D01*
X108799322Y-83453582D01*
X108804867Y-83425789D01*
X108810055Y-83405989D01*
X108815040Y-83393336D01*
X108815682Y-83392172D01*
X108824018Y-83374977D01*
X108829693Y-83358787D01*
X108834744Y-83346352D01*
X108844419Y-83328144D01*
X108856790Y-83307738D01*
X108859117Y-83304164D01*
X108872545Y-83282409D01*
X108884331Y-83260906D01*
X108892131Y-83243954D01*
X108892644Y-83242556D01*
X108898611Y-83221578D01*
X108905224Y-83191297D01*
X108912104Y-83153780D01*
X108918870Y-83111092D01*
X108924927Y-83066993D01*
X108929264Y-83038636D01*
X108934877Y-83009713D01*
X108940701Y-82985587D01*
X108941929Y-82981375D01*
X108954364Y-82938786D01*
X108965005Y-82898583D01*
X108973392Y-82862763D01*
X108979063Y-82833326D01*
X108981558Y-82812270D01*
X108981636Y-82809176D01*
X108982317Y-82791573D01*
X108984130Y-82767062D01*
X108986732Y-82740056D01*
X108987722Y-82731202D01*
X108990382Y-82701698D01*
X108991954Y-82670621D01*
X108992168Y-82643755D01*
X108992003Y-82638903D01*
X108990197Y-82598948D01*
X108980072Y-82617480D01*
X108974368Y-82632163D01*
X108968636Y-82653861D01*
X108963996Y-82678234D01*
X108963486Y-82681693D01*
X108958982Y-82707613D01*
X108954277Y-82722659D01*
X108949353Y-82727375D01*
X108944132Y-82721970D01*
X108941945Y-82706148D01*
X108942806Y-82680502D01*
X108946728Y-82645625D01*
X108947430Y-82640675D01*
X108955202Y-82603319D01*
X108967937Y-82570661D01*
X108987748Y-82537444D01*
X108990605Y-82533308D01*
X109000683Y-82517356D01*
X109013752Y-82494518D01*
X109027899Y-82468215D01*
X109037787Y-82448838D01*
X109065956Y-82397240D01*
X109095766Y-82353530D01*
X109129758Y-82314216D01*
X109150736Y-82293596D01*
X109167999Y-82277088D01*
X109183012Y-82262102D01*
X109192935Y-82251487D01*
X109193922Y-82250308D01*
X109198099Y-82244609D01*
X109197673Y-82242231D01*
X109190975Y-82243328D01*
X109176338Y-82248056D01*
X109161165Y-82253366D01*
X109140092Y-82261349D01*
X109122877Y-82268868D01*
X109112710Y-82274507D01*
X109111838Y-82275249D01*
X109101408Y-82281148D01*
X109090829Y-82281338D01*
X109084684Y-82276046D01*
X109084377Y-82273890D01*
X109089257Y-82263456D01*
X109104058Y-82250585D01*
X109129024Y-82235135D01*
X109164398Y-82216962D01*
X109210423Y-82195921D01*
X109232782Y-82186283D01*
X109294414Y-82157482D01*
X109345831Y-82127657D01*
X109388229Y-82096105D01*
X109392911Y-82092043D01*
X109423995Y-82064599D01*
X109370185Y-82090616D01*
X109336413Y-82105826D01*
X109311840Y-82114343D01*
X109296425Y-82116178D01*
X109290125Y-82111340D01*
X109289956Y-82109499D01*
X109294701Y-82103845D01*
X109307393Y-82094262D01*
X109325847Y-82082081D01*
X109347881Y-82068635D01*
X109371308Y-82055256D01*
X109393945Y-82043275D01*
X109413608Y-82034024D01*
X109414039Y-82033841D01*
X109434124Y-82024347D01*
X109444191Y-82017470D01*
X109444140Y-82013751D01*
X109433868Y-82013729D01*
X109417197Y-82016979D01*
X109394374Y-82021540D01*
X109373202Y-82024235D01*
X109356108Y-82024952D01*
X109345518Y-82023581D01*
X109343627Y-82020341D01*
X109350217Y-82015979D01*
X109364474Y-82009398D01*
X109382492Y-82002331D01*
X109383073Y-82002105D01*
X109473912Y-82002105D01*
X109474692Y-82002476D01*
X109479901Y-81998458D01*
X109481074Y-81996768D01*
X109482528Y-81991432D01*
X109481748Y-81991061D01*
X109476539Y-81995079D01*
X109475366Y-81996768D01*
X109473912Y-82002105D01*
X109383073Y-82002105D01*
X109407309Y-81992676D01*
X109421196Y-81985750D01*
X109424285Y-81981456D01*
X109416707Y-81979700D01*
X109413721Y-81979645D01*
X109401730Y-81977781D01*
X109399202Y-81972017D01*
X109406336Y-81962095D01*
X109423327Y-81947757D01*
X109450372Y-81928744D01*
X109454793Y-81925813D01*
X109497040Y-81895576D01*
X109528766Y-81867369D01*
X109550561Y-81840584D01*
X109563010Y-81814615D01*
X109563240Y-81813860D01*
X109568216Y-81797655D01*
X109572081Y-81785764D01*
X109572872Y-81783556D01*
X109570083Y-81780121D01*
X109557960Y-81778002D01*
X109535637Y-81777078D01*
X109525375Y-81777016D01*
X109497549Y-81775681D01*
X109470955Y-81772068D01*
X109447925Y-81766761D01*
X109430791Y-81760347D01*
X109421884Y-81753409D01*
X109421141Y-81750858D01*
X109426261Y-81747782D01*
X109439286Y-81745835D01*
X109448254Y-81745497D01*
X109476707Y-81742030D01*
X109504345Y-81731198D01*
X109533315Y-81711941D01*
X109556259Y-81692214D01*
X109591062Y-81659993D01*
X109588169Y-81623960D01*
X109587463Y-81598301D01*
X109590543Y-81579687D01*
X109594547Y-81570002D01*
X109603816Y-81552077D01*
X109582400Y-81548675D01*
X109523523Y-81538692D01*
X109470642Y-81528459D01*
X109424912Y-81518248D01*
X109387488Y-81508331D01*
X109359526Y-81498979D01*
X109346939Y-81493314D01*
X109331774Y-81484193D01*
X109312186Y-81471074D01*
X109294854Y-81458592D01*
X109273692Y-81442771D01*
X109248665Y-81424101D01*
X109225071Y-81406536D01*
X109224356Y-81406004D01*
X109181822Y-81374156D01*
X109147741Y-81348080D01*
X109121203Y-81327020D01*
X109101299Y-81310218D01*
X109087120Y-81296916D01*
X109077756Y-81286357D01*
X109073800Y-81280570D01*
X109061931Y-81260454D01*
X109074739Y-81260454D01*
X109085455Y-81262983D01*
X109103047Y-81269735D01*
X109124374Y-81279451D01*
X109133052Y-81283786D01*
X109164056Y-81298253D01*
X109201607Y-81313554D01*
X109242848Y-81328727D01*
X109284919Y-81342811D01*
X109324964Y-81354845D01*
X109360124Y-81363868D01*
X109385407Y-81368645D01*
X109408029Y-81371510D01*
X109438315Y-81375061D01*
X109472564Y-81378877D01*
X109507078Y-81382537D01*
X109512467Y-81383089D01*
X109543474Y-81386393D01*
X109571717Y-81389667D01*
X109594614Y-81392592D01*
X109609585Y-81394850D01*
X109612355Y-81395397D01*
X109620708Y-81397039D01*
X109624017Y-81396064D01*
X109621677Y-81390865D01*
X109613086Y-81379833D01*
X109601145Y-81365536D01*
X109583621Y-81344766D01*
X109565476Y-81323406D01*
X109551389Y-81306953D01*
X109534426Y-81289711D01*
X109509956Y-81268051D01*
X109480142Y-81243618D01*
X109447147Y-81218059D01*
X109413137Y-81193018D01*
X109380275Y-81170143D01*
X109350726Y-81151078D01*
X109332669Y-81140610D01*
X109304346Y-81126454D01*
X109270404Y-81111200D01*
X109236124Y-81097162D01*
X109218512Y-81090609D01*
X109181572Y-81078649D01*
X109135531Y-81065525D01*
X109082584Y-81051730D01*
X109024924Y-81037757D01*
X108964746Y-81024097D01*
X108904245Y-81011243D01*
X108845614Y-80999688D01*
X108791047Y-80989924D01*
X108742740Y-80982444D01*
X108727636Y-80980446D01*
X108702287Y-80976843D01*
X108669698Y-80971581D01*
X108633805Y-80965328D01*
X108598545Y-80958747D01*
X108593501Y-80957763D01*
X108561446Y-80951571D01*
X108530857Y-80945853D01*
X108504687Y-80941148D01*
X108485890Y-80937995D01*
X108482197Y-80937442D01*
X108466167Y-80933762D01*
X108442597Y-80926581D01*
X108414446Y-80916875D01*
X108384675Y-80905621D01*
X108379456Y-80903540D01*
X108339231Y-80887278D01*
X108307636Y-80874244D01*
X108282666Y-80863522D01*
X108262313Y-80854193D01*
X108244573Y-80845339D01*
X108227439Y-80836044D01*
X108210012Y-80826036D01*
X108176694Y-80808144D01*
X108139157Y-80790540D01*
X108100636Y-80774541D01*
X108064365Y-80761464D01*
X108033578Y-80752626D01*
X108025568Y-80750937D01*
X108000616Y-80747683D01*
X107969348Y-80745596D01*
X107935356Y-80744712D01*
X107902233Y-80745064D01*
X107873572Y-80746686D01*
X107854332Y-80749309D01*
X107835704Y-80756356D01*
X107816228Y-80768291D01*
X107810080Y-80773282D01*
X107796541Y-80784337D01*
X107785855Y-80791245D01*
X107782411Y-80792409D01*
X107776183Y-80796165D01*
X107763529Y-80806448D01*
X107746161Y-80821785D01*
X107725792Y-80840701D01*
X107721068Y-80845207D01*
X107695551Y-80869211D01*
X107668073Y-80894325D01*
X107642128Y-80917394D01*
X107623164Y-80933642D01*
X107598774Y-80954050D01*
X107572220Y-80976432D01*
X107548358Y-80996691D01*
X107543254Y-81001054D01*
X107522263Y-81018431D01*
X107500828Y-81035201D01*
X107483105Y-81048128D01*
X107480916Y-81049608D01*
X107463152Y-81059475D01*
X107446837Y-81065271D01*
X107434624Y-81066395D01*
X107429171Y-81062246D01*
X107429096Y-81061333D01*
X107433017Y-81055459D01*
X107443525Y-81043928D01*
X107458743Y-81028741D01*
X107467624Y-81020314D01*
X107490817Y-80997956D01*
X107520167Y-80968549D01*
X107554258Y-80933587D01*
X107591674Y-80894561D01*
X107630999Y-80852966D01*
X107670817Y-80810293D01*
X107709713Y-80768037D01*
X107746270Y-80727691D01*
X107764307Y-80707485D01*
X107789694Y-80681578D01*
X107818599Y-80656391D01*
X107847682Y-80634608D01*
X107873601Y-80618910D01*
X107876339Y-80617563D01*
X107889412Y-80610417D01*
X107896638Y-80604696D01*
X107897141Y-80603566D01*
X107895891Y-80599874D01*
X107891662Y-80592065D01*
X107883741Y-80578980D01*
X107871412Y-80559459D01*
X107853961Y-80532343D01*
X107839387Y-80509870D01*
X107828305Y-80492144D01*
X107813999Y-80468327D01*
X107798786Y-80442305D01*
X107791306Y-80429229D01*
X107759933Y-80377829D01*
X107729066Y-80336391D01*
X107696997Y-80303681D01*
X107662017Y-80278463D01*
X107622419Y-80259502D01*
X107576492Y-80245561D01*
X107523481Y-80235547D01*
X107484984Y-80228929D01*
X107444939Y-80220527D01*
X107405749Y-80210983D01*
X107369820Y-80200939D01*
X107339555Y-80191036D01*
X107317358Y-80181917D01*
X107312033Y-80179085D01*
X107295553Y-80167186D01*
X107278393Y-80151264D01*
X107262920Y-80133988D01*
X107251501Y-80118028D01*
X107246501Y-80106055D01*
X107246445Y-80105077D01*
X107249053Y-80098829D01*
X107257600Y-80096579D01*
X107273166Y-80098479D01*
X107296834Y-80104678D01*
X107329685Y-80115326D01*
X107335870Y-80117454D01*
X107361332Y-80126089D01*
X107381261Y-80132022D01*
X107398971Y-80135759D01*
X107417777Y-80137807D01*
X107440992Y-80138671D01*
X107471933Y-80138857D01*
X107476076Y-80138858D01*
X107554450Y-80138858D01*
X107571641Y-80121667D01*
X107583660Y-80104559D01*
X107590984Y-80081344D01*
X107593664Y-80051040D01*
X107591746Y-80012668D01*
X107585278Y-79965244D01*
X107580592Y-79939083D01*
X107574145Y-79907199D01*
X107567265Y-79876545D01*
X107560700Y-79850259D01*
X107555198Y-79831478D01*
X107554326Y-79828992D01*
X107548060Y-79809324D01*
X107544047Y-79791750D01*
X107543254Y-79784155D01*
X107541646Y-79771949D01*
X107537377Y-79752522D01*
X107531274Y-79729524D01*
X107529369Y-79723010D01*
X107520454Y-79691191D01*
X107512798Y-79659053D01*
X107506039Y-79624490D01*
X107499815Y-79585393D01*
X107493766Y-79539657D01*
X107487529Y-79485175D01*
X107485843Y-79469419D01*
X107480642Y-79411120D01*
X107477412Y-79351849D01*
X107476149Y-79289627D01*
X107476850Y-79222473D01*
X107479513Y-79148406D01*
X107484135Y-79065446D01*
X107485225Y-79048656D01*
X107488146Y-79013386D01*
X107491926Y-78980913D01*
X107496251Y-78953023D01*
X107500811Y-78931504D01*
X107505292Y-78918140D01*
X107508667Y-78914521D01*
X107511343Y-78919695D01*
X107515834Y-78933644D01*
X107521430Y-78954012D01*
X107525467Y-78970173D01*
X107532091Y-78996338D01*
X107538768Y-79020417D01*
X107544478Y-79038833D01*
X107546764Y-79045072D01*
X107552247Y-79062704D01*
X107554664Y-79078952D01*
X107554669Y-79079546D01*
X107556580Y-79094210D01*
X107561664Y-79115578D01*
X107568949Y-79140697D01*
X107577464Y-79166612D01*
X107586235Y-79190367D01*
X107594290Y-79209008D01*
X107600659Y-79219580D01*
X107600784Y-79219711D01*
X107609496Y-79227124D01*
X107615946Y-79226204D01*
X107620436Y-79222212D01*
X107625604Y-79212665D01*
X107631434Y-79195231D01*
X107636832Y-79173304D01*
X107637861Y-79168168D01*
X107647333Y-79118480D01*
X107654815Y-79078416D01*
X107660576Y-79046409D01*
X107664881Y-79020894D01*
X107667999Y-79000303D01*
X107670197Y-78983070D01*
X107671384Y-78971600D01*
X107675791Y-78929742D01*
X107681446Y-78884100D01*
X107687940Y-78837397D01*
X107694862Y-78792354D01*
X107701805Y-78751695D01*
X107708358Y-78718142D01*
X107711739Y-78703330D01*
X107718558Y-78674479D01*
X107725098Y-78644700D01*
X107730256Y-78619084D01*
X107731537Y-78612004D01*
X107737145Y-78585725D01*
X107745524Y-78554139D01*
X107755776Y-78519965D01*
X107767002Y-78485921D01*
X107778304Y-78454729D01*
X107788784Y-78429106D01*
X107797544Y-78411773D01*
X107797810Y-78411348D01*
X107808403Y-78392944D01*
X107820373Y-78369778D01*
X107828757Y-78352052D01*
X107840912Y-78327520D01*
X107850676Y-78313660D01*
X107858384Y-78310058D01*
X107861419Y-78311818D01*
X107861677Y-78318405D01*
X107859983Y-78333983D01*
X107856725Y-78356373D01*
X107852294Y-78383394D01*
X107847077Y-78412864D01*
X107841465Y-78442602D01*
X107835846Y-78470428D01*
X107830609Y-78494162D01*
X107826143Y-78511621D01*
X107825253Y-78514560D01*
X107820469Y-78535708D01*
X107817490Y-78560495D01*
X107817028Y-78571639D01*
X107815416Y-78596023D01*
X107811520Y-78623364D01*
X107808555Y-78637690D01*
X107803943Y-78661236D01*
X107801188Y-78684473D01*
X107800377Y-78704774D01*
X107801599Y-78719509D01*
X107804941Y-78726050D01*
X107805594Y-78726162D01*
X107810296Y-78721202D01*
X107816231Y-78708543D01*
X107819544Y-78699049D01*
X107832667Y-78658976D01*
X107847862Y-78615829D01*
X107864321Y-78571626D01*
X107881239Y-78528381D01*
X107897810Y-78488110D01*
X107913226Y-78452829D01*
X107926681Y-78424552D01*
X107936586Y-78406534D01*
X107947703Y-78388014D01*
X107961189Y-78364633D01*
X107973505Y-78342574D01*
X107987084Y-78319220D01*
X108002037Y-78295719D01*
X108014278Y-78278317D01*
X108025105Y-78262591D01*
X108039190Y-78239959D01*
X108054569Y-78213667D01*
X108066946Y-78191321D01*
X108079172Y-78169248D01*
X108090710Y-78150364D01*
X108103107Y-78132712D01*
X108117912Y-78114336D01*
X108136674Y-78093278D01*
X108160941Y-78067580D01*
X108182399Y-78045408D01*
X108212656Y-78014876D01*
X108236569Y-77991939D01*
X108253924Y-77976737D01*
X108264511Y-77969410D01*
X108268115Y-77970098D01*
G37*
%TD*%
M02*
