%TF.GenerationSoftware,KiCad,Pcbnew,9.0.8+1*%
%TF.CreationDate,2026-05-04T20:35:43-04:00*%
%TF.ProjectId,wendigo_gnss_adapter,77656e64-6967-46f5-9f67-6e73735f6164,rev?*%
%TF.SameCoordinates,Original*%
%TF.FileFunction,Soldermask,Top*%
%TF.FilePolarity,Negative*%
%FSLAX46Y46*%
G04 Gerber Fmt 4.6, Leading zero omitted, Abs format (unit mm)*
G04 Created by KiCad (PCBNEW 9.0.8+1) date 2026-05-04 20:35:43*
%MOMM*%
%LPD*%
G01*
G04 APERTURE LIST*
G04 Aperture macros list*
%AMRoundRect*
0 Rectangle with rounded corners*
0 $1 Rounding radius*
0 $2 $3 $4 $5 $6 $7 $8 $9 X,Y pos of 4 corners*
0 Add a 4 corners polygon primitive as box body*
4,1,4,$2,$3,$4,$5,$6,$7,$8,$9,$2,$3,0*
0 Add four circle primitives for the rounded corners*
1,1,$1+$1,$2,$3*
1,1,$1+$1,$4,$5*
1,1,$1+$1,$6,$7*
1,1,$1+$1,$8,$9*
0 Add four rect primitives between the rounded corners*
20,1,$1+$1,$2,$3,$4,$5,0*
20,1,$1+$1,$4,$5,$6,$7,0*
20,1,$1+$1,$6,$7,$8,$9,0*
20,1,$1+$1,$8,$9,$2,$3,0*%
G04 Aperture macros list end*
%ADD10RoundRect,0.175000X0.175000X-0.725000X0.175000X0.725000X-0.175000X0.725000X-0.175000X-0.725000X0*%
%ADD11RoundRect,0.200000X0.200000X-0.700000X0.200000X0.700000X-0.200000X0.700000X-0.200000X-0.700000X0*%
%ADD12RoundRect,0.100000X0.400000X0.400000X-0.400000X0.400000X-0.400000X-0.400000X0.400000X-0.400000X0*%
%ADD13RoundRect,0.105000X0.420000X0.995000X-0.420000X0.995000X-0.420000X-0.995000X0.420000X-0.995000X0*%
%ADD14R,1.700000X1.700000*%
%ADD15C,1.700000*%
G04 APERTURE END LIST*
D10*
%TO.C,U1*%
X105600000Y-73750000D03*
D11*
X106700000Y-73750000D03*
X107800000Y-73750000D03*
X108900000Y-73750000D03*
X110000000Y-73750000D03*
X111100000Y-73750000D03*
X112200000Y-73750000D03*
X113300000Y-73750000D03*
D10*
X114400000Y-73750000D03*
X114400000Y-64250000D03*
D11*
X113300000Y-64250000D03*
X112200000Y-64250000D03*
X111100000Y-64250000D03*
X110000000Y-64250000D03*
X108900000Y-64250000D03*
X107800000Y-64250000D03*
X106700000Y-64250000D03*
D10*
X105600000Y-64250000D03*
%TD*%
D12*
%TO.C,J3*%
X113300000Y-59000000D03*
D13*
X111825000Y-57500000D03*
D12*
X113300000Y-56000000D03*
D13*
X114775000Y-57500000D03*
%TD*%
D14*
%TO.C,J2*%
X117606000Y-97394000D03*
D15*
X117606000Y-94854000D03*
X117606000Y-92314000D03*
X117606000Y-89774000D03*
X117606000Y-87234000D03*
X117606000Y-84694000D03*
X117606000Y-82154000D03*
X117606000Y-79614000D03*
X117606000Y-77074000D03*
%TD*%
D14*
%TO.C,J1*%
X102366000Y-77074000D03*
D15*
X102366000Y-79614000D03*
X102366000Y-82154000D03*
X102366000Y-84694000D03*
X102366000Y-87234000D03*
X102366000Y-89774000D03*
X102366000Y-92314000D03*
X102366000Y-94854000D03*
X102366000Y-97394000D03*
%TD*%
M02*
