M48
; DRILL file {KiCad 9.0.8+1} date 2026-05-04T20:35:47-0400
; FORMAT={-:-/ absolute / inch / decimal}
; #@! TF.CreationDate,2026-05-04T20:35:47-04:00
; #@! TF.GenerationSoftware,Kicad,Pcbnew,9.0.8+1
; #@! TF.FileFunction,Plated,1,2,PTH
FMAT,2
INCH
; #@! TA.AperFunction,Plated,PTH,ViaDrill
T1C0.0118
; #@! TA.AperFunction,Plated,PTH,ComponentDrill
T2C0.0394
%
G90
G05
T1
X4.1575Y-2.5906
X4.2008Y-2.5906
X4.2441Y-2.5906
X4.2874Y-2.5906
X4.3307Y-2.5906
X4.374Y-2.5906
T2
X4.0302Y-3.0344
X4.0302Y-3.1344
X4.0302Y-3.2344
X4.0302Y-3.3344
X4.0302Y-3.4344
X4.0302Y-3.5344
X4.0302Y-3.6344
X4.0302Y-3.7344
X4.0302Y-3.8344
X4.6302Y-3.0344
X4.6302Y-3.1344
X4.6302Y-3.2344
X4.6302Y-3.3344
X4.6302Y-3.4344
X4.6302Y-3.5344
X4.6302Y-3.6344
X4.6302Y-3.7344
X4.6302Y-3.8344
M30
